<?xml version="1.0" encoding="utf-8" standalone="no"?>
<!DOCTYPE svg PUBLIC "-//W3C//DTD SVG 1.1//EN"
  "http://www.w3.org/Graphics/SVG/1.1/DTD/svg11.dtd">
<!-- Created with matplotlib (https://matplotlib.org/) -->
<svg height="720pt" version="1.1" viewBox="0 0 1080 720" width="1080pt" xmlns="http://www.w3.org/2000/svg" xmlns:xlink="http://www.w3.org/1999/xlink">
 <defs>
  <style type="text/css">
*{stroke-linecap:butt;stroke-linejoin:round;}
  </style>
 </defs>
 <g id="figure_1">
  <g id="patch_1">
   <path d="M 0 720 
L 1080 720 
L 1080 0 
L 0 0 
z
" style="fill:#ffffff;"/>
  </g>
  <g id="axes_1">
   <g id="patch_2">
    <path d="M 135 222.3 
L 972 222.3 
L 972 86.4 
L 135 86.4 
z
" style="fill:#ffffff;"/>
   </g>
   <g id="matplotlib.axis_1">
    <g id="xtick_1">
     <g id="line2d_1">
      <defs>
       <path d="M 0 0 
L 0 3.5 
" id="m9c44d18cbf" style="stroke:#000000;stroke-width:0.8;"/>
      </defs>
      <g>
       <use style="stroke:#000000;stroke-width:0.8;" x="173.045455" xlink:href="#m9c44d18cbf" y="222.3"/>
      </g>
     </g>
     <g id="text_1">
      <!-- 0 -->
      <defs>
       <path d="M 31.78125 66.40625 
Q 24.171875 66.40625 20.328125 58.90625 
Q 16.5 51.421875 16.5 36.375 
Q 16.5 21.390625 20.328125 13.890625 
Q 24.171875 6.390625 31.78125 6.390625 
Q 39.453125 6.390625 43.28125 13.890625 
Q 47.125 21.390625 47.125 36.375 
Q 47.125 51.421875 43.28125 58.90625 
Q 39.453125 66.40625 31.78125 66.40625 
z
M 31.78125 74.21875 
Q 44.046875 74.21875 50.515625 64.515625 
Q 56.984375 54.828125 56.984375 36.375 
Q 56.984375 17.96875 50.515625 8.265625 
Q 44.046875 -1.421875 31.78125 -1.421875 
Q 19.53125 -1.421875 13.0625 8.265625 
Q 6.59375 17.96875 6.59375 36.375 
Q 6.59375 54.828125 13.0625 64.515625 
Q 19.53125 74.21875 31.78125 74.21875 
z
" id="DejaVuSans-48"/>
      </defs>
      <g transform="translate(167.955455 241.4575)scale(0.16 -0.16)">
       <use xlink:href="#DejaVuSans-48"/>
      </g>
     </g>
    </g>
    <g id="xtick_2">
     <g id="line2d_2">
      <g>
       <use style="stroke:#000000;stroke-width:0.8;" x="346.768991" xlink:href="#m9c44d18cbf" y="222.3"/>
      </g>
     </g>
     <g id="text_2">
      <!-- 1 -->
      <defs>
       <path d="M 12.40625 8.296875 
L 28.515625 8.296875 
L 28.515625 63.921875 
L 10.984375 60.40625 
L 10.984375 69.390625 
L 28.421875 72.90625 
L 38.28125 72.90625 
L 38.28125 8.296875 
L 54.390625 8.296875 
L 54.390625 0 
L 12.40625 0 
z
" id="DejaVuSans-49"/>
      </defs>
      <g transform="translate(341.678991 241.4575)scale(0.16 -0.16)">
       <use xlink:href="#DejaVuSans-49"/>
      </g>
     </g>
    </g>
    <g id="xtick_3">
     <g id="line2d_3">
      <g>
       <use style="stroke:#000000;stroke-width:0.8;" x="520.492528" xlink:href="#m9c44d18cbf" y="222.3"/>
      </g>
     </g>
     <g id="text_3">
      <!-- 2 -->
      <defs>
       <path d="M 19.1875 8.296875 
L 53.609375 8.296875 
L 53.609375 0 
L 7.328125 0 
L 7.328125 8.296875 
Q 12.9375 14.109375 22.625 23.890625 
Q 32.328125 33.6875 34.8125 36.53125 
Q 39.546875 41.84375 41.421875 45.53125 
Q 43.3125 49.21875 43.3125 52.78125 
Q 43.3125 58.59375 39.234375 62.25 
Q 35.15625 65.921875 28.609375 65.921875 
Q 23.96875 65.921875 18.8125 64.3125 
Q 13.671875 62.703125 7.8125 59.421875 
L 7.8125 69.390625 
Q 13.765625 71.78125 18.9375 73 
Q 24.125 74.21875 28.421875 74.21875 
Q 39.75 74.21875 46.484375 68.546875 
Q 53.21875 62.890625 53.21875 53.421875 
Q 53.21875 48.921875 51.53125 44.890625 
Q 49.859375 40.875 45.40625 35.40625 
Q 44.1875 33.984375 37.640625 27.21875 
Q 31.109375 20.453125 19.1875 8.296875 
z
" id="DejaVuSans-50"/>
      </defs>
      <g transform="translate(515.402528 241.4575)scale(0.16 -0.16)">
       <use xlink:href="#DejaVuSans-50"/>
      </g>
     </g>
    </g>
    <g id="xtick_4">
     <g id="line2d_4">
      <g>
       <use style="stroke:#000000;stroke-width:0.8;" x="694.216065" xlink:href="#m9c44d18cbf" y="222.3"/>
      </g>
     </g>
     <g id="text_4">
      <!-- 3 -->
      <defs>
       <path d="M 40.578125 39.3125 
Q 47.65625 37.796875 51.625 33 
Q 55.609375 28.21875 55.609375 21.1875 
Q 55.609375 10.40625 48.1875 4.484375 
Q 40.765625 -1.421875 27.09375 -1.421875 
Q 22.515625 -1.421875 17.65625 -0.515625 
Q 12.796875 0.390625 7.625 2.203125 
L 7.625 11.71875 
Q 11.71875 9.328125 16.59375 8.109375 
Q 21.484375 6.890625 26.8125 6.890625 
Q 36.078125 6.890625 40.9375 10.546875 
Q 45.796875 14.203125 45.796875 21.1875 
Q 45.796875 27.640625 41.28125 31.265625 
Q 36.765625 34.90625 28.71875 34.90625 
L 20.21875 34.90625 
L 20.21875 43.015625 
L 29.109375 43.015625 
Q 36.375 43.015625 40.234375 45.921875 
Q 44.09375 48.828125 44.09375 54.296875 
Q 44.09375 59.90625 40.109375 62.90625 
Q 36.140625 65.921875 28.71875 65.921875 
Q 24.65625 65.921875 20.015625 65.03125 
Q 15.375 64.15625 9.8125 62.3125 
L 9.8125 71.09375 
Q 15.4375 72.65625 20.34375 73.4375 
Q 25.25 74.21875 29.59375 74.21875 
Q 40.828125 74.21875 47.359375 69.109375 
Q 53.90625 64.015625 53.90625 55.328125 
Q 53.90625 49.265625 50.4375 45.09375 
Q 46.96875 40.921875 40.578125 39.3125 
z
" id="DejaVuSans-51"/>
      </defs>
      <g transform="translate(689.126065 241.4575)scale(0.16 -0.16)">
       <use xlink:href="#DejaVuSans-51"/>
      </g>
     </g>
    </g>
    <g id="xtick_5">
     <g id="line2d_5">
      <g>
       <use style="stroke:#000000;stroke-width:0.8;" x="867.939601" xlink:href="#m9c44d18cbf" y="222.3"/>
      </g>
     </g>
     <g id="text_5">
      <!-- 4 -->
      <defs>
       <path d="M 37.796875 64.3125 
L 12.890625 25.390625 
L 37.796875 25.390625 
z
M 35.203125 72.90625 
L 47.609375 72.90625 
L 47.609375 25.390625 
L 58.015625 25.390625 
L 58.015625 17.1875 
L 47.609375 17.1875 
L 47.609375 0 
L 37.796875 0 
L 37.796875 17.1875 
L 4.890625 17.1875 
L 4.890625 26.703125 
z
" id="DejaVuSans-52"/>
      </defs>
      <g transform="translate(862.849601 241.4575)scale(0.16 -0.16)">
       <use xlink:href="#DejaVuSans-52"/>
      </g>
     </g>
    </g>
    <g id="text_6">
     <!-- Время -->
     <defs>
      <path d="M 19.671875 34.8125 
L 19.671875 8.109375 
L 35.5 8.109375 
Q 43.453125 8.109375 47.28125 11.40625 
Q 51.125 14.703125 51.125 21.484375 
Q 51.125 28.328125 47.28125 31.5625 
Q 43.453125 34.8125 35.5 34.8125 
z
M 19.671875 64.796875 
L 19.671875 42.828125 
L 34.28125 42.828125 
Q 41.5 42.828125 45.03125 45.53125 
Q 48.578125 48.25 48.578125 53.8125 
Q 48.578125 59.328125 45.03125 62.0625 
Q 41.5 64.796875 34.28125 64.796875 
z
M 9.8125 72.90625 
L 35.015625 72.90625 
Q 46.296875 72.90625 52.390625 68.21875 
Q 58.5 63.53125 58.5 54.890625 
Q 58.5 48.1875 55.375 44.234375 
Q 52.25 40.28125 46.1875 39.3125 
Q 53.46875 37.75 57.5 32.78125 
Q 61.53125 27.828125 61.53125 20.40625 
Q 61.53125 10.640625 54.890625 5.3125 
Q 48.25 0 35.984375 0 
L 9.8125 0 
z
" id="DejaVuSans-1042"/>
      <path d="M 18.109375 8.203125 
L 18.109375 -20.796875 
L 9.078125 -20.796875 
L 9.078125 54.6875 
L 18.109375 54.6875 
L 18.109375 46.390625 
Q 20.953125 51.265625 25.265625 53.625 
Q 29.59375 56 35.59375 56 
Q 45.5625 56 51.78125 48.09375 
Q 58.015625 40.1875 58.015625 27.296875 
Q 58.015625 14.40625 51.78125 6.484375 
Q 45.5625 -1.421875 35.59375 -1.421875 
Q 29.59375 -1.421875 25.265625 0.953125 
Q 20.953125 3.328125 18.109375 8.203125 
z
M 48.6875 27.296875 
Q 48.6875 37.203125 44.609375 42.84375 
Q 40.53125 48.484375 33.40625 48.484375 
Q 26.265625 48.484375 22.1875 42.84375 
Q 18.109375 37.203125 18.109375 27.296875 
Q 18.109375 17.390625 22.1875 11.75 
Q 26.265625 6.109375 33.40625 6.109375 
Q 40.53125 6.109375 44.609375 11.75 
Q 48.6875 17.390625 48.6875 27.296875 
z
" id="DejaVuSans-1088"/>
      <path d="M 56.203125 29.59375 
L 56.203125 25.203125 
L 14.890625 25.203125 
Q 15.484375 15.921875 20.484375 11.0625 
Q 25.484375 6.203125 34.421875 6.203125 
Q 39.59375 6.203125 44.453125 7.46875 
Q 49.3125 8.734375 54.109375 11.28125 
L 54.109375 2.78125 
Q 49.265625 0.734375 44.1875 -0.34375 
Q 39.109375 -1.421875 33.890625 -1.421875 
Q 20.796875 -1.421875 13.15625 6.1875 
Q 5.515625 13.8125 5.515625 26.8125 
Q 5.515625 40.234375 12.765625 48.109375 
Q 20.015625 56 32.328125 56 
Q 43.359375 56 49.78125 48.890625 
Q 56.203125 41.796875 56.203125 29.59375 
z
M 47.21875 32.234375 
Q 47.125 39.59375 43.09375 43.984375 
Q 39.0625 48.390625 32.421875 48.390625 
Q 24.90625 48.390625 20.390625 44.140625 
Q 15.875 39.890625 15.1875 32.171875 
z
" id="DejaVuSans-1077"/>
      <path d="M 9.078125 54.6875 
L 22.21875 54.6875 
L 37.75 18.0625 
L 53.328125 54.6875 
L 66.359375 54.6875 
L 66.359375 0 
L 57.328125 0 
L 57.328125 46.09375 
L 42.234375 10.5 
L 33.25 10.5 
L 18.109375 46.09375 
L 18.109375 0 
L 9.078125 0 
z
" id="DejaVuSans-1084"/>
      <path d="M 18.453125 38.921875 
Q 18.453125 34.859375 21.578125 32.5625 
Q 24.703125 30.28125 30.515625 30.28125 
L 42.625 30.28125 
L 42.625 47.515625 
L 30.515625 47.515625 
Q 24.703125 47.515625 21.578125 45.265625 
Q 18.453125 43.015625 18.453125 38.921875 
z
M 5.671875 0 
L 22.359375 23.96875 
Q 16.703125 25.25 12.9375 28.59375 
Q 9.1875 31.9375 9.1875 38.921875 
Q 9.1875 46.828125 14.421875 50.75 
Q 19.671875 54.6875 30.28125 54.6875 
L 51.65625 54.6875 
L 51.65625 0 
L 42.625 0 
L 42.625 23.09375 
L 31.453125 23.09375 
L 15.328125 0 
z
" id="DejaVuSans-1103"/>
     </defs>
     <g transform="translate(527.1625 260.9425)scale(0.16 -0.16)">
      <use xlink:href="#DejaVuSans-1042"/>
      <use x="68.603516" xlink:href="#DejaVuSans-1088"/>
      <use x="132.080078" xlink:href="#DejaVuSans-1077"/>
      <use x="193.603516" xlink:href="#DejaVuSans-1084"/>
      <use x="269.042969" xlink:href="#DejaVuSans-1103"/>
     </g>
    </g>
   </g>
   <g id="matplotlib.axis_2">
    <g id="ytick_1">
     <g id="line2d_6">
      <defs>
       <path d="M 0 0 
L -3.5 0 
" id="m704ca20e37" style="stroke:#000000;stroke-width:0.8;"/>
      </defs>
      <g>
       <use style="stroke:#000000;stroke-width:0.8;" x="135" xlink:href="#m704ca20e37" y="216.122727"/>
      </g>
     </g>
     <g id="text_7">
      <!-- −0.5 -->
      <defs>
       <path d="M 10.59375 35.5 
L 73.1875 35.5 
L 73.1875 27.203125 
L 10.59375 27.203125 
z
" id="DejaVuSans-8722"/>
       <path d="M 10.6875 12.40625 
L 21 12.40625 
L 21 0 
L 10.6875 0 
z
" id="DejaVuSans-46"/>
       <path d="M 10.796875 72.90625 
L 49.515625 72.90625 
L 49.515625 64.59375 
L 19.828125 64.59375 
L 19.828125 46.734375 
Q 21.96875 47.46875 24.109375 47.828125 
Q 26.265625 48.1875 28.421875 48.1875 
Q 40.625 48.1875 47.75 41.5 
Q 54.890625 34.8125 54.890625 23.390625 
Q 54.890625 11.625 47.5625 5.09375 
Q 40.234375 -1.421875 26.90625 -1.421875 
Q 22.3125 -1.421875 17.546875 -0.640625 
Q 12.796875 0.140625 7.71875 1.703125 
L 7.71875 11.625 
Q 12.109375 9.234375 16.796875 8.0625 
Q 21.484375 6.890625 26.703125 6.890625 
Q 35.15625 6.890625 40.078125 11.328125 
Q 45.015625 15.765625 45.015625 23.390625 
Q 45.015625 31 40.078125 35.4375 
Q 35.15625 39.890625 26.703125 39.890625 
Q 22.75 39.890625 18.8125 39.015625 
Q 14.890625 38.140625 10.796875 36.28125 
z
" id="DejaVuSans-53"/>
      </defs>
      <g transform="translate(89.1475 222.201477)scale(0.16 -0.16)">
       <use xlink:href="#DejaVuSans-8722"/>
       <use x="83.789062" xlink:href="#DejaVuSans-48"/>
       <use x="147.412109" xlink:href="#DejaVuSans-46"/>
       <use x="179.199219" xlink:href="#DejaVuSans-53"/>
      </g>
     </g>
    </g>
    <g id="ytick_2">
     <g id="line2d_7">
      <g>
       <use style="stroke:#000000;stroke-width:0.8;" x="135" xlink:href="#m704ca20e37" y="154.35"/>
      </g>
     </g>
     <g id="text_8">
      <!-- 0.0 -->
      <g transform="translate(102.555 160.42875)scale(0.16 -0.16)">
       <use xlink:href="#DejaVuSans-48"/>
       <use x="63.623047" xlink:href="#DejaVuSans-46"/>
       <use x="95.410156" xlink:href="#DejaVuSans-48"/>
      </g>
     </g>
    </g>
    <g id="ytick_3">
     <g id="line2d_8">
      <g>
       <use style="stroke:#000000;stroke-width:0.8;" x="135" xlink:href="#m704ca20e37" y="92.577273"/>
      </g>
     </g>
     <g id="text_9">
      <!-- 0.5 -->
      <g transform="translate(102.555 98.656023)scale(0.16 -0.16)">
       <use xlink:href="#DejaVuSans-48"/>
       <use x="63.623047" xlink:href="#DejaVuSans-46"/>
       <use x="95.410156" xlink:href="#DejaVuSans-53"/>
      </g>
     </g>
    </g>
    <g id="text_10">
     <!-- Радианы -->
     <defs>
      <path d="M 19.671875 64.796875 
L 19.671875 37.40625 
L 32.078125 37.40625 
Q 38.96875 37.40625 42.71875 40.96875 
Q 46.484375 44.53125 46.484375 51.125 
Q 46.484375 57.671875 42.71875 61.234375 
Q 38.96875 64.796875 32.078125 64.796875 
z
M 9.8125 72.90625 
L 32.078125 72.90625 
Q 44.34375 72.90625 50.609375 67.359375 
Q 56.890625 61.8125 56.890625 51.125 
Q 56.890625 40.328125 50.609375 34.8125 
Q 44.34375 29.296875 32.078125 29.296875 
L 19.671875 29.296875 
L 19.671875 0 
L 9.8125 0 
z
" id="DejaVuSans-1056"/>
      <path d="M 34.28125 27.484375 
Q 23.390625 27.484375 19.1875 25 
Q 14.984375 22.515625 14.984375 16.5 
Q 14.984375 11.71875 18.140625 8.90625 
Q 21.296875 6.109375 26.703125 6.109375 
Q 34.1875 6.109375 38.703125 11.40625 
Q 43.21875 16.703125 43.21875 25.484375 
L 43.21875 27.484375 
z
M 52.203125 31.203125 
L 52.203125 0 
L 43.21875 0 
L 43.21875 8.296875 
Q 40.140625 3.328125 35.546875 0.953125 
Q 30.953125 -1.421875 24.3125 -1.421875 
Q 15.921875 -1.421875 10.953125 3.296875 
Q 6 8.015625 6 15.921875 
Q 6 25.140625 12.171875 29.828125 
Q 18.359375 34.515625 30.609375 34.515625 
L 43.21875 34.515625 
L 43.21875 35.40625 
Q 43.21875 41.609375 39.140625 45 
Q 35.0625 48.390625 27.6875 48.390625 
Q 23 48.390625 18.546875 47.265625 
Q 14.109375 46.140625 10.015625 43.890625 
L 10.015625 52.203125 
Q 14.9375 54.109375 19.578125 55.046875 
Q 24.21875 56 28.609375 56 
Q 40.484375 56 46.34375 49.84375 
Q 52.203125 43.703125 52.203125 31.203125 
z
" id="DejaVuSans-1072"/>
      <path d="M 21.625 7.171875 
L 47.703125 7.171875 
L 47.703125 47.515625 
L 28.8125 47.515625 
L 28.8125 40.671875 
Q 28.8125 20.5625 23.046875 9.8125 
z
M 8.59375 7.171875 
Q 13.03125 9.125 14.984375 13.28125 
Q 19.78125 23.578125 19.78125 44.34375 
L 19.78125 54.6875 
L 56.734375 54.6875 
L 56.734375 7.171875 
L 63.921875 7.171875 
L 63.921875 -13.8125 
L 56.734375 -13.8125 
L 56.734375 0 
L 12.40625 0 
L 12.40625 -13.8125 
L 5.21875 -13.8125 
L 5.21875 7.171875 
z
" id="DejaVuSans-1076"/>
      <path d="M 55.90625 54.6875 
L 55.90625 0 
L 46.96875 0 
L 46.96875 43.890625 
L 20.609375 0 
L 9.078125 0 
L 9.078125 54.6875 
L 18.015625 54.6875 
L 18.015625 10.890625 
L 44.34375 54.6875 
z
" id="DejaVuSans-1080"/>
      <path d="M 9.078125 54.6875 
L 18.109375 54.6875 
L 18.109375 32.375 
L 47.265625 32.375 
L 47.265625 54.6875 
L 56.296875 54.6875 
L 56.296875 0 
L 47.265625 0 
L 47.265625 25.203125 
L 18.109375 25.203125 
L 18.109375 0 
L 9.078125 0 
z
" id="DejaVuSans-1085"/>
      <path d="M 61.046875 54.6875 
L 70.03125 54.6875 
L 70.03125 0 
L 61.046875 0 
z
M 65.546875 56 
z
M 43.453125 16.21875 
Q 43.453125 20.609375 40.25 22.90625 
Q 37.0625 25.203125 30.90625 25.203125 
L 18.109375 25.203125 
L 18.109375 7.171875 
L 30.90625 7.171875 
Q 37.0625 7.171875 40.25 9.484375 
Q 43.453125 11.8125 43.453125 16.21875 
z
M 9.078125 54.6875 
L 18.109375 54.6875 
L 18.109375 32.375 
L 31.296875 32.375 
Q 41.75 32.375 47.390625 28.390625 
Q 53.03125 24.421875 53.03125 16.21875 
Q 53.03125 8.015625 47.390625 4 
Q 41.75 0 31.296875 0 
L 9.078125 0 
z
" id="DejaVuSans-1099"/>
     </defs>
     <g transform="translate(81.82 191.255)rotate(-90)scale(0.16 -0.16)">
      <use xlink:href="#DejaVuSans-1056"/>
      <use x="60.302734" xlink:href="#DejaVuSans-1072"/>
      <use x="121.582031" xlink:href="#DejaVuSans-1076"/>
      <use x="190.722656" xlink:href="#DejaVuSans-1080"/>
      <use x="255.712891" xlink:href="#DejaVuSans-1072"/>
      <use x="316.992188" xlink:href="#DejaVuSans-1085"/>
      <use x="382.373047" xlink:href="#DejaVuSans-1099"/>
     </g>
    </g>
   </g>
   <g id="line2d_9">
    <path clip-path="url(#p8f7e832534)" d="M 173.045455 92.577273 
L 345.031756 92.577273 
L 346.768991 154.35 
L 501.382939 154.35 
L 503.120174 216.122727 
L 619.514944 216.122727 
L 621.252179 154.35 
L 629.938356 154.35 
L 631.675592 92.577273 
L 723.749066 92.577273 
L 725.486301 154.35 
L 933.954545 154.35 
L 933.954545 154.35 
" style="fill:none;stroke:#1f77b4;stroke-linecap:square;stroke-width:1.5;"/>
   </g>
   <g id="line2d_10">
    <path clip-path="url(#p8f7e832534)" d="M 173.045455 154.35 
L 174.78269 154.17832 
L 176.519925 153.647867 
L 178.257161 152.759013 
L 179.994396 151.512335 
L 181.731631 149.908453 
L 183.468867 147.948056 
L 185.206102 145.63195 
L 188.680573 140.371838 
L 190.417808 137.484657 
L 193.892279 131.348906 
L 197.36675 125.834938 
L 200.84122 119.908744 
L 202.578456 117.308282 
L 204.315691 114.96437 
L 206.052927 112.919027 
L 207.790162 111.070901 
L 209.527397 109.41677 
L 211.264633 108.095406 
L 213.001868 106.972385 
L 214.739103 106.003681 
L 216.476339 105.204039 
L 218.213574 104.588053 
L 219.950809 104.219085 
L 221.688045 104.071251 
L 225.162516 104.442223 
L 226.899751 104.634719 
L 228.636986 104.981418 
L 232.111457 105.958088 
L 235.585928 106.350953 
L 237.323163 106.445344 
L 239.060399 106.377781 
L 240.797634 106.16701 
L 246.00934 105.991674 
L 251.221046 105.429448 
L 258.169988 104.04339 
L 263.381694 103.640494 
L 265.118929 103.883536 
L 266.856164 104.266363 
L 273.805106 105.267262 
L 279.016812 105.282073 
L 285.965753 105.493088 
L 287.702989 105.374443 
L 291.17746 104.766773 
L 292.914695 104.633738 
L 296.389166 104.026362 
L 298.126401 103.680312 
L 301.600872 102.67105 
L 306.812578 101.788621 
L 312.024284 101.1418 
L 317.23599 99.922383 
L 318.973225 99.671322 
L 339.82005 98.388475 
L 343.294521 98.703949 
L 346.768991 99.127503 
L 348.506227 99.493665 
L 350.243462 100.183521 
L 351.980697 101.197595 
L 353.717933 102.536629 
L 355.455168 104.201724 
L 357.192403 106.194316 
L 358.929639 108.515053 
L 360.666874 111.129403 
L 369.353051 125.525122 
L 372.827522 131.594007 
L 374.564757 134.249383 
L 376.301993 136.546398 
L 378.039228 138.484398 
L 379.776463 140.063168 
L 381.513699 141.308244 
L 390.199875 146.416462 
L 393.674346 147.9724 
L 395.411582 148.571878 
L 397.148817 148.852074 
L 398.886052 148.852912 
L 404.097758 148.546934 
L 405.834994 148.768476 
L 409.309465 149.446498 
L 411.0467 149.671817 
L 414.521171 150.447266 
L 417.995641 151.450474 
L 423.207347 151.830811 
L 428.419054 153.068895 
L 431.893524 153.269814 
L 433.63076 153.237675 
L 437.10523 153.372479 
L 440.579701 153.292281 
L 444.054172 153.754801 
L 445.791407 154.102187 
L 447.528643 154.598304 
L 451.003113 155.301685 
L 452.740349 155.589591 
L 454.477584 155.67912 
L 457.952055 155.61506 
L 463.163761 155.178146 
L 464.900996 155.12401 
L 468.375467 154.636726 
L 470.112702 154.44017 
L 471.849938 154.059666 
L 473.587173 153.82864 
L 477.061644 153.561055 
L 478.798879 153.299455 
L 480.536115 153.190119 
L 484.010585 153.652967 
L 485.747821 154.000518 
L 489.222291 154.922054 
L 490.959527 155.008026 
L 492.696762 154.795095 
L 496.171233 154.078938 
L 503.120174 152.588963 
L 504.85741 152.445931 
L 506.594645 152.662116 
L 508.33188 153.237159 
L 510.069116 154.170527 
L 511.806351 155.46168 
L 513.543587 157.110051 
L 515.280822 159.11501 
L 517.018057 161.475827 
L 518.755293 164.165991 
L 520.492528 167.08689 
L 523.966999 173.442818 
L 525.704234 176.327346 
L 527.441469 178.995261 
L 529.178705 181.447738 
L 530.91594 183.674616 
L 532.653176 185.665066 
L 536.127646 189.152587 
L 537.864882 190.699555 
L 539.602117 191.963614 
L 541.339352 192.907648 
L 543.076588 193.621608 
L 548.288294 195.261941 
L 550.025529 195.699369 
L 553.5 196.182946 
L 555.237235 196.212365 
L 560.448941 195.673271 
L 562.186177 195.589717 
L 563.923412 195.313765 
L 565.660648 194.776852 
L 574.346824 192.79698 
L 591.719178 192.59296 
L 598.66812 193.792164 
L 602.14259 193.589912 
L 603.879826 193.48336 
L 605.617061 193.227047 
L 607.354296 192.732009 
L 610.828767 191.334812 
L 612.566002 190.681512 
L 617.777709 189.234694 
L 619.514944 189.107564 
L 622.989415 189.29667 
L 624.72665 189.037174 
L 626.463885 188.432896 
L 628.201121 187.483885 
L 629.938356 186.189931 
L 631.675592 184.550592 
L 633.412827 182.565216 
L 635.150062 180.232991 
L 636.887298 177.552982 
L 638.624533 174.524194 
L 640.361768 171.145634 
L 642.099004 167.416385 
L 643.836239 163.335689 
L 647.31071 154.239672 
L 650.785181 144.824435 
L 654.259651 136.190499 
L 655.996887 132.209319 
L 657.734122 128.553524 
L 659.471357 125.253463 
L 661.208593 122.260691 
L 662.945828 119.527819 
L 668.157534 112.307776 
L 669.89477 110.274274 
L 671.632005 108.580528 
L 673.36924 107.211331 
L 675.106476 106.090682 
L 676.843711 105.248386 
L 678.580946 104.557503 
L 680.318182 104.047024 
L 682.055417 103.735253 
L 683.792653 103.644167 
L 687.267123 104.109231 
L 692.478829 105.111801 
L 694.216065 105.13683 
L 697.690535 104.782871 
L 699.427771 104.920484 
L 708.113948 106.534789 
L 709.851183 106.655328 
L 711.588418 106.517043 
L 715.062889 106.10694 
L 718.53736 105.876408 
L 722.011831 105.854559 
L 723.749066 105.671332 
L 725.486301 105.284626 
L 727.223537 105.048845 
L 728.960772 105.083542 
L 730.698007 105.449086 
L 732.435243 106.145549 
L 734.172478 107.173195 
L 735.909714 108.532637 
L 737.646949 110.224817 
L 739.384184 112.249868 
L 741.12142 114.576696 
L 744.59589 120.024664 
L 753.282067 133.714054 
L 755.019303 136.043047 
L 756.756538 138.013191 
L 760.231009 141.109222 
L 761.968244 142.429773 
L 763.705479 143.561865 
L 768.917186 146.406176 
L 779.340598 151.274378 
L 781.077833 151.922763 
L 784.552304 152.76257 
L 788.026775 153.427023 
L 791.501245 153.874076 
L 794.975716 154.021196 
L 798.450187 154.320183 
L 801.924658 154.373613 
L 803.661893 154.387651 
L 805.399128 154.186754 
L 810.610834 153.222116 
L 812.34807 153.047535 
L 815.82254 153.222609 
L 821.034247 153.771186 
L 822.771482 153.930811 
L 824.508717 154.273014 
L 826.245953 154.462823 
L 831.457659 154.09896 
L 833.194894 154.164236 
L 836.669365 154.884414 
L 838.4066 155.102771 
L 840.143836 155.152206 
L 848.830012 154.048437 
L 854.041719 153.107393 
L 878.363014 153.42098 
L 881.837484 153.130122 
L 887.049191 152.493034 
L 890.523661 151.660872 
L 900.947073 148.988697 
L 904.421544 148.708232 
L 909.63325 148.38474 
L 918.319427 148.701971 
L 921.793898 149.299169 
L 923.531133 149.397561 
L 925.268369 149.648719 
L 928.742839 150.8223 
L 933.954545 152.049959 
L 933.954545 152.049959 
" style="fill:none;stroke:#ff7f0e;stroke-linecap:square;stroke-width:1.5;"/>
   </g>
   <g id="patch_3">
    <path d="M 135 222.3 
L 135 86.4 
" style="fill:none;stroke:#000000;stroke-linecap:square;stroke-linejoin:miter;stroke-width:0.8;"/>
   </g>
   <g id="patch_4">
    <path d="M 972 222.3 
L 972 86.4 
" style="fill:none;stroke:#000000;stroke-linecap:square;stroke-linejoin:miter;stroke-width:0.8;"/>
   </g>
   <g id="patch_5">
    <path d="M 135 222.3 
L 972 222.3 
" style="fill:none;stroke:#000000;stroke-linecap:square;stroke-linejoin:miter;stroke-width:0.8;"/>
   </g>
   <g id="patch_6">
    <path d="M 135 86.4 
L 972 86.4 
" style="fill:none;stroke:#000000;stroke-linecap:square;stroke-linejoin:miter;stroke-width:0.8;"/>
   </g>
   <g id="text_11">
    <!-- Переходный процесс -->
    <defs>
     <path d="M 65.375 72.90625 
L 65.375 0 
L 55.515625 0 
L 55.515625 64.59375 
L 19.671875 64.59375 
L 19.671875 0 
L 9.8125 0 
L 9.8125 72.90625 
z
" id="DejaVuSans-1055"/>
     <path d="M 54.890625 54.6875 
L 35.109375 28.078125 
L 55.90625 0 
L 45.3125 0 
L 29.390625 21.484375 
L 13.484375 0 
L 2.875 0 
L 24.125 28.609375 
L 4.6875 54.6875 
L 15.28125 54.6875 
L 29.78125 35.203125 
L 44.28125 54.6875 
z
" id="DejaVuSans-1093"/>
     <path d="M 30.609375 48.390625 
Q 23.390625 48.390625 19.1875 42.75 
Q 14.984375 37.109375 14.984375 27.296875 
Q 14.984375 17.484375 19.15625 11.84375 
Q 23.34375 6.203125 30.609375 6.203125 
Q 37.796875 6.203125 41.984375 11.859375 
Q 46.1875 17.53125 46.1875 27.296875 
Q 46.1875 37.015625 41.984375 42.703125 
Q 37.796875 48.390625 30.609375 48.390625 
z
M 30.609375 56 
Q 42.328125 56 49.015625 48.375 
Q 55.71875 40.765625 55.71875 27.296875 
Q 55.71875 13.875 49.015625 6.21875 
Q 42.328125 -1.421875 30.609375 -1.421875 
Q 18.84375 -1.421875 12.171875 6.21875 
Q 5.515625 13.875 5.515625 27.296875 
Q 5.515625 40.765625 12.171875 48.375 
Q 18.84375 56 30.609375 56 
z
" id="DejaVuSans-1086"/>
     <path d="M 55.90625 54.6875 
L 55.90625 0 
L 46.96875 0 
L 46.96875 43.890625 
L 20.609375 0 
L 9.078125 0 
L 9.078125 54.6875 
L 18.015625 54.6875 
L 18.015625 10.890625 
L 44.34375 54.6875 
z
M 17.21875 75.515625 
L 22.984375 75.515625 
Q 23.515625 71.859375 25.875 70.015625 
Q 28.25 68.1875 32.5 68.1875 
Q 36.703125 68.1875 39.046875 70 
Q 41.390625 71.8125 42.015625 75.515625 
L 47.78125 75.515625 
Q 47.296875 68.53125 43.4375 65.015625 
Q 39.578125 61.5 32.5 61.5 
Q 25.421875 61.5 21.5625 65.015625 
Q 17.703125 68.53125 17.21875 75.515625 
z
" id="DejaVuSans-1081"/>
     <path id="DejaVuSans-32"/>
     <path d="M 56.296875 54.6875 
L 56.296875 0 
L 47.265625 0 
L 47.265625 47.515625 
L 18.109375 47.515625 
L 18.109375 0 
L 9.078125 0 
L 9.078125 54.6875 
z
" id="DejaVuSans-1087"/>
     <path d="M 56.296875 0 
L 9.078125 0 
L 9.078125 54.6875 
L 18.109375 54.6875 
L 18.109375 7.171875 
L 47.265625 7.171875 
L 47.265625 54.6875 
L 56.296875 54.6875 
L 56.296875 7.171875 
L 63.484375 7.171875 
L 63.484375 -13.8125 
L 56.296875 -13.8125 
z
" id="DejaVuSans-1094"/>
     <path d="M 48.78125 52.59375 
L 48.78125 44.1875 
Q 44.96875 46.296875 41.140625 47.34375 
Q 37.3125 48.390625 33.40625 48.390625 
Q 24.65625 48.390625 19.8125 42.84375 
Q 14.984375 37.3125 14.984375 27.296875 
Q 14.984375 17.28125 19.8125 11.734375 
Q 24.65625 6.203125 33.40625 6.203125 
Q 37.3125 6.203125 41.140625 7.25 
Q 44.96875 8.296875 48.78125 10.40625 
L 48.78125 2.09375 
Q 45.015625 0.34375 40.984375 -0.53125 
Q 36.96875 -1.421875 32.421875 -1.421875 
Q 20.0625 -1.421875 12.78125 6.34375 
Q 5.515625 14.109375 5.515625 27.296875 
Q 5.515625 40.671875 12.859375 48.328125 
Q 20.21875 56 33.015625 56 
Q 37.15625 56 41.109375 55.140625 
Q 45.0625 54.296875 48.78125 52.59375 
z
" id="DejaVuSans-1089"/>
    </defs>
    <g transform="translate(445.791 80.4)scale(0.192 -0.192)">
     <use xlink:href="#DejaVuSans-1055"/>
     <use x="75.195312" xlink:href="#DejaVuSans-1077"/>
     <use x="136.71875" xlink:href="#DejaVuSans-1088"/>
     <use x="200.195312" xlink:href="#DejaVuSans-1077"/>
     <use x="261.71875" xlink:href="#DejaVuSans-1093"/>
     <use x="320.898438" xlink:href="#DejaVuSans-1086"/>
     <use x="382.080078" xlink:href="#DejaVuSans-1076"/>
     <use x="451.220703" xlink:href="#DejaVuSans-1085"/>
     <use x="516.601562" xlink:href="#DejaVuSans-1099"/>
     <use x="595.556641" xlink:href="#DejaVuSans-1081"/>
     <use x="660.546875" xlink:href="#DejaVuSans-32"/>
     <use x="692.333984" xlink:href="#DejaVuSans-1087"/>
     <use x="757.714844" xlink:href="#DejaVuSans-1088"/>
     <use x="821.191406" xlink:href="#DejaVuSans-1086"/>
     <use x="882.373047" xlink:href="#DejaVuSans-1094"/>
     <use x="950.439453" xlink:href="#DejaVuSans-1077"/>
     <use x="1011.962891" xlink:href="#DejaVuSans-1089"/>
     <use x="1066.943359" xlink:href="#DejaVuSans-1089"/>
    </g>
   </g>
   <g id="legend_1">
    <g id="patch_7">
     <path d="M 146.2 214.3 
L 336.6225 214.3 
Q 339.8225 214.3 339.8225 211.1 
L 339.8225 165.73 
Q 339.8225 162.53 336.6225 162.53 
L 146.2 162.53 
Q 143 162.53 143 165.73 
L 143 211.1 
Q 143 214.3 146.2 214.3 
z
" style="fill:#ffffff;opacity:0.8;stroke:#cccccc;stroke-linejoin:miter;"/>
    </g>
    <g id="line2d_11">
     <path d="M 149.4 175.4875 
L 181.4 175.4875 
" style="fill:none;stroke:#1f77b4;stroke-linecap:square;stroke-width:1.5;"/>
    </g>
    <g id="line2d_12"/>
    <g id="text_12">
     <!-- Задание -->
     <defs>
      <path d="M 28.5625 74.21875 
Q 40.578125 74.21875 48.1875 69.109375 
Q 55.8125 64.015625 55.8125 55.328125 
Q 55.8125 49.265625 52.34375 45.09375 
Q 48.875 40.921875 42.484375 39.3125 
Q 49.5625 37.796875 53.53125 33 
Q 57.515625 28.21875 57.515625 21.1875 
Q 57.515625 9.96875 48.84375 4.265625 
Q 40.1875 -1.421875 28.5625 -1.421875 
Q 22.609375 -1.421875 15.671875 0.1875 
Q 8.734375 1.8125 6.59375 3.171875 
L 6.59375 13.328125 
Q 14.0625 8.984375 18.1875 7.9375 
Q 22.3125 6.890625 28.375 6.890625 
Q 37.546875 6.890625 42.625 10.40625 
Q 47.703125 13.921875 47.703125 21.1875 
Q 47.703125 27.640625 43.1875 31.265625 
Q 38.671875 34.90625 29.15625 34.90625 
L 19.1875 34.90625 
L 19.1875 43.015625 
L 29.546875 43.015625 
Q 38.28125 43.015625 42.140625 45.921875 
Q 46 48.828125 46 54.296875 
Q 46 59.90625 42.015625 62.90625 
Q 38.03125 65.921875 28.375 65.921875 
Q 21.828125 65.921875 19.578125 65.328125 
Q 17.328125 64.75 7.328125 60.984375 
L 7.328125 70.609375 
Q 12.84375 72.5625 18.59375 73.390625 
Q 24.359375 74.21875 28.5625 74.21875 
z
" id="DejaVuSans-1047"/>
     </defs>
     <g transform="translate(194.2 181.0875)scale(0.16 -0.16)">
      <use xlink:href="#DejaVuSans-1047"/>
      <use x="64.111328" xlink:href="#DejaVuSans-1072"/>
      <use x="125.390625" xlink:href="#DejaVuSans-1076"/>
      <use x="194.53125" xlink:href="#DejaVuSans-1072"/>
      <use x="255.810547" xlink:href="#DejaVuSans-1085"/>
      <use x="321.191406" xlink:href="#DejaVuSans-1080"/>
      <use x="386.181641" xlink:href="#DejaVuSans-1077"/>
     </g>
    </g>
    <g id="line2d_13">
     <path d="M 149.4 198.9725 
L 181.4 198.9725 
" style="fill:none;stroke:#ff7f0e;stroke-linecap:square;stroke-width:1.5;"/>
    </g>
    <g id="line2d_14"/>
    <g id="text_13">
     <!-- Нейрорегулятор -->
     <defs>
      <path d="M 9.8125 72.90625 
L 19.671875 72.90625 
L 19.671875 43.015625 
L 55.515625 43.015625 
L 55.515625 72.90625 
L 65.375 72.90625 
L 65.375 0 
L 55.515625 0 
L 55.515625 34.71875 
L 19.671875 34.71875 
L 19.671875 0 
L 9.8125 0 
z
" id="DejaVuSans-1053"/>
      <path d="M 9.078125 0 
L 9.078125 54.6875 
L 47.65625 54.6875 
L 47.65625 47.515625 
L 18.109375 47.515625 
L 18.109375 0 
z
" id="DejaVuSans-1075"/>
      <path d="M 32.171875 -5.078125 
Q 28.375 -14.84375 24.75 -17.8125 
Q 21.140625 -20.796875 15.09375 -20.796875 
L 7.90625 -20.796875 
L 7.90625 -13.28125 
L 13.1875 -13.28125 
Q 16.890625 -13.28125 18.9375 -11.515625 
Q 21 -9.765625 23.484375 -3.21875 
L 25.09375 0.875 
L 2.984375 54.6875 
L 12.5 54.6875 
L 29.59375 11.921875 
L 46.6875 54.6875 
L 56.203125 54.6875 
z
" id="DejaVuSans-1091"/>
      <path d="M 3.71875 0 
L 3.71875 7.46875 
Q 12.59375 8.84375 15.328125 14.984375 
Q 18.65625 23.640625 18.65625 45.75 
L 18.65625 54.6875 
L 55.609375 54.6875 
L 55.609375 0 
L 46.625 0 
L 46.625 47.515625 
L 27.640625 47.515625 
L 27.640625 42.09375 
Q 27.640625 21 23.34375 11.53125 
Q 18.75 1.421875 3.71875 0 
z
" id="DejaVuSans-1083"/>
      <path d="M 2.9375 54.6875 
L 55.328125 54.6875 
L 55.328125 47.515625 
L 33.546875 47.515625 
L 33.546875 0 
L 24.703125 0 
L 24.703125 47.515625 
L 2.9375 47.515625 
z
" id="DejaVuSans-1090"/>
     </defs>
     <g transform="translate(194.2 204.5725)scale(0.16 -0.16)">
      <use xlink:href="#DejaVuSans-1053"/>
      <use x="75.195312" xlink:href="#DejaVuSans-1077"/>
      <use x="136.71875" xlink:href="#DejaVuSans-1081"/>
      <use x="201.708984" xlink:href="#DejaVuSans-1088"/>
      <use x="265.185547" xlink:href="#DejaVuSans-1086"/>
      <use x="326.367188" xlink:href="#DejaVuSans-1088"/>
      <use x="389.84375" xlink:href="#DejaVuSans-1077"/>
      <use x="451.367188" xlink:href="#DejaVuSans-1075"/>
      <use x="503.90625" xlink:href="#DejaVuSans-1091"/>
      <use x="563.085938" xlink:href="#DejaVuSans-1083"/>
      <use x="627.001953" xlink:href="#DejaVuSans-1103"/>
      <use x="687.158203" xlink:href="#DejaVuSans-1090"/>
      <use x="745.410156" xlink:href="#DejaVuSans-1086"/>
      <use x="806.591797" xlink:href="#DejaVuSans-1088"/>
     </g>
    </g>
   </g>
  </g>
  <g id="axes_2">
   <g id="patch_8">
    <path d="M 135 426.15 
L 972 426.15 
L 972 290.25 
L 135 290.25 
z
" style="fill:#ffffff;"/>
   </g>
   <g id="matplotlib.axis_3">
    <g id="xtick_6">
     <g id="line2d_15">
      <g>
       <use style="stroke:#000000;stroke-width:0.8;" x="173.045455" xlink:href="#m9c44d18cbf" y="426.15"/>
      </g>
     </g>
     <g id="text_14">
      <!-- 0 -->
      <g transform="translate(167.955455 445.3075)scale(0.16 -0.16)">
       <use xlink:href="#DejaVuSans-48"/>
      </g>
     </g>
    </g>
    <g id="xtick_7">
     <g id="line2d_16">
      <g>
       <use style="stroke:#000000;stroke-width:0.8;" x="346.768991" xlink:href="#m9c44d18cbf" y="426.15"/>
      </g>
     </g>
     <g id="text_15">
      <!-- 1 -->
      <g transform="translate(341.678991 445.3075)scale(0.16 -0.16)">
       <use xlink:href="#DejaVuSans-49"/>
      </g>
     </g>
    </g>
    <g id="xtick_8">
     <g id="line2d_17">
      <g>
       <use style="stroke:#000000;stroke-width:0.8;" x="520.492528" xlink:href="#m9c44d18cbf" y="426.15"/>
      </g>
     </g>
     <g id="text_16">
      <!-- 2 -->
      <g transform="translate(515.402528 445.3075)scale(0.16 -0.16)">
       <use xlink:href="#DejaVuSans-50"/>
      </g>
     </g>
    </g>
    <g id="xtick_9">
     <g id="line2d_18">
      <g>
       <use style="stroke:#000000;stroke-width:0.8;" x="694.216065" xlink:href="#m9c44d18cbf" y="426.15"/>
      </g>
     </g>
     <g id="text_17">
      <!-- 3 -->
      <g transform="translate(689.126065 445.3075)scale(0.16 -0.16)">
       <use xlink:href="#DejaVuSans-51"/>
      </g>
     </g>
    </g>
    <g id="xtick_10">
     <g id="line2d_19">
      <g>
       <use style="stroke:#000000;stroke-width:0.8;" x="867.939601" xlink:href="#m9c44d18cbf" y="426.15"/>
      </g>
     </g>
     <g id="text_18">
      <!-- 4 -->
      <g transform="translate(862.849601 445.3075)scale(0.16 -0.16)">
       <use xlink:href="#DejaVuSans-52"/>
      </g>
     </g>
    </g>
    <g id="text_19">
     <!-- Время -->
     <g transform="translate(527.1625 464.7925)scale(0.16 -0.16)">
      <use xlink:href="#DejaVuSans-1042"/>
      <use x="68.603516" xlink:href="#DejaVuSans-1088"/>
      <use x="132.080078" xlink:href="#DejaVuSans-1077"/>
      <use x="193.603516" xlink:href="#DejaVuSans-1084"/>
      <use x="269.042969" xlink:href="#DejaVuSans-1103"/>
     </g>
    </g>
   </g>
   <g id="matplotlib.axis_4">
    <g id="ytick_4">
     <g id="line2d_20">
      <g>
       <use style="stroke:#000000;stroke-width:0.8;" x="135" xlink:href="#m704ca20e37" y="407.130688"/>
      </g>
     </g>
     <g id="text_20">
      <!-- −2 -->
      <g transform="translate(104.4125 413.209438)scale(0.16 -0.16)">
       <use xlink:href="#DejaVuSans-8722"/>
       <use x="83.789062" xlink:href="#DejaVuSans-50"/>
      </g>
     </g>
    </g>
    <g id="ytick_5">
     <g id="line2d_21">
      <g>
       <use style="stroke:#000000;stroke-width:0.8;" x="135" xlink:href="#m704ca20e37" y="369.782927"/>
      </g>
     </g>
     <g id="text_21">
      <!-- 0 -->
      <g transform="translate(117.82 375.861677)scale(0.16 -0.16)">
       <use xlink:href="#DejaVuSans-48"/>
      </g>
     </g>
    </g>
    <g id="ytick_6">
     <g id="line2d_22">
      <g>
       <use style="stroke:#000000;stroke-width:0.8;" x="135" xlink:href="#m704ca20e37" y="332.435166"/>
      </g>
     </g>
     <g id="text_22">
      <!-- 2 -->
      <g transform="translate(117.82 338.513916)scale(0.16 -0.16)">
       <use xlink:href="#DejaVuSans-50"/>
      </g>
     </g>
    </g>
    <g id="ytick_7">
     <g id="line2d_23">
      <g>
       <use style="stroke:#000000;stroke-width:0.8;" x="135" xlink:href="#m704ca20e37" y="295.087405"/>
      </g>
     </g>
     <g id="text_23">
      <!-- 4 -->
      <g transform="translate(117.82 301.166155)scale(0.16 -0.16)">
       <use xlink:href="#DejaVuSans-52"/>
      </g>
     </g>
    </g>
    <g id="text_24">
     <!-- Радиан в секунду -->
     <defs>
      <path d="M 18.0625 25.203125 
L 18.0625 7.171875 
L 30.859375 7.171875 
Q 37.015625 7.171875 40.234375 9.484375 
Q 43.453125 11.8125 43.453125 16.21875 
Q 43.453125 20.609375 40.234375 22.90625 
Q 37.015625 25.203125 30.859375 25.203125 
z
M 18.0625 47.515625 
L 18.0625 32.375 
L 29.890625 32.375 
Q 34.96875 32.375 38.1875 34.390625 
Q 41.40625 36.421875 41.40625 40.046875 
Q 41.40625 43.65625 38.1875 45.578125 
Q 34.96875 47.515625 29.890625 47.515625 
z
M 9.078125 54.6875 
L 30.46875 54.6875 
Q 40.09375 54.6875 45.265625 51.171875 
Q 50.4375 47.65625 50.4375 41.15625 
Q 50.4375 36.140625 47.796875 33.171875 
Q 45.171875 30.21875 39.984375 29.5 
Q 46.1875 28.328125 49.609375 24.609375 
Q 53.03125 20.90625 53.03125 15.328125 
Q 53.03125 8.015625 47.390625 4 
Q 41.75 0 31.296875 0 
L 9.078125 0 
z
" id="DejaVuSans-1074"/>
      <path d="M 9.078125 54.6875 
L 18.015625 54.6875 
L 18.015625 29 
L 43.359375 54.6875 
L 54.390625 54.6875 
L 33.5 33.546875 
L 57.078125 0 
L 47.015625 0 
L 27.640625 27.59375 
L 18.015625 17.828125 
L 18.015625 0 
L 9.078125 0 
z
" id="DejaVuSans-1082"/>
     </defs>
     <g transform="translate(97.085 432.97375)rotate(-90)scale(0.16 -0.16)">
      <use xlink:href="#DejaVuSans-1056"/>
      <use x="60.302734" xlink:href="#DejaVuSans-1072"/>
      <use x="121.582031" xlink:href="#DejaVuSans-1076"/>
      <use x="190.722656" xlink:href="#DejaVuSans-1080"/>
      <use x="255.712891" xlink:href="#DejaVuSans-1072"/>
      <use x="316.992188" xlink:href="#DejaVuSans-1085"/>
      <use x="382.373047" xlink:href="#DejaVuSans-32"/>
      <use x="414.160156" xlink:href="#DejaVuSans-1074"/>
      <use x="473.095703" xlink:href="#DejaVuSans-32"/>
      <use x="504.882812" xlink:href="#DejaVuSans-1089"/>
      <use x="559.863281" xlink:href="#DejaVuSans-1077"/>
      <use x="621.386719" xlink:href="#DejaVuSans-1082"/>
      <use x="681.787109" xlink:href="#DejaVuSans-1091"/>
      <use x="740.966797" xlink:href="#DejaVuSans-1085"/>
      <use x="806.347656" xlink:href="#DejaVuSans-1076"/>
      <use x="875.488281" xlink:href="#DejaVuSans-1091"/>
     </g>
    </g>
   </g>
   <g id="line2d_24">
    <path clip-path="url(#p43b1a2acde)" d="M 173.045455 369.782927 
L 179.994396 348.238204 
L 185.206102 332.091349 
L 186.943337 330.944893 
L 188.680573 328.303624 
L 190.417808 325.13245 
L 192.155044 321.441509 
L 193.892279 326.325723 
L 195.629514 329.591989 
L 197.36675 327.003846 
L 199.103985 322.851919 
L 200.84122 328.040973 
L 202.578456 331.867618 
L 204.315691 336.579498 
L 206.052927 340.232865 
L 207.790162 342.325866 
L 209.527397 347.339997 
L 211.264633 351.54058 
L 213.001868 353.082973 
L 214.739103 356.125673 
L 216.476339 358.152208 
L 218.213574 362.170195 
L 219.950809 365.17671 
L 221.688045 369.670561 
L 223.42528 373.661032 
L 226.899751 372.654025 
L 228.636986 377.146456 
L 230.374222 378.136552 
L 232.111457 375.619519 
L 233.848692 372.096961 
L 235.585928 372.092568 
L 237.323163 371.085382 
L 239.060399 367.062604 
L 240.797634 366.562901 
L 242.534869 370.582507 
L 244.272105 370.081197 
L 246.00934 365.563673 
L 247.746575 367.573487 
L 251.221046 366.5805 
L 252.958281 363.080703 
L 254.695517 364.589251 
L 256.432752 364.099545 
L 258.169988 365.602798 
L 259.907223 368.100674 
L 261.644458 366.609242 
L 265.118929 375.571642 
L 266.856164 375.564953 
L 268.5934 373.062193 
L 270.330635 373.056321 
L 272.06787 375.049138 
L 273.805106 371.53985 
L 275.542341 368.533727 
L 277.279577 371.536967 
L 279.016812 368.532177 
L 280.754047 371.535759 
L 282.491283 368.528962 
L 284.228518 373.424098 
L 285.965753 370.026793 
L 287.702989 367.021026 
L 289.440224 363.521077 
L 291.17746 366.528855 
L 292.914695 368.032403 
L 294.65193 364.541136 
L 298.126401 364.556407 
L 299.863636 360.088689 
L 303.338107 366.065167 
L 305.075342 364.091443 
L 306.812578 368.057684 
L 308.549813 366.579188 
L 310.287049 367.570226 
L 312.024284 363.62575 
L 317.23599 363.653263 
L 318.973225 368.077935 
L 338.082814 368.108679 
L 339.82005 369.086457 
L 341.557285 372.992964 
L 346.768991 372.979013 
L 351.980697 387.564197 
L 358.929639 406.981815 
L 360.666874 410.987147 
L 362.40411 413.991353 
L 364.141345 409.798208 
L 365.87858 411.809157 
L 367.615816 414.357491 
L 369.353051 419.436339 
L 371.090286 416.30585 
L 372.827522 412.507282 
L 378.039228 396.361154 
L 379.776463 390.930854 
L 381.513699 387.540311 
L 383.250934 383.192327 
L 384.988169 385.330885 
L 386.725405 385.307874 
L 388.46264 386.364929 
L 390.199875 384.173851 
L 391.937111 380.358913 
L 393.674346 381.426186 
L 395.411582 376.530991 
L 397.148817 372.18043 
L 398.886052 368.380429 
L 402.360523 367.301453 
L 404.097758 370.556761 
L 405.834994 375.435304 
L 407.572229 374.887862 
L 409.309465 374.879112 
L 411.0467 372.702909 
L 412.783935 377.036852 
L 414.521171 375.942871 
L 416.258406 379.187001 
L 417.995641 373.868751 
L 419.732877 370.484055 
L 421.470112 370.482073 
L 423.207347 375.786132 
L 424.944583 375.900182 
L 426.681818 377.517731 
L 428.419054 372.200737 
L 430.156289 371.532047 
L 431.893524 370.986773 
L 433.63076 368.814066 
L 435.367995 372.613614 
L 437.10523 369.352455 
L 438.842466 368.266039 
L 440.579701 370.439227 
L 442.316936 374.23811 
L 444.054172 373.690475 
L 445.791407 375.310723 
L 447.528643 378.016105 
L 449.265878 372.698034 
L 451.003113 375.826203 
L 452.740349 373.64786 
L 454.477584 369.298969 
L 457.952055 369.299534 
L 459.68929 366.044434 
L 461.426526 366.59096 
L 463.163761 370.938965 
L 464.900996 368.225195 
L 466.638232 363.884463 
L 468.375467 369.198942 
L 470.112702 364.98086 
L 471.849938 363.902921 
L 473.587173 367.710148 
L 475.324408 368.255938 
L 477.061644 367.174806 
L 478.798879 365.550772 
L 480.536115 370.440248 
L 482.27335 374.240605 
L 484.010585 373.692968 
L 485.747821 375.313206 
L 487.485056 378.561607 
L 490.959527 368.772573 
L 492.696762 365.515755 
L 494.433998 362.808444 
L 496.171233 366.617373 
L 497.908468 362.824047 
L 499.645704 362.83384 
L 501.382939 365.014454 
L 503.120174 365.022688 
L 510.069116 386.596112 
L 517.018057 408.151809 
L 518.755293 411.465021 
L 522.229763 419.972727 
L 523.966999 415.59664 
L 529.178705 405.795026 
L 530.91594 402.036476 
L 534.390411 395.631911 
L 536.127646 395.591264 
L 537.864882 391.387193 
L 539.602117 386.283253 
L 541.339352 383.036603 
L 543.076588 378.370011 
L 546.551059 378.341325 
L 550.025529 376.263713 
L 551.762765 373.178582 
L 553.5 372.661305 
L 555.237235 368.049846 
L 556.974471 366.515476 
L 558.711706 366.008428 
L 560.448941 370.11475 
L 562.186177 368.063602 
L 563.923412 363.050346 
L 565.660648 361.405202 
L 567.397883 365.531333 
L 569.135118 360.906555 
L 570.872354 365.957497 
L 572.609589 362.469568 
L 574.346824 367.12775 
L 576.08406 372.186067 
L 577.821295 370.750786 
L 579.558531 366.615364 
L 581.295766 371.671847 
L 583.033001 370.753881 
L 584.770237 366.617728 
L 586.507472 371.675089 
L 588.244707 370.75696 
L 589.981943 366.620083 
L 593.456413 376.845396 
L 595.193649 373.854098 
L 596.930884 375.394051 
L 598.66812 371.262385 
L 600.405355 366.220943 
L 602.14259 368.170311 
L 603.879826 368.173649 
L 609.091532 357.351631 
L 610.828767 361.51537 
L 612.566002 359.453034 
L 614.303238 364.145612 
L 616.040473 361.035355 
L 617.777709 365.736526 
L 619.514944 368.872603 
L 621.252179 373.566738 
L 628.201121 352.832572 
L 642.099004 310.760951 
L 643.836239 305.444263 
L 645.573474 301.628247 
L 647.31071 296.427273 
L 649.047945 297.5015 
L 650.785181 301.407366 
L 652.522416 303.677653 
L 654.259651 307.013194 
L 655.996887 311.93043 
L 659.471357 322.194007 
L 661.208593 325.955468 
L 664.683064 335.470923 
L 666.420299 331.390115 
L 671.632005 346.737865 
L 673.36924 350.423585 
L 675.106476 355.36928 
L 676.843711 357.51067 
L 678.580946 360.030121 
L 682.055417 366.038841 
L 683.792653 370.525831 
L 685.529888 375.393926 
L 687.267123 373.008195 
L 689.004359 377.878762 
L 690.741594 374.983791 
L 692.478829 372.475836 
L 694.216065 368.468348 
L 695.9533 365.468931 
L 697.690535 369.47285 
L 699.427771 374.359872 
L 701.165006 374.466405 
L 702.902242 374.459207 
L 704.639477 373.952007 
L 706.376712 376.451847 
L 708.113948 373.931894 
L 709.851183 369.902499 
L 711.588418 366.382229 
L 713.325654 365.885037 
L 715.062889 367.89758 
L 716.800125 367.400403 
L 718.53736 368.907024 
L 720.274595 369.911186 
L 722.011831 369.411282 
L 723.749066 364.509317 
L 725.486301 363.903418 
L 727.223537 367.914194 
L 732.435243 382.811749 
L 739.384184 402.541527 
L 741.12142 407.110504 
L 742.858655 411.186313 
L 744.59589 412.679445 
L 746.333126 410.000812 
L 748.070361 409.413729 
L 749.807597 414.526261 
L 751.544832 412.9858 
L 756.756538 396.84805 
L 758.493773 391.419468 
L 760.231009 392.340634 
L 761.968244 387.02779 
L 763.705479 386.878534 
L 765.442715 382.525187 
L 767.17995 384.126862 
L 768.917186 384.105705 
L 770.654421 381.375975 
L 772.391656 384.60823 
L 774.128892 379.285776 
L 775.866127 382.401113 
L 779.340598 381.280387 
L 781.077833 379.092377 
L 782.815068 374.735566 
L 784.552304 375.811296 
L 786.289539 375.261272 
L 788.026775 374.167599 
L 789.76401 373.618265 
L 791.501245 372.527082 
L 793.238481 369.265976 
L 794.975716 372.521852 
L 796.712951 372.518547 
L 798.450187 371.429945 
L 800.187422 368.713531 
L 801.924658 371.970275 
L 803.661893 369.25484 
L 805.399128 364.912457 
L 810.610834 364.933961 
L 812.34807 368.197262 
L 814.085305 373.50667 
L 815.82254 370.368387 
L 817.559776 375.672751 
L 819.297011 373.074081 
L 821.034247 369.812153 
L 822.771482 373.610281 
L 824.508717 375.23247 
L 826.245953 370.340917 
L 827.983188 367.081649 
L 831.457659 368.172524 
L 833.194894 373.482253 
L 834.93213 376.855873 
L 836.669365 373.589914 
L 838.4066 373.041459 
L 840.143836 368.693349 
L 841.881071 365.438157 
L 843.618306 366.528318 
L 845.355542 364.907055 
L 847.092777 369.255935 
L 848.830012 364.915381 
L 850.567248 364.92194 
L 852.304483 363.845029 
L 854.041719 367.652208 
L 855.778954 372.540216 
L 857.516189 367.654523 
L 859.253425 372.539232 
L 860.99066 367.653526 
L 862.727895 372.538253 
L 864.465131 367.652533 
L 866.202366 372.537277 
L 867.939601 367.651545 
L 869.676837 372.536304 
L 871.414072 367.65056 
L 873.151308 372.537124 
L 874.888543 367.651388 
L 876.625778 372.536176 
L 878.363014 369.276628 
L 880.100249 368.192134 
L 881.837484 366.566559 
L 887.049191 366.580464 
L 888.786426 362.784944 
L 899.209838 362.848343 
L 900.947073 364.484809 
L 902.684309 368.831888 
L 907.896015 367.212658 
L 909.63325 370.467903 
L 911.370486 371.008829 
L 914.844956 371.005966 
L 916.582192 369.378653 
L 918.319427 371.546073 
L 920.056663 376.845308 
L 921.793898 372.619193 
L 923.531133 370.988083 
L 925.268369 376.28759 
L 927.005604 379.654611 
L 928.742839 378.556521 
L 930.480075 374.20141 
L 932.21731 375.820372 
L 933.954545 376.353571 
L 933.954545 376.353571 
" style="fill:none;stroke:#1f77b4;stroke-linecap:square;stroke-width:1.5;"/>
   </g>
   <g id="patch_9">
    <path d="M 135 426.15 
L 135 290.25 
" style="fill:none;stroke:#000000;stroke-linecap:square;stroke-linejoin:miter;stroke-width:0.8;"/>
   </g>
   <g id="patch_10">
    <path d="M 972 426.15 
L 972 290.25 
" style="fill:none;stroke:#000000;stroke-linecap:square;stroke-linejoin:miter;stroke-width:0.8;"/>
   </g>
   <g id="patch_11">
    <path d="M 135 426.15 
L 972 426.15 
" style="fill:none;stroke:#000000;stroke-linecap:square;stroke-linejoin:miter;stroke-width:0.8;"/>
   </g>
   <g id="patch_12">
    <path d="M 135 290.25 
L 972 290.25 
" style="fill:none;stroke:#000000;stroke-linecap:square;stroke-linejoin:miter;stroke-width:0.8;"/>
   </g>
   <g id="text_25">
    <!-- Скорость -->
    <defs>
     <path d="M 64.40625 67.28125 
L 64.40625 56.890625 
Q 59.421875 61.53125 53.78125 63.8125 
Q 48.140625 66.109375 41.796875 66.109375 
Q 29.296875 66.109375 22.65625 58.46875 
Q 16.015625 50.828125 16.015625 36.375 
Q 16.015625 21.96875 22.65625 14.328125 
Q 29.296875 6.6875 41.796875 6.6875 
Q 48.140625 6.6875 53.78125 8.984375 
Q 59.421875 11.28125 64.40625 15.921875 
L 64.40625 5.609375 
Q 59.234375 2.09375 53.4375 0.328125 
Q 47.65625 -1.421875 41.21875 -1.421875 
Q 24.65625 -1.421875 15.125 8.703125 
Q 5.609375 18.84375 5.609375 36.375 
Q 5.609375 53.953125 15.125 64.078125 
Q 24.65625 74.21875 41.21875 74.21875 
Q 47.75 74.21875 53.53125 72.484375 
Q 59.328125 70.75 64.40625 67.28125 
z
" id="DejaVuSans-1057"/>
     <path d="M 43.453125 16.21875 
Q 43.453125 20.609375 40.25 22.90625 
Q 37.0625 25.203125 30.90625 25.203125 
L 18.109375 25.203125 
L 18.109375 7.171875 
L 30.90625 7.171875 
Q 37.0625 7.171875 40.25 9.484375 
Q 43.453125 11.8125 43.453125 16.21875 
z
M 9.078125 54.6875 
L 18.109375 54.6875 
L 18.109375 32.375 
L 31.296875 32.375 
Q 41.75 32.375 47.390625 28.390625 
Q 53.03125 24.421875 53.03125 16.21875 
Q 53.03125 8.015625 47.390625 4 
Q 41.75 0 31.296875 0 
L 9.078125 0 
z
" id="DejaVuSans-1100"/>
    </defs>
    <g transform="translate(506.6265 284.25)scale(0.192 -0.192)">
     <use xlink:href="#DejaVuSans-1057"/>
     <use x="69.824219" xlink:href="#DejaVuSans-1082"/>
     <use x="130.224609" xlink:href="#DejaVuSans-1086"/>
     <use x="191.40625" xlink:href="#DejaVuSans-1088"/>
     <use x="254.882812" xlink:href="#DejaVuSans-1086"/>
     <use x="316.064453" xlink:href="#DejaVuSans-1089"/>
     <use x="371.044922" xlink:href="#DejaVuSans-1090"/>
     <use x="429.296875" xlink:href="#DejaVuSans-1100"/>
    </g>
   </g>
  </g>
  <g id="axes_3">
   <g id="patch_13">
    <path d="M 135 630 
L 972 630 
L 972 494.1 
L 135 494.1 
z
" style="fill:#ffffff;"/>
   </g>
   <g id="matplotlib.axis_5">
    <g id="xtick_11">
     <g id="line2d_25">
      <g>
       <use style="stroke:#000000;stroke-width:0.8;" x="173.045455" xlink:href="#m9c44d18cbf" y="630"/>
      </g>
     </g>
     <g id="text_26">
      <!-- 0 -->
      <g transform="translate(167.955455 649.1575)scale(0.16 -0.16)">
       <use xlink:href="#DejaVuSans-48"/>
      </g>
     </g>
    </g>
    <g id="xtick_12">
     <g id="line2d_26">
      <g>
       <use style="stroke:#000000;stroke-width:0.8;" x="346.768991" xlink:href="#m9c44d18cbf" y="630"/>
      </g>
     </g>
     <g id="text_27">
      <!-- 1 -->
      <g transform="translate(341.678991 649.1575)scale(0.16 -0.16)">
       <use xlink:href="#DejaVuSans-49"/>
      </g>
     </g>
    </g>
    <g id="xtick_13">
     <g id="line2d_27">
      <g>
       <use style="stroke:#000000;stroke-width:0.8;" x="520.492528" xlink:href="#m9c44d18cbf" y="630"/>
      </g>
     </g>
     <g id="text_28">
      <!-- 2 -->
      <g transform="translate(515.402528 649.1575)scale(0.16 -0.16)">
       <use xlink:href="#DejaVuSans-50"/>
      </g>
     </g>
    </g>
    <g id="xtick_14">
     <g id="line2d_28">
      <g>
       <use style="stroke:#000000;stroke-width:0.8;" x="694.216065" xlink:href="#m9c44d18cbf" y="630"/>
      </g>
     </g>
     <g id="text_29">
      <!-- 3 -->
      <g transform="translate(689.126065 649.1575)scale(0.16 -0.16)">
       <use xlink:href="#DejaVuSans-51"/>
      </g>
     </g>
    </g>
    <g id="xtick_15">
     <g id="line2d_29">
      <g>
       <use style="stroke:#000000;stroke-width:0.8;" x="867.939601" xlink:href="#m9c44d18cbf" y="630"/>
      </g>
     </g>
     <g id="text_30">
      <!-- 4 -->
      <g transform="translate(862.849601 649.1575)scale(0.16 -0.16)">
       <use xlink:href="#DejaVuSans-52"/>
      </g>
     </g>
    </g>
    <g id="text_31">
     <!-- Время -->
     <g transform="translate(527.1625 668.6425)scale(0.16 -0.16)">
      <use xlink:href="#DejaVuSans-1042"/>
      <use x="68.603516" xlink:href="#DejaVuSans-1088"/>
      <use x="132.080078" xlink:href="#DejaVuSans-1077"/>
      <use x="193.603516" xlink:href="#DejaVuSans-1084"/>
      <use x="269.042969" xlink:href="#DejaVuSans-1103"/>
     </g>
    </g>
   </g>
   <g id="matplotlib.axis_6">
    <g id="ytick_8">
     <g id="line2d_30">
      <g>
       <use style="stroke:#000000;stroke-width:0.8;" x="135" xlink:href="#m704ca20e37" y="623.822727"/>
      </g>
     </g>
     <g id="text_32">
      <!-- −1 -->
      <g transform="translate(104.4125 629.901477)scale(0.16 -0.16)">
       <use xlink:href="#DejaVuSans-8722"/>
       <use x="83.789062" xlink:href="#DejaVuSans-49"/>
      </g>
     </g>
    </g>
    <g id="ytick_9">
     <g id="line2d_31">
      <g>
       <use style="stroke:#000000;stroke-width:0.8;" x="135" xlink:href="#m704ca20e37" y="562.05"/>
      </g>
     </g>
     <g id="text_33">
      <!-- 0 -->
      <g transform="translate(117.82 568.12875)scale(0.16 -0.16)">
       <use xlink:href="#DejaVuSans-48"/>
      </g>
     </g>
    </g>
    <g id="ytick_10">
     <g id="line2d_32">
      <g>
       <use style="stroke:#000000;stroke-width:0.8;" x="135" xlink:href="#m704ca20e37" y="500.277273"/>
      </g>
     </g>
     <g id="text_34">
      <!-- 1 -->
      <g transform="translate(117.82 506.356023)scale(0.16 -0.16)">
       <use xlink:href="#DejaVuSans-49"/>
      </g>
     </g>
    </g>
    <g id="text_35">
     <!-- Скважность ШИМ -->
     <defs>
      <path d="M 40.578125 54.6875 
L 49.515625 54.6875 
L 49.515625 29 
L 73.390625 54.6875 
L 83.84375 54.6875 
L 64.203125 33.640625 
L 86.671875 0 
L 77.046875 0 
L 58.640625 27.640625 
L 49.515625 17.828125 
L 49.515625 0 
L 40.578125 0 
L 40.578125 17.828125 
L 31.453125 27.640625 
L 13.03125 0 
L 3.421875 0 
L 25.875 33.640625 
L 6.25 54.6875 
L 16.703125 54.6875 
L 40.578125 29 
z
" id="DejaVuSans-1078"/>
      <path d="M 58.40625 8.296875 
L 87.25 8.296875 
L 87.25 72.90625 
L 97.125 72.90625 
L 97.125 0 
L 9.8125 0 
L 9.8125 72.90625 
L 19.671875 72.90625 
L 19.671875 8.296875 
L 48.53125 8.296875 
L 48.53125 72.90625 
L 58.40625 72.90625 
z
" id="DejaVuSans-1064"/>
      <path d="M 64.984375 72.90625 
L 64.984375 0 
L 55.421875 0 
L 55.421875 60.984375 
L 23.09375 0 
L 9.8125 0 
L 9.8125 72.90625 
L 19.390625 72.90625 
L 19.390625 11.921875 
L 51.703125 72.90625 
z
" id="DejaVuSans-1048"/>
      <path d="M 9.8125 72.90625 
L 24.515625 72.90625 
L 43.109375 23.296875 
L 61.8125 72.90625 
L 76.515625 72.90625 
L 76.515625 0 
L 66.890625 0 
L 66.890625 64.015625 
L 48.09375 14.015625 
L 38.1875 14.015625 
L 19.390625 64.015625 
L 19.390625 0 
L 9.8125 0 
z
" id="DejaVuSans-1052"/>
     </defs>
     <g transform="translate(97.085 637.1775)rotate(-90)scale(0.16 -0.16)">
      <use xlink:href="#DejaVuSans-1057"/>
      <use x="69.824219" xlink:href="#DejaVuSans-1082"/>
      <use x="130.224609" xlink:href="#DejaVuSans-1074"/>
      <use x="189.160156" xlink:href="#DejaVuSans-1072"/>
      <use x="250.439453" xlink:href="#DejaVuSans-1078"/>
      <use x="340.527344" xlink:href="#DejaVuSans-1085"/>
      <use x="405.908203" xlink:href="#DejaVuSans-1086"/>
      <use x="467.089844" xlink:href="#DejaVuSans-1089"/>
      <use x="522.070312" xlink:href="#DejaVuSans-1090"/>
      <use x="580.322266" xlink:href="#DejaVuSans-1100"/>
      <use x="639.257812" xlink:href="#DejaVuSans-32"/>
      <use x="671.044922" xlink:href="#DejaVuSans-1064"/>
      <use x="777.978516" xlink:href="#DejaVuSans-1048"/>
      <use x="852.783203" xlink:href="#DejaVuSans-1052"/>
     </g>
    </g>
   </g>
   <g id="line2d_33">
    <path clip-path="url(#p44805864e3)" d="M 173.045455 623.822727 
L 183.468867 623.822727 
L 185.206102 574.404545 
L 186.943337 592.936364 
L 190.417808 605.290909 
L 192.155044 506.454545 
L 193.892279 524.986364 
L 195.629514 592.936364 
L 197.36675 611.468182 
L 199.103985 500.277273 
L 200.84122 518.809091 
L 202.578456 506.454545 
L 204.315691 518.809091 
L 206.052927 537.340909 
L 207.790162 500.277273 
L 209.527397 512.631818 
L 211.264633 543.518182 
L 213.001868 524.986364 
L 214.739103 537.340909 
L 216.476339 512.631818 
L 218.213574 524.986364 
L 219.950809 506.454545 
L 221.688045 512.631818 
L 223.42528 568.227273 
L 225.162516 568.227273 
L 226.899751 506.454545 
L 230.374222 592.936364 
L 232.111457 605.290909 
L 233.848692 562.05 
L 235.585928 574.404545 
L 237.323163 611.468182 
L 239.060399 568.227273 
L 240.797634 512.631818 
L 242.534869 568.227273 
L 244.272105 617.645455 
L 246.00934 537.340909 
L 247.746575 568.227273 
L 249.483811 568.227273 
L 251.221046 605.290909 
L 252.958281 543.518182 
L 254.695517 568.227273 
L 256.432752 543.518182 
L 258.169988 531.163636 
L 259.907223 580.581818 
L 261.644458 506.454545 
L 263.381694 506.454545 
L 265.118929 562.05 
L 266.856164 592.936364 
L 268.5934 562.05 
L 270.330635 537.340909 
L 272.06787 605.290909 
L 273.805106 599.113636 
L 275.542341 524.986364 
L 277.279577 599.113636 
L 279.016812 524.986364 
L 280.754047 599.113636 
L 282.491283 500.277273 
L 284.228518 605.290909 
L 285.965753 599.113636 
L 287.702989 605.290909 
L 289.440224 524.986364 
L 291.17746 543.518182 
L 292.914695 605.290909 
L 294.65193 562.05 
L 296.389166 562.05 
L 298.126401 617.645455 
L 299.863636 524.986364 
L 301.600872 524.986364 
L 303.338107 586.759091 
L 305.075342 512.631818 
L 306.812578 580.581818 
L 308.549813 549.695455 
L 310.287049 611.468182 
L 312.024284 562.05 
L 315.498755 562.05 
L 317.23599 506.454545 
L 318.973225 562.05 
L 336.345579 562.05 
L 338.082814 549.695455 
L 339.82005 512.631818 
L 341.557285 562.05 
L 345.031756 562.05 
L 346.768991 500.277273 
L 355.455168 500.277273 
L 358.929639 512.631818 
L 360.666874 524.986364 
L 362.40411 611.468182 
L 364.141345 537.340909 
L 365.87858 531.163636 
L 367.615816 500.277273 
L 369.353051 599.113636 
L 371.090286 605.290909 
L 372.827522 623.822727 
L 378.039228 623.822727 
L 379.776463 599.113636 
L 381.513699 611.468182 
L 383.250934 537.340909 
L 384.988169 562.05 
L 386.725405 549.695455 
L 388.46264 586.759091 
L 390.199875 605.290909 
L 391.937111 549.695455 
L 393.674346 617.645455 
L 397.148817 605.290909 
L 398.886052 568.227273 
L 400.623288 568.227273 
L 402.360523 524.986364 
L 404.097758 506.454545 
L 405.834994 568.227273 
L 407.572229 562.05 
L 409.309465 586.759091 
L 411.0467 512.631818 
L 412.783935 574.404545 
L 414.521171 524.986364 
L 416.258406 623.822727 
L 417.995641 599.113636 
L 419.732877 562.05 
L 421.470112 500.277273 
L 423.207347 562.05 
L 424.944583 543.518182 
L 426.681818 623.822727 
L 428.419054 568.227273 
L 430.156289 568.227273 
L 431.893524 586.759091 
L 433.63076 518.809091 
L 435.367995 599.113636 
L 437.10523 574.404545 
L 438.842466 537.340909 
L 440.579701 518.809091 
L 442.316936 568.227273 
L 444.054172 543.518182 
L 445.791407 531.163636 
L 447.528643 623.822727 
L 449.265878 524.986364 
L 451.003113 586.759091 
L 452.740349 611.468182 
L 454.477584 562.05 
L 456.214819 562.05 
L 457.952055 599.113636 
L 461.426526 512.631818 
L 463.163761 592.936364 
L 464.900996 611.468182 
L 466.638232 500.277273 
L 468.375467 611.468182 
L 470.112702 574.404545 
L 471.849938 518.809091 
L 473.587173 555.872727 
L 475.324408 574.404545 
L 477.061644 580.581818 
L 478.798879 506.454545 
L 480.536115 518.809091 
L 482.27335 568.227273 
L 484.010585 543.518182 
L 485.747821 524.986364 
L 487.485056 617.645455 
L 489.222291 617.645455 
L 490.959527 599.113636 
L 492.696762 592.936364 
L 494.433998 518.809091 
L 496.171233 605.290909 
L 497.908468 562.05 
L 499.645704 537.340909 
L 501.382939 562.05 
L 503.120174 500.277273 
L 515.280822 500.277273 
L 517.018057 524.986364 
L 518.755293 512.631818 
L 520.492528 512.631818 
L 522.229763 611.468182 
L 523.966999 599.113636 
L 527.441469 599.113636 
L 529.178705 605.290909 
L 530.91594 599.113636 
L 532.653176 599.113636 
L 534.390411 562.05 
L 536.127646 611.468182 
L 537.864882 623.822727 
L 539.602117 599.113636 
L 541.339352 617.645455 
L 543.076588 562.05 
L 544.813823 562.05 
L 546.551059 574.404545 
L 548.288294 574.404545 
L 550.025529 599.113636 
L 551.762765 568.227273 
L 553.5 617.645455 
L 555.237235 580.581818 
L 556.974471 568.227273 
L 558.711706 512.631818 
L 560.448941 586.759091 
L 562.186177 623.822727 
L 563.923412 580.581818 
L 565.660648 512.631818 
L 567.397883 617.645455 
L 569.135118 500.277273 
L 570.872354 605.290909 
L 572.609589 506.454545 
L 574.346824 500.277273 
L 576.08406 580.581818 
L 577.821295 611.468182 
L 579.558531 500.277273 
L 581.295766 574.404545 
L 583.033001 611.468182 
L 584.770237 500.277273 
L 586.507472 574.404545 
L 588.244707 611.468182 
L 589.981943 500.277273 
L 591.719178 500.277273 
L 593.456413 599.113636 
L 595.193649 543.518182 
L 596.930884 611.468182 
L 598.66812 623.822727 
L 600.405355 537.340909 
L 602.14259 562.05 
L 603.879826 605.290909 
L 607.354296 605.290909 
L 609.091532 512.631818 
L 610.828767 586.759091 
L 612.566002 506.454545 
L 614.303238 599.113636 
L 616.040473 506.454545 
L 617.777709 524.986364 
L 619.514944 506.454545 
L 621.252179 623.822727 
L 642.099004 623.822727 
L 643.836239 605.290909 
L 645.573474 623.822727 
L 647.31071 549.695455 
L 649.047945 518.809091 
L 650.785181 537.340909 
L 652.522416 524.986364 
L 654.259651 506.454545 
L 655.996887 500.277273 
L 657.734122 506.454545 
L 659.471357 518.809091 
L 661.208593 506.454545 
L 662.945828 506.454545 
L 664.683064 611.468182 
L 666.420299 500.277273 
L 669.89477 500.277273 
L 671.632005 518.809091 
L 673.36924 500.277273 
L 675.106476 537.340909 
L 678.580946 524.986364 
L 680.318182 524.986364 
L 682.055417 506.454545 
L 683.792653 500.277273 
L 685.529888 592.936364 
L 687.267123 500.277273 
L 689.004359 599.113636 
L 690.741594 592.936364 
L 692.478829 611.468182 
L 694.216065 599.113636 
L 695.9533 512.631818 
L 697.690535 500.277273 
L 699.427771 562.05 
L 701.165006 562.05 
L 702.902242 568.227273 
L 704.639477 531.163636 
L 706.376712 592.936364 
L 708.113948 611.468182 
L 709.851183 605.290909 
L 711.588418 568.227273 
L 713.325654 537.340909 
L 715.062889 568.227273 
L 716.800125 543.518182 
L 718.53736 549.695455 
L 720.274595 568.227273 
L 722.011831 623.822727 
L 725.486301 512.631818 
L 727.223537 500.277273 
L 735.909714 500.277273 
L 737.646949 506.454545 
L 739.384184 506.454545 
L 741.12142 512.631818 
L 742.858655 543.518182 
L 744.59589 592.936364 
L 746.333126 568.227273 
L 748.070361 500.277273 
L 749.807597 580.581818 
L 751.544832 623.822727 
L 756.756538 623.822727 
L 758.493773 549.695455 
L 760.231009 623.822727 
L 761.968244 562.05 
L 763.705479 611.468182 
L 765.442715 543.518182 
L 767.17995 562.05 
L 768.917186 592.936364 
L 770.654421 524.986364 
L 772.391656 623.822727 
L 774.128892 524.986364 
L 775.866127 568.227273 
L 777.603362 568.227273 
L 779.340598 586.759091 
L 781.077833 611.468182 
L 782.815068 549.695455 
L 784.552304 568.227273 
L 786.289539 574.404545 
L 788.026775 568.227273 
L 789.76401 574.404545 
L 791.501245 599.113636 
L 793.238481 524.986364 
L 794.975716 562.05 
L 796.712951 574.404545 
L 798.450187 592.936364 
L 800.187422 524.986364 
L 801.924658 592.936364 
L 803.661893 611.468182 
L 805.399128 562.05 
L 808.873599 562.05 
L 810.610834 524.986364 
L 812.34807 500.277273 
L 814.085305 599.113636 
L 815.82254 500.277273 
L 817.559776 592.936364 
L 819.297011 599.113636 
L 821.034247 518.809091 
L 822.771482 543.518182 
L 824.508717 617.645455 
L 826.245953 599.113636 
L 827.983188 555.872727 
L 829.720423 555.872727 
L 831.457659 500.277273 
L 833.194894 524.986364 
L 834.93213 599.113636 
L 836.669365 568.227273 
L 838.4066 611.468182 
L 840.143836 599.113636 
L 841.881071 549.695455 
L 843.618306 580.581818 
L 845.355542 512.631818 
L 847.092777 611.468182 
L 848.830012 562.05 
L 850.567248 574.404545 
L 852.304483 518.809091 
L 854.041719 506.454545 
L 855.778954 617.645455 
L 857.516189 506.454545 
L 859.253425 617.645455 
L 860.99066 506.454545 
L 862.727895 617.645455 
L 864.465131 506.454545 
L 866.202366 617.645455 
L 867.939601 506.454545 
L 869.676837 617.645455 
L 871.414072 506.454545 
L 873.151308 617.645455 
L 874.888543 506.454545 
L 876.625778 599.113636 
L 878.363014 574.404545 
L 880.100249 580.581818 
L 881.837484 562.05 
L 885.311955 562.05 
L 887.049191 605.290909 
L 888.786426 562.05 
L 897.472603 562.05 
L 899.209838 543.518182 
L 900.947073 512.631818 
L 902.684309 568.227273 
L 906.15878 568.227273 
L 907.896015 524.986364 
L 909.63325 555.872727 
L 911.370486 562.05 
L 913.107721 562.05 
L 914.844956 580.581818 
L 916.582192 537.340909 
L 918.319427 500.277273 
L 920.056663 611.468182 
L 921.793898 580.581818 
L 923.531133 500.277273 
L 925.268369 524.986364 
L 927.005604 574.404545 
L 928.742839 611.468182 
L 930.480075 543.518182 
L 932.21731 555.872727 
L 933.954545 611.468182 
L 933.954545 611.468182 
" style="fill:none;stroke:#1f77b4;stroke-linecap:square;stroke-width:1.5;"/>
   </g>
   <g id="patch_14">
    <path d="M 135 630 
L 135 494.1 
" style="fill:none;stroke:#000000;stroke-linecap:square;stroke-linejoin:miter;stroke-width:0.8;"/>
   </g>
   <g id="patch_15">
    <path d="M 972 630 
L 972 494.1 
" style="fill:none;stroke:#000000;stroke-linecap:square;stroke-linejoin:miter;stroke-width:0.8;"/>
   </g>
   <g id="patch_16">
    <path d="M 135 630 
L 972 630 
" style="fill:none;stroke:#000000;stroke-linecap:square;stroke-linejoin:miter;stroke-width:0.8;"/>
   </g>
   <g id="patch_17">
    <path d="M 135 494.1 
L 972 494.1 
" style="fill:none;stroke:#000000;stroke-linecap:square;stroke-linejoin:miter;stroke-width:0.8;"/>
   </g>
   <g id="text_36">
    <!-- Управление -->
    <defs>
     <path d="M 31.984375 8.84375 
Q 30.953125 6.390625 29.390625 4.546875 
Q 25.53125 0 13.28125 0 
L 9.515625 0 
L 9.515625 8.296875 
L 12.59375 8.296875 
Q 18.40625 8.296875 20.65625 9.625 
Q 22.015625 10.453125 22.90625 12.5 
L 25.09375 17.671875 
L 1.703125 72.90625 
L 12.3125 72.90625 
L 30.421875 30.125 
L 48.640625 72.90625 
L 59.234375 72.90625 
z
" id="DejaVuSans-1059"/>
    </defs>
    <g transform="translate(493.2735 488.1)scale(0.192 -0.192)">
     <use xlink:href="#DejaVuSans-1059"/>
     <use x="60.9375" xlink:href="#DejaVuSans-1087"/>
     <use x="126.318359" xlink:href="#DejaVuSans-1088"/>
     <use x="189.794922" xlink:href="#DejaVuSans-1072"/>
     <use x="251.074219" xlink:href="#DejaVuSans-1074"/>
     <use x="310.009766" xlink:href="#DejaVuSans-1083"/>
     <use x="373.925781" xlink:href="#DejaVuSans-1077"/>
     <use x="435.449219" xlink:href="#DejaVuSans-1085"/>
     <use x="500.830078" xlink:href="#DejaVuSans-1080"/>
     <use x="565.820312" xlink:href="#DejaVuSans-1077"/>
    </g>
   </g>
  </g>
 </g>
 <defs>
  <clipPath id="p8f7e832534">
   <rect height="135.9" width="837" x="135" y="86.4"/>
  </clipPath>
  <clipPath id="p43b1a2acde">
   <rect height="135.9" width="837" x="135" y="290.25"/>
  </clipPath>
  <clipPath id="p44805864e3">
   <rect height="135.9" width="837" x="135" y="494.1"/>
  </clipPath>
 </defs>
</svg>
