<?xml version="1.0" encoding="utf-8" standalone="no"?>
<!DOCTYPE svg PUBLIC "-//W3C//DTD SVG 1.1//EN"
  "http://www.w3.org/Graphics/SVG/1.1/DTD/svg11.dtd">
<!-- Created with matplotlib (https://matplotlib.org/) -->
<svg height="288pt" version="1.1" viewBox="0 0 432 288" width="432pt" xmlns="http://www.w3.org/2000/svg" xmlns:xlink="http://www.w3.org/1999/xlink">
 <defs>
  <style type="text/css">
*{stroke-linecap:butt;stroke-linejoin:round;}
  </style>
 </defs>
 <g id="figure_1">
  <g id="patch_1">
   <path d="M 0 288 
L 432 288 
L 432 0 
L 0 0 
z
" style="fill:#ffffff;"/>
  </g>
  <g id="axes_1">
   <g id="patch_2">
    <path d="M 54 252 
L 388.8 252 
L 388.8 34.56 
L 54 34.56 
z
" style="fill:#ffffff;"/>
   </g>
   <g id="matplotlib.axis_1">
    <g id="xtick_1">
     <g id="line2d_1">
      <defs>
       <path d="M 0 0 
L 0 3.5 
" id="ma3152a446b" style="stroke:#000000;stroke-width:0.8;"/>
      </defs>
      <g>
       <use style="stroke:#000000;stroke-width:0.8;" x="69.218182" xlink:href="#ma3152a446b" y="252"/>
      </g>
     </g>
     <g id="text_1">
      <!-- 0 -->
      <defs>
       <path d="M 31.78125 66.40625 
Q 24.171875 66.40625 20.328125 58.90625 
Q 16.5 51.421875 16.5 36.375 
Q 16.5 21.390625 20.328125 13.890625 
Q 24.171875 6.390625 31.78125 6.390625 
Q 39.453125 6.390625 43.28125 13.890625 
Q 47.125 21.390625 47.125 36.375 
Q 47.125 51.421875 43.28125 58.90625 
Q 39.453125 66.40625 31.78125 66.40625 
z
M 31.78125 74.21875 
Q 44.046875 74.21875 50.515625 64.515625 
Q 56.984375 54.828125 56.984375 36.375 
Q 56.984375 17.96875 50.515625 8.265625 
Q 44.046875 -1.421875 31.78125 -1.421875 
Q 19.53125 -1.421875 13.0625 8.265625 
Q 6.59375 17.96875 6.59375 36.375 
Q 6.59375 54.828125 13.0625 64.515625 
Q 19.53125 74.21875 31.78125 74.21875 
z
" id="DejaVuSans-48"/>
      </defs>
      <g transform="translate(66.036932 266.598437)scale(0.1 -0.1)">
       <use xlink:href="#DejaVuSans-48"/>
      </g>
     </g>
    </g>
    <g id="xtick_2">
     <g id="line2d_2">
      <g>
       <use style="stroke:#000000;stroke-width:0.8;" x="130.212899" xlink:href="#ma3152a446b" y="252"/>
      </g>
     </g>
     <g id="text_2">
      <!-- 100 -->
      <defs>
       <path d="M 12.40625 8.296875 
L 28.515625 8.296875 
L 28.515625 63.921875 
L 10.984375 60.40625 
L 10.984375 69.390625 
L 28.421875 72.90625 
L 38.28125 72.90625 
L 38.28125 8.296875 
L 54.390625 8.296875 
L 54.390625 0 
L 12.40625 0 
z
" id="DejaVuSans-49"/>
      </defs>
      <g transform="translate(120.669149 266.598437)scale(0.1 -0.1)">
       <use xlink:href="#DejaVuSans-49"/>
       <use x="63.623047" xlink:href="#DejaVuSans-48"/>
       <use x="127.246094" xlink:href="#DejaVuSans-48"/>
      </g>
     </g>
    </g>
    <g id="xtick_3">
     <g id="line2d_3">
      <g>
       <use style="stroke:#000000;stroke-width:0.8;" x="191.207615" xlink:href="#ma3152a446b" y="252"/>
      </g>
     </g>
     <g id="text_3">
      <!-- 200 -->
      <defs>
       <path d="M 19.1875 8.296875 
L 53.609375 8.296875 
L 53.609375 0 
L 7.328125 0 
L 7.328125 8.296875 
Q 12.9375 14.109375 22.625 23.890625 
Q 32.328125 33.6875 34.8125 36.53125 
Q 39.546875 41.84375 41.421875 45.53125 
Q 43.3125 49.21875 43.3125 52.78125 
Q 43.3125 58.59375 39.234375 62.25 
Q 35.15625 65.921875 28.609375 65.921875 
Q 23.96875 65.921875 18.8125 64.3125 
Q 13.671875 62.703125 7.8125 59.421875 
L 7.8125 69.390625 
Q 13.765625 71.78125 18.9375 73 
Q 24.125 74.21875 28.421875 74.21875 
Q 39.75 74.21875 46.484375 68.546875 
Q 53.21875 62.890625 53.21875 53.421875 
Q 53.21875 48.921875 51.53125 44.890625 
Q 49.859375 40.875 45.40625 35.40625 
Q 44.1875 33.984375 37.640625 27.21875 
Q 31.109375 20.453125 19.1875 8.296875 
z
" id="DejaVuSans-50"/>
      </defs>
      <g transform="translate(181.663865 266.598437)scale(0.1 -0.1)">
       <use xlink:href="#DejaVuSans-50"/>
       <use x="63.623047" xlink:href="#DejaVuSans-48"/>
       <use x="127.246094" xlink:href="#DejaVuSans-48"/>
      </g>
     </g>
    </g>
    <g id="xtick_4">
     <g id="line2d_4">
      <g>
       <use style="stroke:#000000;stroke-width:0.8;" x="252.202332" xlink:href="#ma3152a446b" y="252"/>
      </g>
     </g>
     <g id="text_4">
      <!-- 300 -->
      <defs>
       <path d="M 40.578125 39.3125 
Q 47.65625 37.796875 51.625 33 
Q 55.609375 28.21875 55.609375 21.1875 
Q 55.609375 10.40625 48.1875 4.484375 
Q 40.765625 -1.421875 27.09375 -1.421875 
Q 22.515625 -1.421875 17.65625 -0.515625 
Q 12.796875 0.390625 7.625 2.203125 
L 7.625 11.71875 
Q 11.71875 9.328125 16.59375 8.109375 
Q 21.484375 6.890625 26.8125 6.890625 
Q 36.078125 6.890625 40.9375 10.546875 
Q 45.796875 14.203125 45.796875 21.1875 
Q 45.796875 27.640625 41.28125 31.265625 
Q 36.765625 34.90625 28.71875 34.90625 
L 20.21875 34.90625 
L 20.21875 43.015625 
L 29.109375 43.015625 
Q 36.375 43.015625 40.234375 45.921875 
Q 44.09375 48.828125 44.09375 54.296875 
Q 44.09375 59.90625 40.109375 62.90625 
Q 36.140625 65.921875 28.71875 65.921875 
Q 24.65625 65.921875 20.015625 65.03125 
Q 15.375 64.15625 9.8125 62.3125 
L 9.8125 71.09375 
Q 15.4375 72.65625 20.34375 73.4375 
Q 25.25 74.21875 29.59375 74.21875 
Q 40.828125 74.21875 47.359375 69.109375 
Q 53.90625 64.015625 53.90625 55.328125 
Q 53.90625 49.265625 50.4375 45.09375 
Q 46.96875 40.921875 40.578125 39.3125 
z
" id="DejaVuSans-51"/>
      </defs>
      <g transform="translate(242.658582 266.598437)scale(0.1 -0.1)">
       <use xlink:href="#DejaVuSans-51"/>
       <use x="63.623047" xlink:href="#DejaVuSans-48"/>
       <use x="127.246094" xlink:href="#DejaVuSans-48"/>
      </g>
     </g>
    </g>
    <g id="xtick_5">
     <g id="line2d_5">
      <g>
       <use style="stroke:#000000;stroke-width:0.8;" x="313.197049" xlink:href="#ma3152a446b" y="252"/>
      </g>
     </g>
     <g id="text_5">
      <!-- 400 -->
      <defs>
       <path d="M 37.796875 64.3125 
L 12.890625 25.390625 
L 37.796875 25.390625 
z
M 35.203125 72.90625 
L 47.609375 72.90625 
L 47.609375 25.390625 
L 58.015625 25.390625 
L 58.015625 17.1875 
L 47.609375 17.1875 
L 47.609375 0 
L 37.796875 0 
L 37.796875 17.1875 
L 4.890625 17.1875 
L 4.890625 26.703125 
z
" id="DejaVuSans-52"/>
      </defs>
      <g transform="translate(303.653299 266.598437)scale(0.1 -0.1)">
       <use xlink:href="#DejaVuSans-52"/>
       <use x="63.623047" xlink:href="#DejaVuSans-48"/>
       <use x="127.246094" xlink:href="#DejaVuSans-48"/>
      </g>
     </g>
    </g>
    <g id="xtick_6">
     <g id="line2d_6">
      <g>
       <use style="stroke:#000000;stroke-width:0.8;" x="374.191765" xlink:href="#ma3152a446b" y="252"/>
      </g>
     </g>
     <g id="text_6">
      <!-- 500 -->
      <defs>
       <path d="M 10.796875 72.90625 
L 49.515625 72.90625 
L 49.515625 64.59375 
L 19.828125 64.59375 
L 19.828125 46.734375 
Q 21.96875 47.46875 24.109375 47.828125 
Q 26.265625 48.1875 28.421875 48.1875 
Q 40.625 48.1875 47.75 41.5 
Q 54.890625 34.8125 54.890625 23.390625 
Q 54.890625 11.625 47.5625 5.09375 
Q 40.234375 -1.421875 26.90625 -1.421875 
Q 22.3125 -1.421875 17.546875 -0.640625 
Q 12.796875 0.140625 7.71875 1.703125 
L 7.71875 11.625 
Q 12.109375 9.234375 16.796875 8.0625 
Q 21.484375 6.890625 26.703125 6.890625 
Q 35.15625 6.890625 40.078125 11.328125 
Q 45.015625 15.765625 45.015625 23.390625 
Q 45.015625 31 40.078125 35.4375 
Q 35.15625 39.890625 26.703125 39.890625 
Q 22.75 39.890625 18.8125 39.015625 
Q 14.890625 38.140625 10.796875 36.28125 
z
" id="DejaVuSans-53"/>
      </defs>
      <g transform="translate(364.648015 266.598437)scale(0.1 -0.1)">
       <use xlink:href="#DejaVuSans-53"/>
       <use x="63.623047" xlink:href="#DejaVuSans-48"/>
       <use x="127.246094" xlink:href="#DejaVuSans-48"/>
      </g>
     </g>
    </g>
    <g id="text_7">
     <!-- Эпоха -->
     <defs>
      <path d="M 5.421875 15.921875 
Q 15.71875 6.6875 28.21875 6.6875 
Q 41.109375 6.6875 46.921875 13.625 
Q 52.734375 20.5625 53.8125 32.234375 
L 14.84375 32.234375 
L 14.84375 40.53125 
L 53.8125 40.53125 
Q 52.734375 52.203125 46.921875 59.15625 
Q 41.109375 66.109375 28.21875 66.109375 
Q 15.71875 66.109375 5.421875 56.890625 
L 5.421875 67.28125 
Q 15.578125 74.21875 28.8125 74.21875 
Q 45.171875 74.21875 54.6875 64.078125 
Q 64.203125 53.953125 64.203125 36.421875 
Q 64.203125 18.84375 54.6875 8.703125 
Q 45.171875 -1.421875 28.8125 -1.421875 
Q 15.765625 -1.421875 5.421875 5.609375 
z
" id="DejaVuSans-1069"/>
      <path d="M 56.296875 54.6875 
L 56.296875 0 
L 47.265625 0 
L 47.265625 47.515625 
L 18.109375 47.515625 
L 18.109375 0 
L 9.078125 0 
L 9.078125 54.6875 
z
" id="DejaVuSans-1087"/>
      <path d="M 30.609375 48.390625 
Q 23.390625 48.390625 19.1875 42.75 
Q 14.984375 37.109375 14.984375 27.296875 
Q 14.984375 17.484375 19.15625 11.84375 
Q 23.34375 6.203125 30.609375 6.203125 
Q 37.796875 6.203125 41.984375 11.859375 
Q 46.1875 17.53125 46.1875 27.296875 
Q 46.1875 37.015625 41.984375 42.703125 
Q 37.796875 48.390625 30.609375 48.390625 
z
M 30.609375 56 
Q 42.328125 56 49.015625 48.375 
Q 55.71875 40.765625 55.71875 27.296875 
Q 55.71875 13.875 49.015625 6.21875 
Q 42.328125 -1.421875 30.609375 -1.421875 
Q 18.84375 -1.421875 12.171875 6.21875 
Q 5.515625 13.875 5.515625 27.296875 
Q 5.515625 40.765625 12.171875 48.375 
Q 18.84375 56 30.609375 56 
z
" id="DejaVuSans-1086"/>
      <path d="M 54.890625 54.6875 
L 35.109375 28.078125 
L 55.90625 0 
L 45.3125 0 
L 29.390625 21.484375 
L 13.484375 0 
L 2.875 0 
L 24.125 28.609375 
L 4.6875 54.6875 
L 15.28125 54.6875 
L 29.78125 35.203125 
L 44.28125 54.6875 
z
" id="DejaVuSans-1093"/>
      <path d="M 34.28125 27.484375 
Q 23.390625 27.484375 19.1875 25 
Q 14.984375 22.515625 14.984375 16.5 
Q 14.984375 11.71875 18.140625 8.90625 
Q 21.296875 6.109375 26.703125 6.109375 
Q 34.1875 6.109375 38.703125 11.40625 
Q 43.21875 16.703125 43.21875 25.484375 
L 43.21875 27.484375 
z
M 52.203125 31.203125 
L 52.203125 0 
L 43.21875 0 
L 43.21875 8.296875 
Q 40.140625 3.328125 35.546875 0.953125 
Q 30.953125 -1.421875 24.3125 -1.421875 
Q 15.921875 -1.421875 10.953125 3.296875 
Q 6 8.015625 6 15.921875 
Q 6 25.140625 12.171875 29.828125 
Q 18.359375 34.515625 30.609375 34.515625 
L 43.21875 34.515625 
L 43.21875 35.40625 
Q 43.21875 41.609375 39.140625 45 
Q 35.0625 48.390625 27.6875 48.390625 
Q 23 48.390625 18.546875 47.265625 
Q 14.109375 46.140625 10.015625 43.890625 
L 10.015625 52.203125 
Q 14.9375 54.109375 19.578125 55.046875 
Q 24.21875 56 28.609375 56 
Q 40.484375 56 46.34375 49.84375 
Q 52.203125 43.703125 52.203125 31.203125 
z
" id="DejaVuSans-1072"/>
     </defs>
     <g transform="translate(205.557031 280.276563)scale(0.1 -0.1)">
      <use xlink:href="#DejaVuSans-1069"/>
      <use x="69.824219" xlink:href="#DejaVuSans-1087"/>
      <use x="135.205078" xlink:href="#DejaVuSans-1086"/>
      <use x="196.386719" xlink:href="#DejaVuSans-1093"/>
      <use x="255.566406" xlink:href="#DejaVuSans-1072"/>
     </g>
    </g>
   </g>
   <g id="matplotlib.axis_2">
    <g id="ytick_1">
     <g id="line2d_7">
      <defs>
       <path d="M 0 0 
L -3.5 0 
" id="m049b0d5f92" style="stroke:#000000;stroke-width:0.8;"/>
      </defs>
      <g>
       <use style="stroke:#000000;stroke-width:0.8;" x="54" xlink:href="#m049b0d5f92" y="251.582102"/>
      </g>
     </g>
     <g id="text_8">
      <!-- 0.000 -->
      <defs>
       <path d="M 10.6875 12.40625 
L 21 12.40625 
L 21 0 
L 10.6875 0 
z
" id="DejaVuSans-46"/>
      </defs>
      <g transform="translate(18.371875 255.381321)scale(0.1 -0.1)">
       <use xlink:href="#DejaVuSans-48"/>
       <use x="63.623047" xlink:href="#DejaVuSans-46"/>
       <use x="95.410156" xlink:href="#DejaVuSans-48"/>
       <use x="159.033203" xlink:href="#DejaVuSans-48"/>
       <use x="222.65625" xlink:href="#DejaVuSans-48"/>
      </g>
     </g>
    </g>
    <g id="ytick_2">
     <g id="line2d_8">
      <g>
       <use style="stroke:#000000;stroke-width:0.8;" x="54" xlink:href="#m049b0d5f92" y="215.819658"/>
      </g>
     </g>
     <g id="text_9">
      <!-- 0.005 -->
      <g transform="translate(18.371875 219.618877)scale(0.1 -0.1)">
       <use xlink:href="#DejaVuSans-48"/>
       <use x="63.623047" xlink:href="#DejaVuSans-46"/>
       <use x="95.410156" xlink:href="#DejaVuSans-48"/>
       <use x="159.033203" xlink:href="#DejaVuSans-48"/>
       <use x="222.65625" xlink:href="#DejaVuSans-53"/>
      </g>
     </g>
    </g>
    <g id="ytick_3">
     <g id="line2d_9">
      <g>
       <use style="stroke:#000000;stroke-width:0.8;" x="54" xlink:href="#m049b0d5f92" y="180.057214"/>
      </g>
     </g>
     <g id="text_10">
      <!-- 0.010 -->
      <g transform="translate(18.371875 183.856433)scale(0.1 -0.1)">
       <use xlink:href="#DejaVuSans-48"/>
       <use x="63.623047" xlink:href="#DejaVuSans-46"/>
       <use x="95.410156" xlink:href="#DejaVuSans-48"/>
       <use x="159.033203" xlink:href="#DejaVuSans-49"/>
       <use x="222.65625" xlink:href="#DejaVuSans-48"/>
      </g>
     </g>
    </g>
    <g id="ytick_4">
     <g id="line2d_10">
      <g>
       <use style="stroke:#000000;stroke-width:0.8;" x="54" xlink:href="#m049b0d5f92" y="144.29477"/>
      </g>
     </g>
     <g id="text_11">
      <!-- 0.015 -->
      <g transform="translate(18.371875 148.093989)scale(0.1 -0.1)">
       <use xlink:href="#DejaVuSans-48"/>
       <use x="63.623047" xlink:href="#DejaVuSans-46"/>
       <use x="95.410156" xlink:href="#DejaVuSans-48"/>
       <use x="159.033203" xlink:href="#DejaVuSans-49"/>
       <use x="222.65625" xlink:href="#DejaVuSans-53"/>
      </g>
     </g>
    </g>
    <g id="ytick_5">
     <g id="line2d_11">
      <g>
       <use style="stroke:#000000;stroke-width:0.8;" x="54" xlink:href="#m049b0d5f92" y="108.532326"/>
      </g>
     </g>
     <g id="text_12">
      <!-- 0.020 -->
      <g transform="translate(18.371875 112.331545)scale(0.1 -0.1)">
       <use xlink:href="#DejaVuSans-48"/>
       <use x="63.623047" xlink:href="#DejaVuSans-46"/>
       <use x="95.410156" xlink:href="#DejaVuSans-48"/>
       <use x="159.033203" xlink:href="#DejaVuSans-50"/>
       <use x="222.65625" xlink:href="#DejaVuSans-48"/>
      </g>
     </g>
    </g>
    <g id="ytick_6">
     <g id="line2d_12">
      <g>
       <use style="stroke:#000000;stroke-width:0.8;" x="54" xlink:href="#m049b0d5f92" y="72.769882"/>
      </g>
     </g>
     <g id="text_13">
      <!-- 0.025 -->
      <g transform="translate(18.371875 76.569101)scale(0.1 -0.1)">
       <use xlink:href="#DejaVuSans-48"/>
       <use x="63.623047" xlink:href="#DejaVuSans-46"/>
       <use x="95.410156" xlink:href="#DejaVuSans-48"/>
       <use x="159.033203" xlink:href="#DejaVuSans-50"/>
       <use x="222.65625" xlink:href="#DejaVuSans-53"/>
      </g>
     </g>
    </g>
    <g id="ytick_7">
     <g id="line2d_13">
      <g>
       <use style="stroke:#000000;stroke-width:0.8;" x="54" xlink:href="#m049b0d5f92" y="37.007438"/>
      </g>
     </g>
     <g id="text_14">
      <!-- 0.030 -->
      <g transform="translate(18.371875 40.806657)scale(0.1 -0.1)">
       <use xlink:href="#DejaVuSans-48"/>
       <use x="63.623047" xlink:href="#DejaVuSans-46"/>
       <use x="95.410156" xlink:href="#DejaVuSans-48"/>
       <use x="159.033203" xlink:href="#DejaVuSans-51"/>
       <use x="222.65625" xlink:href="#DejaVuSans-48"/>
      </g>
     </g>
    </g>
    <g id="text_15">
     <!-- MAE -->
     <defs>
      <path d="M 9.8125 72.90625 
L 24.515625 72.90625 
L 43.109375 23.296875 
L 61.8125 72.90625 
L 76.515625 72.90625 
L 76.515625 0 
L 66.890625 0 
L 66.890625 64.015625 
L 48.09375 14.015625 
L 38.1875 14.015625 
L 19.390625 64.015625 
L 19.390625 0 
L 9.8125 0 
z
" id="DejaVuSans-77"/>
      <path d="M 34.1875 63.1875 
L 20.796875 26.90625 
L 47.609375 26.90625 
z
M 28.609375 72.90625 
L 39.796875 72.90625 
L 67.578125 0 
L 57.328125 0 
L 50.6875 18.703125 
L 17.828125 18.703125 
L 11.1875 0 
L 0.78125 0 
z
" id="DejaVuSans-65"/>
      <path d="M 9.8125 72.90625 
L 55.90625 72.90625 
L 55.90625 64.59375 
L 19.671875 64.59375 
L 19.671875 43.015625 
L 54.390625 43.015625 
L 54.390625 34.71875 
L 19.671875 34.71875 
L 19.671875 8.296875 
L 56.78125 8.296875 
L 56.78125 0 
L 9.8125 0 
z
" id="DejaVuSans-69"/>
     </defs>
     <g transform="translate(12.292187 154.17375)rotate(-90)scale(0.1 -0.1)">
      <use xlink:href="#DejaVuSans-77"/>
      <use x="86.279297" xlink:href="#DejaVuSans-65"/>
      <use x="154.6875" xlink:href="#DejaVuSans-69"/>
     </g>
    </g>
   </g>
   <g id="line2d_14">
    <path clip-path="url(#p127965eda7)" d="M 69.218182 44.443636 
L 70.438076 163.680613 
L 71.048023 92.994347 
L 71.65797 51.612606 
L 72.267918 145.032802 
L 72.877865 188.993501 
L 73.487812 145.538219 
L 74.097759 163.042769 
L 74.707706 158.77483 
L 75.317653 150.279261 
L 75.927601 100.261318 
L 76.537548 170.588987 
L 77.147495 155.777051 
L 77.757442 162.76925 
L 78.367389 160.284155 
L 78.977336 177.26355 
L 80.197231 192.528919 
L 80.807178 162.25129 
L 81.417125 213.153927 
L 82.027072 219.767446 
L 82.637019 216.459427 
L 83.246967 171.02997 
L 83.856914 201.589019 
L 84.466861 198.842995 
L 85.076808 213.275029 
L 85.686755 210.595917 
L 86.90665 185.734326 
L 87.516597 139.866264 
L 88.126544 201.739194 
L 88.736491 203.404089 
L 89.346438 208.544631 
L 89.956385 225.651363 
L 90.566333 199.028291 
L 91.17628 214.955845 
L 91.786227 209.210812 
L 92.396174 221.389913 
L 93.006121 187.146177 
L 93.616069 224.76158 
L 94.226016 219.66394 
L 94.835963 212.965256 
L 95.44591 222.373377 
L 96.055857 206.496955 
L 96.665804 215.534956 
L 97.275752 207.501189 
L 97.885699 193.076836 
L 98.495646 212.493728 
L 99.105593 226.858001 
L 99.71554 207.909585 
L 100.325487 216.492104 
L 100.935435 162.457702 
L 101.545382 223.436076 
L 102.155329 227.600897 
L 102.765276 223.31202 
L 103.375223 228.466539 
L 103.98517 217.456017 
L 104.595118 223.702024 
L 105.205065 184.794327 
L 105.815012 221.295063 
L 106.424959 173.506978 
L 107.034906 227.737433 
L 107.644853 128.94206 
L 108.254801 214.127299 
L 108.864748 221.056126 
L 109.474695 207.604116 
L 110.084642 229.278112 
L 110.694589 231.63824 
L 111.304536 201.114752 
L 111.914484 227.49729 
L 112.524431 200.778638 
L 113.134378 215.946319 
L 113.744325 221.505379 
L 114.354272 200.060676 
L 114.964219 223.059401 
L 115.574167 214.683202 
L 116.184114 219.351836 
L 116.794061 217.734232 
L 117.404008 228.917044 
L 118.623902 223.29207 
L 119.23385 172.758391 
L 119.843797 214.212503 
L 120.453744 215.694177 
L 121.063691 228.058873 
L 121.673638 230.17619 
L 122.283585 163.98494 
L 122.893533 235.35025 
L 123.50348 219.807071 
L 124.113427 223.209883 
L 124.723374 234.168443 
L 125.333321 226.16756 
L 126.553216 192.454167 
L 127.163163 221.873558 
L 127.77311 207.17116 
L 128.383057 216.832885 
L 128.993004 220.13745 
L 129.602951 229.231282 
L 130.212899 219.256337 
L 130.822846 222.107239 
L 131.432793 228.799678 
L 132.04274 231.118845 
L 132.652687 223.514966 
L 133.262634 223.808926 
L 133.872582 235.55241 
L 135.092476 184.895439 
L 135.702423 236.978527 
L 136.31237 233.086871 
L 136.922317 212.781571 
L 137.532265 207.85884 
L 138.142212 224.062324 
L 138.752159 234.521891 
L 139.362106 192.810991 
L 139.972053 211.133043 
L 140.582 215.172133 
L 141.191948 227.541152 
L 141.801895 237.619828 
L 142.411842 215.778712 
L 143.021789 225.907756 
L 143.631736 72.445875 
L 144.241683 206.874923 
L 144.851631 237.483505 
L 145.461578 221.973074 
L 146.071525 223.908859 
L 146.681472 230.842704 
L 147.291419 229.71159 
L 147.901366 224.650007 
L 148.511314 221.907237 
L 149.121261 235.287055 
L 149.731208 223.120702 
L 150.341155 237.823396 
L 151.561049 224.549873 
L 152.170997 232.854157 
L 152.780944 225.712014 
L 153.390891 235.955055 
L 154.000838 219.354687 
L 154.610785 232.516439 
L 155.220732 235.828498 
L 155.83068 228.272443 
L 156.440627 199.40939 
L 157.050574 203.598375 
L 158.270468 239.103101 
L 158.880415 209.622938 
L 159.490363 232.601124 
L 160.10031 225.75174 
L 160.710257 228.890266 
L 161.320204 222.032896 
L 161.930151 211.314066 
L 162.540098 230.219274 
L 163.150046 236.284522 
L 163.759993 237.002456 
L 164.979887 230.664861 
L 165.589834 228.382442 
L 166.199781 204.355772 
L 166.809729 230.484727 
L 167.419676 231.328586 
L 168.029623 221.013521 
L 168.63957 237.302988 
L 169.249517 215.08954 
L 169.859464 205.945482 
L 170.469412 215.820661 
L 171.079359 237.307754 
L 171.689306 225.403792 
L 172.299253 232.906167 
L 172.9092 236.363788 
L 173.519147 215.852339 
L 174.739042 235.342718 
L 175.348989 228.675602 
L 175.958936 235.687565 
L 176.568883 223.453206 
L 177.17883 195.413185 
L 177.788778 237.038074 
L 178.398725 224.78065 
L 179.618619 238.334512 
L 180.228566 218.746639 
L 180.838513 239.08251 
L 181.448461 237.89146 
L 182.058408 216.572326 
L 182.668355 235.447999 
L 183.278302 227.740197 
L 183.888249 228.417772 
L 184.498196 228.734649 
L 185.108144 225.708762 
L 186.328038 237.284026 
L 186.937985 233.021727 
L 187.547932 224.140568 
L 188.157879 229.318689 
L 188.767827 237.535305 
L 189.377774 216.014508 
L 189.987721 232.693243 
L 190.597668 237.054397 
L 191.207615 230.111659 
L 191.817562 238.759018 
L 192.42751 227.351352 
L 193.037457 233.156426 
L 193.647404 230.340001 
L 194.257351 234.954817 
L 194.867298 229.392623 
L 195.477245 232.455798 
L 196.087193 197.661475 
L 196.69714 238.002536 
L 197.307087 237.499309 
L 197.917034 237.283951 
L 198.526981 237.820627 
L 199.136928 218.658088 
L 199.746876 234.09001 
L 200.356823 234.556714 
L 200.96677 239.194757 
L 201.576717 223.939232 
L 202.186664 233.820369 
L 202.796611 233.715074 
L 203.406559 201.958856 
L 204.016506 234.508876 
L 204.626453 237.777126 
L 205.2364 234.062209 
L 205.846347 227.54472 
L 206.456294 234.359545 
L 207.066242 234.388225 
L 207.676189 207.767224 
L 208.286136 206.180841 
L 208.896083 235.805077 
L 209.50603 222.281518 
L 210.115977 237.070562 
L 210.725925 226.580636 
L 211.335872 232.383505 
L 211.945819 235.269669 
L 212.555766 202.997129 
L 213.165713 219.537209 
L 213.77566 239.426354 
L 214.385608 229.314778 
L 214.995555 231.408449 
L 215.605502 225.840505 
L 216.215449 234.59035 
L 216.825396 235.235025 
L 217.435343 232.495992 
L 218.045291 233.234486 
L 218.655238 224.862418 
L 219.265185 234.579054 
L 219.875132 216.830787 
L 220.485079 231.11893 
L 221.095026 230.959373 
L 221.704974 232.929461 
L 222.314921 237.459513 
L 222.924868 235.438865 
L 223.534815 233.960926 
L 224.144762 217.117721 
L 224.754709 228.345905 
L 225.364657 236.103692 
L 225.974604 215.472177 
L 226.584551 232.377318 
L 227.194498 239.536963 
L 227.804445 238.49633 
L 228.414392 235.867155 
L 229.02434 229.249499 
L 229.634287 225.359356 
L 230.244234 237.356488 
L 230.854181 237.39067 
L 231.464128 222.539242 
L 232.074075 233.062142 
L 232.684023 239.309022 
L 233.29397 205.730586 
L 233.903917 236.92362 
L 234.513864 210.82683 
L 235.123811 203.788421 
L 235.733758 237.141578 
L 236.343706 226.221688 
L 236.953653 234.357572 
L 237.5636 236.496317 
L 238.173547 234.540048 
L 238.783494 237.919625 
L 239.393441 224.283895 
L 240.003389 235.174544 
L 240.613336 238.048184 
L 241.223283 238.57977 
L 241.83323 235.306241 
L 242.443177 224.721694 
L 243.053124 228.279472 
L 243.663072 238.871942 
L 244.273019 228.696361 
L 244.882966 234.975965 
L 245.492913 228.493264 
L 246.10286 236.995445 
L 246.712807 235.774442 
L 247.322755 237.361922 
L 247.932702 240.478136 
L 248.542649 241.31748 
L 249.152596 237.926721 
L 249.762543 238.710107 
L 250.37249 240.377149 
L 250.982438 235.378241 
L 251.592385 241.123322 
L 252.202332 237.628107 
L 252.812279 215.269427 
L 253.422226 239.961546 
L 254.032173 192.248213 
L 254.642121 225.839582 
L 255.252068 234.964191 
L 255.862015 238.244257 
L 256.471962 235.845429 
L 257.081909 237.137936 
L 257.691856 213.830792 
L 258.301804 235.308256 
L 258.911751 231.291582 
L 260.131645 240.193568 
L 260.741592 239.640739 
L 261.351539 234.593381 
L 261.961487 222.248411 
L 262.571434 222.10099 
L 263.181381 226.278835 
L 263.791328 213.442703 
L 264.401275 240.253042 
L 265.011222 230.222649 
L 265.62117 240.060442 
L 266.231117 200.784726 
L 266.841064 235.594114 
L 267.451011 230.602583 
L 268.060958 233.342632 
L 268.670905 232.005318 
L 269.280853 238.072292 
L 269.8908 230.523551 
L 271.720641 241.654377 
L 272.330588 237.547441 
L 272.940536 235.646212 
L 273.550483 228.694963 
L 274.16043 240.339305 
L 274.770377 231.797576 
L 275.380324 225.313785 
L 275.990271 237.210129 
L 276.600219 221.914322 
L 277.210166 183.514543 
L 277.820113 235.721338 
L 278.43006 235.070017 
L 279.040007 239.944165 
L 279.649954 241.106226 
L 280.259902 224.083251 
L 280.869849 239.006974 
L 281.479796 237.363275 
L 282.089743 227.20339 
L 282.69969 235.376762 
L 283.309637 238.536883 
L 283.919585 236.682502 
L 284.529532 231.68707 
L 285.139479 237.164486 
L 285.749426 239.954694 
L 286.359373 230.906226 
L 286.96932 237.498706 
L 287.579268 237.814385 
L 288.189215 232.418836 
L 288.799162 201.290364 
L 289.409109 222.318824 
L 290.019056 236.880641 
L 290.629003 239.949901 
L 291.238951 231.998928 
L 291.848898 240.498696 
L 292.458845 238.673862 
L 293.068792 239.04954 
L 293.678739 230.702399 
L 294.288686 232.007208 
L 294.898634 234.285304 
L 295.508581 227.356035 
L 296.118528 239.030571 
L 296.728475 235.602311 
L 297.338422 238.680934 
L 297.948369 231.316411 
L 298.558317 237.848283 
L 299.168264 240.68582 
L 299.778211 224.430843 
L 300.388158 234.937909 
L 300.998105 225.12412 
L 301.608052 222.476746 
L 302.218 234.693417 
L 302.827947 236.292785 
L 303.437894 226.763415 
L 304.047841 238.015024 
L 304.657788 233.394748 
L 305.267735 226.998321 
L 305.877683 238.949026 
L 306.48763 233.403514 
L 307.097577 238.93511 
L 307.707524 231.627682 
L 308.317471 195.142657 
L 308.927418 229.423684 
L 309.537366 239.293485 
L 310.147313 235.47858 
L 310.75726 240.264871 
L 311.367207 200.037631 
L 311.977154 237.457363 
L 312.587101 240.609747 
L 313.197049 231.384372 
L 313.806996 235.271652 
L 314.416943 229.999328 
L 315.02689 234.472979 
L 315.636837 240.576163 
L 316.246784 241.172519 
L 316.856732 238.68796 
L 317.466679 230.390785 
L 318.076626 235.032198 
L 318.686573 241.173189 
L 319.29652 238.445589 
L 319.906467 239.446249 
L 320.516415 238.838356 
L 321.126362 221.57501 
L 321.736309 234.79491 
L 322.346256 233.020919 
L 322.956203 238.999196 
L 323.56615 224.594106 
L 324.176098 238.36364 
L 324.786045 238.813346 
L 325.395992 238.33404 
L 326.005939 240.434665 
L 326.615886 239.719486 
L 327.225833 231.796031 
L 327.835781 240.423488 
L 328.445728 235.224888 
L 329.055675 233.734351 
L 329.665622 238.276032 
L 330.275569 235.799411 
L 330.885516 230.173168 
L 331.495464 216.124552 
L 332.105411 223.872248 
L 332.715358 239.147838 
L 333.325305 233.754385 
L 333.935252 239.163371 
L 334.545199 227.659276 
L 335.155147 231.875186 
L 335.765094 239.73059 
L 336.375041 231.622003 
L 336.984988 238.941127 
L 337.594935 233.523391 
L 338.204882 237.114339 
L 338.81483 219.374464 
L 339.424777 238.902649 
L 340.034724 229.221173 
L 340.644671 228.78284 
L 341.254618 238.90737 
L 341.864565 234.153992 
L 342.474513 237.333621 
L 343.08446 239.356854 
L 343.694407 240.139755 
L 344.304354 228.792649 
L 344.914301 208.732889 
L 345.524248 238.581074 
L 346.134196 209.724586 
L 346.744143 232.894283 
L 347.35409 236.652866 
L 347.964037 242.115514 
L 348.573984 237.299649 
L 349.183931 233.63296 
L 349.793879 235.67571 
L 350.403826 230.477639 
L 351.013773 236.103505 
L 351.62372 238.638243 
L 352.233667 237.835432 
L 353.453562 230.212711 
L 354.063509 172.625964 
L 354.673456 241.132996 
L 355.283403 238.970464 
L 355.89335 241.160176 
L 356.503298 238.583435 
L 357.113245 230.981438 
L 357.723192 237.297016 
L 358.333139 229.736463 
L 358.943086 219.776865 
L 359.553033 237.529204 
L 360.162981 231.389708 
L 360.772928 237.799355 
L 361.992822 235.765894 
L 362.602769 233.779607 
L 363.212716 224.205783 
L 363.822664 242.116364 
L 364.432611 223.488897 
L 365.042558 218.798547 
L 365.652505 237.693343 
L 366.262452 241.530836 
L 367.482347 235.165858 
L 368.092294 233.792976 
L 368.702241 231.445731 
L 369.312188 239.21626 
L 369.922135 238.704409 
L 370.532082 223.734886 
L 371.14203 217.700666 
L 371.751977 219.233572 
L 372.361924 238.093843 
L 372.971871 234.814922 
L 373.581818 240.301704 
L 373.581818 240.301704 
" style="fill:none;stroke:#1f77b4;stroke-linecap:square;stroke-width:1.5;"/>
   </g>
   <g id="patch_3">
    <path d="M 54 252 
L 54 34.56 
" style="fill:none;stroke:#000000;stroke-linecap:square;stroke-linejoin:miter;stroke-width:0.8;"/>
   </g>
   <g id="patch_4">
    <path d="M 388.8 252 
L 388.8 34.56 
" style="fill:none;stroke:#000000;stroke-linecap:square;stroke-linejoin:miter;stroke-width:0.8;"/>
   </g>
   <g id="patch_5">
    <path d="M 54 252 
L 388.8 252 
" style="fill:none;stroke:#000000;stroke-linecap:square;stroke-linejoin:miter;stroke-width:0.8;"/>
   </g>
   <g id="patch_6">
    <path d="M 54 34.56 
L 388.8 34.56 
" style="fill:none;stroke:#000000;stroke-linecap:square;stroke-linejoin:miter;stroke-width:0.8;"/>
   </g>
  </g>
 </g>
 <defs>
  <clipPath id="p127965eda7">
   <rect height="217.44" width="334.8" x="54" y="34.56"/>
  </clipPath>
 </defs>
</svg>
