<?xml version="1.0" encoding="utf-8" standalone="no"?>
<!DOCTYPE svg PUBLIC "-//W3C//DTD SVG 1.1//EN"
  "http://www.w3.org/Graphics/SVG/1.1/DTD/svg11.dtd">
<!-- Created with matplotlib (https://matplotlib.org/) -->
<svg height="288pt" version="1.1" viewBox="0 0 432 288" width="432pt" xmlns="http://www.w3.org/2000/svg" xmlns:xlink="http://www.w3.org/1999/xlink">
 <defs>
  <style type="text/css">
*{stroke-linecap:butt;stroke-linejoin:round;}
  </style>
 </defs>
 <g id="figure_1">
  <g id="patch_1">
   <path d="M 0 288 
L 432 288 
L 432 0 
L 0 0 
z
" style="fill:#ffffff;"/>
  </g>
  <g id="axes_1">
   <g id="patch_2">
    <path d="M 54 252 
L 388.8 252 
L 388.8 34.56 
L 54 34.56 
z
" style="fill:#ffffff;"/>
   </g>
   <g id="PathCollection_1">
    <defs>
     <path d="M 0 3 
C 0.795609 3 1.55874 2.683901 2.12132 2.12132 
C 2.683901 1.55874 3 0.795609 3 0 
C 3 -0.795609 2.683901 -1.55874 2.12132 -2.12132 
C 1.55874 -2.683901 0.795609 -3 0 -3 
C -0.795609 -3 -1.55874 -2.683901 -2.12132 -2.12132 
C -2.683901 -1.55874 -3 -0.795609 -3 0 
C -3 0.795609 -2.683901 1.55874 -2.12132 2.12132 
C -1.55874 2.683901 -0.795609 3 0 3 
z
" id="mae5f7fa249" style="stroke:#1f77b4;"/>
    </defs>
    <g clip-path="url(#p6725cd75aa)">
     <use style="fill:#1f77b4;stroke:#1f77b4;" x="72.162771" xlink:href="#mae5f7fa249" y="171.258057"/>
     <use style="fill:#1f77b4;stroke:#1f77b4;" x="75.177664" xlink:href="#mae5f7fa249" y="164.435588"/>
     <use style="fill:#1f77b4;stroke:#1f77b4;" x="78.192558" xlink:href="#mae5f7fa249" y="156.823895"/>
     <use style="fill:#1f77b4;stroke:#1f77b4;" x="81.207451" xlink:href="#mae5f7fa249" y="148.424612"/>
     <use style="fill:#1f77b4;stroke:#1f77b4;" x="84.222345" xlink:href="#mae5f7fa249" y="139.255964"/>
     <use style="fill:#1f77b4;stroke:#1f77b4;" x="87.237238" xlink:href="#mae5f7fa249" y="129.361757"/>
     <use style="fill:#1f77b4;stroke:#1f77b4;" x="90.252132" xlink:href="#mae5f7fa249" y="118.822915"/>
     <use style="fill:#1f77b4;stroke:#1f77b4;" x="93.267025" xlink:href="#mae5f7fa249" y="107.772093"/>
     <use style="fill:#1f77b4;stroke:#1f77b4;" x="96.281919" xlink:href="#mae5f7fa249" y="96.41158"/>
     <use style="fill:#1f77b4;stroke:#1f77b4;" x="99.296812" xlink:href="#mae5f7fa249" y="85.034008"/>
     <use style="fill:#1f77b4;stroke:#1f77b4;" x="102.311706" xlink:href="#mae5f7fa249" y="74.043821"/>
     <use style="fill:#1f77b4;stroke:#1f77b4;" x="105.326599" xlink:href="#mae5f7fa249" y="63.974726"/>
     <use style="fill:#1f77b4;stroke:#1f77b4;" x="108.341493" xlink:href="#mae5f7fa249" y="55.493924"/>
     <use style="fill:#1f77b4;stroke:#1f77b4;" x="111.356386" xlink:href="#mae5f7fa249" y="49.378289"/>
     <use style="fill:#1f77b4;stroke:#1f77b4;" x="114.37128" xlink:href="#mae5f7fa249" y="46.443929"/>
     <use style="fill:#1f77b4;stroke:#1f77b4;" x="117.386173" xlink:href="#mae5f7fa249" y="47.414474"/>
     <use style="fill:#1f77b4;stroke:#1f77b4;" x="120.401067" xlink:href="#mae5f7fa249" y="52.734884"/>
     <use style="fill:#1f77b4;stroke:#1f77b4;" x="123.41596" xlink:href="#mae5f7fa249" y="62.378666"/>
     <use style="fill:#1f77b4;stroke:#1f77b4;" x="126.430854" xlink:href="#mae5f7fa249" y="75.737867"/>
     <use style="fill:#1f77b4;stroke:#1f77b4;" x="129.445747" xlink:href="#mae5f7fa249" y="91.682923"/>
     <use style="fill:#1f77b4;stroke:#1f77b4;" x="132.460641" xlink:href="#mae5f7fa249" y="108.803235"/>
     <use style="fill:#1f77b4;stroke:#1f77b4;" x="135.475535" xlink:href="#mae5f7fa249" y="125.730785"/>
     <use style="fill:#1f77b4;stroke:#1f77b4;" x="138.490428" xlink:href="#mae5f7fa249" y="141.401859"/>
     <use style="fill:#1f77b4;stroke:#1f77b4;" x="141.505322" xlink:href="#mae5f7fa249" y="155.167256"/>
     <use style="fill:#1f77b4;stroke:#1f77b4;" x="144.520215" xlink:href="#mae5f7fa249" y="166.759578"/>
     <use style="fill:#1f77b4;stroke:#1f77b4;" x="147.535109" xlink:href="#mae5f7fa249" y="176.18494"/>
     <use style="fill:#1f77b4;stroke:#1f77b4;" x="150.550002" xlink:href="#mae5f7fa249" y="183.60526"/>
     <use style="fill:#1f77b4;stroke:#1f77b4;" x="153.564896" xlink:href="#mae5f7fa249" y="189.246718"/>
     <use style="fill:#1f77b4;stroke:#1f77b4;" x="156.579789" xlink:href="#mae5f7fa249" y="193.342191"/>
     <use style="fill:#1f77b4;stroke:#1f77b4;" x="159.594683" xlink:href="#mae5f7fa249" y="196.101336"/>
     <use style="fill:#1f77b4;stroke:#1f77b4;" x="162.609576" xlink:href="#mae5f7fa249" y="197.698724"/>
     <use style="fill:#1f77b4;stroke:#1f77b4;" x="165.62447" xlink:href="#mae5f7fa249" y="198.272006"/>
     <use style="fill:#1f77b4;stroke:#1f77b4;" x="168.639363" xlink:href="#mae5f7fa249" y="197.924849"/>
     <use style="fill:#1f77b4;stroke:#1f77b4;" x="171.654257" xlink:href="#mae5f7fa249" y="196.731635"/>
     <use style="fill:#1f77b4;stroke:#1f77b4;" x="174.66915" xlink:href="#mae5f7fa249" y="194.742429"/>
     <use style="fill:#1f77b4;stroke:#1f77b4;" x="177.684044" xlink:href="#mae5f7fa249" y="191.987601"/>
     <use style="fill:#1f77b4;stroke:#1f77b4;" x="180.698937" xlink:href="#mae5f7fa249" y="188.48192"/>
     <use style="fill:#1f77b4;stroke:#1f77b4;" x="183.713831" xlink:href="#mae5f7fa249" y="184.228214"/>
     <use style="fill:#1f77b4;stroke:#1f77b4;" x="186.728724" xlink:href="#mae5f7fa249" y="179.220755"/>
     <use style="fill:#1f77b4;stroke:#1f77b4;" x="189.743618" xlink:href="#mae5f7fa249" y="173.448613"/>
     <use style="fill:#1f77b4;stroke:#1f77b4;" x="192.758512" xlink:href="#mae5f7fa249" y="166.899251"/>
     <use style="fill:#1f77b4;stroke:#1f77b4;" x="195.773405" xlink:href="#mae5f7fa249" y="159.56266"/>
     <use style="fill:#1f77b4;stroke:#1f77b4;" x="198.788299" xlink:href="#mae5f7fa249" y="151.436418"/>
     <use style="fill:#1f77b4;stroke:#1f77b4;" x="201.803192" xlink:href="#mae5f7fa249" y="142.532074"/>
     <use style="fill:#1f77b4;stroke:#1f77b4;" x="204.818086" xlink:href="#mae5f7fa249" y="132.883363"/>
     <use style="fill:#1f77b4;stroke:#1f77b4;" x="207.832979" xlink:href="#mae5f7fa249" y="122.556797"/>
     <use style="fill:#1f77b4;stroke:#1f77b4;" x="210.847873" xlink:href="#mae5f7fa249" y="111.665164"/>
     <use style="fill:#1f77b4;stroke:#1f77b4;" x="213.862766" xlink:href="#mae5f7fa249" y="100.384293"/>
     <use style="fill:#1f77b4;stroke:#1f77b4;" x="216.87766" xlink:href="#mae5f7fa249" y="88.972907"/>
     <use style="fill:#1f77b4;stroke:#1f77b4;" x="219.892553" xlink:href="#mae5f7fa249" y="77.79421"/>
     <use style="fill:#1f77b4;stroke:#1f77b4;" x="222.907447" xlink:href="#mae5f7fa249" y="67.335518"/>
     <use style="fill:#1f77b4;stroke:#1f77b4;" x="225.92234" xlink:href="#mae5f7fa249" y="58.218468"/>
     <use style="fill:#1f77b4;stroke:#1f77b4;" x="228.937234" xlink:href="#mae5f7fa249" y="51.186981"/>
     <use style="fill:#1f77b4;stroke:#1f77b4;" x="231.952127" xlink:href="#mae5f7fa249" y="47.055168"/>
     <use style="fill:#1f77b4;stroke:#1f77b4;" x="234.967021" xlink:href="#mae5f7fa249" y="46.597717"/>
     <use style="fill:#1f77b4;stroke:#1f77b4;" x="237.981914" xlink:href="#mae5f7fa249" y="50.379663"/>
     <use style="fill:#1f77b4;stroke:#1f77b4;" x="240.996808" xlink:href="#mae5f7fa249" y="58.557446"/>
     <use style="fill:#1f77b4;stroke:#1f77b4;" x="244.011701" xlink:href="#mae5f7fa249" y="70.728641"/>
     <use style="fill:#1f77b4;stroke:#1f77b4;" x="247.026595" xlink:href="#mae5f7fa249" y="85.926098"/>
     <use style="fill:#1f77b4;stroke:#1f77b4;" x="250.041488" xlink:href="#mae5f7fa249" y="102.801492"/>
     <use style="fill:#1f77b4;stroke:#1f77b4;" x="253.056382" xlink:href="#mae5f7fa249" y="119.93631"/>
     <use style="fill:#1f77b4;stroke:#1f77b4;" x="256.071276" xlink:href="#mae5f7fa249" y="136.139946"/>
     <use style="fill:#1f77b4;stroke:#1f77b4;" x="259.086169" xlink:href="#mae5f7fa249" y="150.616489"/>
     <use style="fill:#1f77b4;stroke:#1f77b4;" x="262.101063" xlink:href="#mae5f7fa249" y="162.975722"/>
     <use style="fill:#1f77b4;stroke:#1f77b4;" x="265.115956" xlink:href="#mae5f7fa249" y="173.142535"/>
     <use style="fill:#1f77b4;stroke:#1f77b4;" x="268.13085" xlink:href="#mae5f7fa249" y="181.23673"/>
     <use style="fill:#1f77b4;stroke:#1f77b4;" x="271.145743" xlink:href="#mae5f7fa249" y="187.470332"/>
     <use style="fill:#1f77b4;stroke:#1f77b4;" x="274.160637" xlink:href="#mae5f7fa249" y="192.078488"/>
     <use style="fill:#1f77b4;stroke:#1f77b4;" x="277.17553" xlink:href="#mae5f7fa249" y="195.281004"/>
     <use style="fill:#1f77b4;stroke:#1f77b4;" x="280.190424" xlink:href="#mae5f7fa249" y="197.265246"/>
     <use style="fill:#1f77b4;stroke:#1f77b4;" x="283.205317" xlink:href="#mae5f7fa249" y="198.181539"/>
     <use style="fill:#1f77b4;stroke:#1f77b4;" x="286.220211" xlink:href="#mae5f7fa249" y="198.144893"/>
     <use style="fill:#1f77b4;stroke:#1f77b4;" x="289.235104" xlink:href="#mae5f7fa249" y="197.239309"/>
     <use style="fill:#1f77b4;stroke:#1f77b4;" x="292.249998" xlink:href="#mae5f7fa249" y="195.52277"/>
     <use style="fill:#1f77b4;stroke:#1f77b4;" x="295.264891" xlink:href="#mae5f7fa249" y="193.032007"/>
     <use style="fill:#1f77b4;stroke:#1f77b4;" x="298.279785" xlink:href="#mae5f7fa249" y="189.786784"/>
     <use style="fill:#1f77b4;stroke:#1f77b4;" x="301.294678" xlink:href="#mae5f7fa249" y="185.793691"/>
     <use style="fill:#1f77b4;stroke:#1f77b4;" x="304.309572" xlink:href="#mae5f7fa249" y="181.049601"/>
     <use style="fill:#1f77b4;stroke:#1f77b4;" x="307.324465" xlink:href="#mae5f7fa249" y="175.545007"/>
     <use style="fill:#1f77b4;stroke:#1f77b4;" x="310.339359" xlink:href="#mae5f7fa249" y="169.267494"/>
     <use style="fill:#1f77b4;stroke:#1f77b4;" x="313.354253" xlink:href="#mae5f7fa249" y="162.205656"/>
     <use style="fill:#1f77b4;stroke:#1f77b4;" x="316.369146" xlink:href="#mae5f7fa249" y="154.353785"/>
     <use style="fill:#1f77b4;stroke:#1f77b4;" x="319.38404" xlink:href="#mae5f7fa249" y="145.717738"/>
     <use style="fill:#1f77b4;stroke:#1f77b4;" x="322.398933" xlink:href="#mae5f7fa249" y="136.322461"/>
     <use style="fill:#1f77b4;stroke:#1f77b4;" x="325.413827" xlink:href="#mae5f7fa249" y="126.221686"/>
     <use style="fill:#1f77b4;stroke:#1f77b4;" x="328.42872" xlink:href="#mae5f7fa249" y="115.510363"/>
     <use style="fill:#1f77b4;stroke:#1f77b4;" x="331.443614" xlink:href="#mae5f7fa249" y="104.340273"/>
     <use style="fill:#1f77b4;stroke:#1f77b4;" x="334.458507" xlink:href="#mae5f7fa249" y="92.938883"/>
     <use style="fill:#1f77b4;stroke:#1f77b4;" x="337.473401" xlink:href="#mae5f7fa249" y="81.630599"/>
     <use style="fill:#1f77b4;stroke:#1f77b4;" x="340.488294" xlink:href="#mae5f7fa249" y="70.857682"/>
     <use style="fill:#1f77b4;stroke:#1f77b4;" x="343.503188" xlink:href="#mae5f7fa249" y="61.194926"/>
     <use style="fill:#1f77b4;stroke:#1f77b4;" x="346.518081" xlink:href="#mae5f7fa249" y="53.347149"/>
     <use style="fill:#1f77b4;stroke:#1f77b4;" x="349.532975" xlink:href="#mae5f7fa249" y="48.113255"/>
     <use style="fill:#1f77b4;stroke:#1f77b4;" x="352.547868" xlink:href="#mae5f7fa249" y="46.298096"/>
     <use style="fill:#1f77b4;stroke:#1f77b4;" x="355.562762" xlink:href="#mae5f7fa249" y="48.561977"/>
     <use style="fill:#1f77b4;stroke:#1f77b4;" x="358.577655" xlink:href="#mae5f7fa249" y="55.225149"/>
     <use style="fill:#1f77b4;stroke:#1f77b4;" x="361.592549" xlink:href="#mae5f7fa249" y="66.089513"/>
     <use style="fill:#1f77b4;stroke:#1f77b4;" x="364.607442" xlink:href="#mae5f7fa249" y="80.373123"/>
     <use style="fill:#1f77b4;stroke:#1f77b4;" x="367.622336" xlink:href="#mae5f7fa249" y="96.828986"/>
     <use style="fill:#1f77b4;stroke:#1f77b4;" x="370.637229" xlink:href="#mae5f7fa249" y="114.025347"/>
    </g>
   </g>
   <g id="PathCollection_2">
    <defs>
     <path d="M 0 3 
C 0.795609 3 1.55874 2.683901 2.12132 2.12132 
C 2.683901 1.55874 3 0.795609 3 0 
C 3 -0.795609 2.683901 -1.55874 2.12132 -2.12132 
C 1.55874 -2.683901 0.795609 -3 0 -3 
C -0.795609 -3 -1.55874 -2.683901 -2.12132 -2.12132 
C -2.683901 -1.55874 -3 -0.795609 -3 0 
C -3 0.795609 -2.683901 1.55874 -2.12132 2.12132 
C -1.55874 2.683901 -0.795609 3 0 3 
z
" id="m32523ea3cb" style="stroke:#ff7f0e;"/>
    </defs>
    <g clip-path="url(#p6725cd75aa)">
     <use style="fill:#ff7f0e;stroke:#ff7f0e;" x="72.162771" xlink:href="#m32523ea3cb" y="235.775452"/>
     <use style="fill:#ff7f0e;stroke:#ff7f0e;" x="75.177664" xlink:href="#m32523ea3cb" y="237.396509"/>
     <use style="fill:#ff7f0e;stroke:#ff7f0e;" x="78.192558" xlink:href="#m32523ea3cb" y="238.595789"/>
     <use style="fill:#ff7f0e;stroke:#ff7f0e;" x="81.207451" xlink:href="#m32523ea3cb" y="239.376981"/>
     <use style="fill:#ff7f0e;stroke:#ff7f0e;" x="84.222345" xlink:href="#m32523ea3cb" y="239.73262"/>
     <use style="fill:#ff7f0e;stroke:#ff7f0e;" x="87.237238" xlink:href="#m32523ea3cb" y="239.641916"/>
     <use style="fill:#ff7f0e;stroke:#ff7f0e;" x="90.252132" xlink:href="#m32523ea3cb" y="239.068191"/>
     <use style="fill:#ff7f0e;stroke:#ff7f0e;" x="93.267025" xlink:href="#m32523ea3cb" y="237.955879"/>
     <use style="fill:#ff7f0e;stroke:#ff7f0e;" x="96.281919" xlink:href="#m32523ea3cb" y="236.227343"/>
     <use style="fill:#ff7f0e;stroke:#ff7f0e;" x="99.296812" xlink:href="#m32523ea3cb" y="233.78016"/>
     <use style="fill:#ff7f0e;stroke:#ff7f0e;" x="102.311706" xlink:href="#m32523ea3cb" y="230.486364"/>
     <use style="fill:#ff7f0e;stroke:#ff7f0e;" x="105.326599" xlink:href="#m32523ea3cb" y="226.196467"/>
     <use style="fill:#ff7f0e;stroke:#ff7f0e;" x="108.341493" xlink:href="#m32523ea3cb" y="220.752925"/>
     <use style="fill:#ff7f0e;stroke:#ff7f0e;" x="111.356386" xlink:href="#m32523ea3cb" y="214.019569"/>
     <use style="fill:#ff7f0e;stroke:#ff7f0e;" x="114.37128" xlink:href="#m32523ea3cb" y="205.933307"/>
     <use style="fill:#ff7f0e;stroke:#ff7f0e;" x="117.386173" xlink:href="#m32523ea3cb" y="196.578771"/>
     <use style="fill:#ff7f0e;stroke:#ff7f0e;" x="120.401067" xlink:href="#m32523ea3cb" y="186.27123"/>
     <use style="fill:#ff7f0e;stroke:#ff7f0e;" x="123.41596" xlink:href="#m32523ea3cb" y="175.610092"/>
     <use style="fill:#ff7f0e;stroke:#ff7f0e;" x="126.430854" xlink:href="#m32523ea3cb" y="165.450765"/>
     <use style="fill:#ff7f0e;stroke:#ff7f0e;" x="129.445747" xlink:href="#m32523ea3cb" y="156.763118"/>
     <use style="fill:#ff7f0e;stroke:#ff7f0e;" x="132.460641" xlink:href="#m32523ea3cb" y="150.407988"/>
     <use style="fill:#ff7f0e;stroke:#ff7f0e;" x="135.475535" xlink:href="#m32523ea3cb" y="146.926785"/>
     <use style="fill:#ff7f0e;stroke:#ff7f0e;" x="138.490428" xlink:href="#m32523ea3cb" y="146.440831"/>
     <use style="fill:#ff7f0e;stroke:#ff7f0e;" x="141.505322" xlink:href="#m32523ea3cb" y="148.689516"/>
     <use style="fill:#ff7f0e;stroke:#ff7f0e;" x="144.520215" xlink:href="#m32523ea3cb" y="153.160909"/>
     <use style="fill:#ff7f0e;stroke:#ff7f0e;" x="147.535109" xlink:href="#m32523ea3cb" y="159.241786"/>
     <use style="fill:#ff7f0e;stroke:#ff7f0e;" x="150.550002" xlink:href="#m32523ea3cb" y="166.335275"/>
     <use style="fill:#ff7f0e;stroke:#ff7f0e;" x="153.564896" xlink:href="#m32523ea3cb" y="173.929297"/>
     <use style="fill:#ff7f0e;stroke:#ff7f0e;" x="156.579789" xlink:href="#m32523ea3cb" y="181.622698"/>
     <use style="fill:#ff7f0e;stroke:#ff7f0e;" x="159.594683" xlink:href="#m32523ea3cb" y="189.124038"/>
     <use style="fill:#ff7f0e;stroke:#ff7f0e;" x="162.609576" xlink:href="#m32523ea3cb" y="196.236638"/>
     <use style="fill:#ff7f0e;stroke:#ff7f0e;" x="165.62447" xlink:href="#m32523ea3cb" y="202.839066"/>
     <use style="fill:#ff7f0e;stroke:#ff7f0e;" x="168.639363" xlink:href="#m32523ea3cb" y="208.866083"/>
     <use style="fill:#ff7f0e;stroke:#ff7f0e;" x="171.654257" xlink:href="#m32523ea3cb" y="214.292273"/>
     <use style="fill:#ff7f0e;stroke:#ff7f0e;" x="174.66915" xlink:href="#m32523ea3cb" y="219.118943"/>
     <use style="fill:#ff7f0e;stroke:#ff7f0e;" x="177.684044" xlink:href="#m32523ea3cb" y="223.364103"/>
     <use style="fill:#ff7f0e;stroke:#ff7f0e;" x="180.698937" xlink:href="#m32523ea3cb" y="227.055027"/>
     <use style="fill:#ff7f0e;stroke:#ff7f0e;" x="183.713831" xlink:href="#m32523ea3cb" y="230.222831"/>
     <use style="fill:#ff7f0e;stroke:#ff7f0e;" x="186.728724" xlink:href="#m32523ea3cb" y="232.898542"/>
     <use style="fill:#ff7f0e;stroke:#ff7f0e;" x="189.743618" xlink:href="#m32523ea3cb" y="235.110205"/>
     <use style="fill:#ff7f0e;stroke:#ff7f0e;" x="192.758512" xlink:href="#m32523ea3cb" y="236.880682"/>
     <use style="fill:#ff7f0e;stroke:#ff7f0e;" x="195.773405" xlink:href="#m32523ea3cb" y="238.225821"/>
     <use style="fill:#ff7f0e;stroke:#ff7f0e;" x="198.788299" xlink:href="#m32523ea3cb" y="239.152755"/>
     <use style="fill:#ff7f0e;stroke:#ff7f0e;" x="201.803192" xlink:href="#m32523ea3cb" y="239.658126"/>
     <use style="fill:#ff7f0e;stroke:#ff7f0e;" x="204.818086" xlink:href="#m32523ea3cb" y="239.726053"/>
     <use style="fill:#ff7f0e;stroke:#ff7f0e;" x="207.832979" xlink:href="#m32523ea3cb" y="239.325705"/>
     <use style="fill:#ff7f0e;stroke:#ff7f0e;" x="210.847873" xlink:href="#m32523ea3cb" y="238.408451"/>
     <use style="fill:#ff7f0e;stroke:#ff7f0e;" x="213.862766" xlink:href="#m32523ea3cb" y="236.904687"/>
     <use style="fill:#ff7f0e;stroke:#ff7f0e;" x="216.87766" xlink:href="#m32523ea3cb" y="234.720847"/>
     <use style="fill:#ff7f0e;stroke:#ff7f0e;" x="219.892553" xlink:href="#m32523ea3cb" y="231.737718"/>
     <use style="fill:#ff7f0e;stroke:#ff7f0e;" x="222.907447" xlink:href="#m32523ea3cb" y="227.812378"/>
     <use style="fill:#ff7f0e;stroke:#ff7f0e;" x="225.92234" xlink:href="#m32523ea3cb" y="222.787714"/>
     <use style="fill:#ff7f0e;stroke:#ff7f0e;" x="228.937234" xlink:href="#m32523ea3cb" y="216.51549"/>
     <use style="fill:#ff7f0e;stroke:#ff7f0e;" x="231.952127" xlink:href="#m32523ea3cb" y="208.899774"/>
     <use style="fill:#ff7f0e;stroke:#ff7f0e;" x="234.967021" xlink:href="#m32523ea3cb" y="199.964252"/>
     <use style="fill:#ff7f0e;stroke:#ff7f0e;" x="237.981914" xlink:href="#m32523ea3cb" y="189.935302"/>
     <use style="fill:#ff7f0e;stroke:#ff7f0e;" x="240.996808" xlink:href="#m32523ea3cb" y="179.311398"/>
     <use style="fill:#ff7f0e;stroke:#ff7f0e;" x="244.011701" xlink:href="#m32523ea3cb" y="168.869021"/>
     <use style="fill:#ff7f0e;stroke:#ff7f0e;" x="247.026595" xlink:href="#m32523ea3cb" y="159.560911"/>
     <use style="fill:#ff7f0e;stroke:#ff7f0e;" x="250.041488" xlink:href="#m32523ea3cb" y="152.31278"/>
     <use style="fill:#ff7f0e;stroke:#ff7f0e;" x="253.056382" xlink:href="#m32523ea3cb" y="147.795707"/>
     <use style="fill:#ff7f0e;stroke:#ff7f0e;" x="256.071276" xlink:href="#m32523ea3cb" y="146.279593"/>
     <use style="fill:#ff7f0e;stroke:#ff7f0e;" x="259.086169" xlink:href="#m32523ea3cb" y="147.625103"/>
     <use style="fill:#ff7f0e;stroke:#ff7f0e;" x="262.101063" xlink:href="#m32523ea3cb" y="151.390297"/>
     <use style="fill:#ff7f0e;stroke:#ff7f0e;" x="265.115956" xlink:href="#m32523ea3cb" y="156.981522"/>
     <use style="fill:#ff7f0e;stroke:#ff7f0e;" x="268.13085" xlink:href="#m32523ea3cb" y="163.785926"/>
     <use style="fill:#ff7f0e;stroke:#ff7f0e;" x="271.145743" xlink:href="#m32523ea3cb" y="171.25709"/>
     <use style="fill:#ff7f0e;stroke:#ff7f0e;" x="274.160637" xlink:href="#m32523ea3cb" y="178.954329"/>
     <use style="fill:#ff7f0e;stroke:#ff7f0e;" x="277.17553" xlink:href="#m32523ea3cb" y="186.549257"/>
     <use style="fill:#ff7f0e;stroke:#ff7f0e;" x="280.190424" xlink:href="#m32523ea3cb" y="193.814339"/>
     <use style="fill:#ff7f0e;stroke:#ff7f0e;" x="283.205317" xlink:href="#m32523ea3cb" y="200.604208"/>
     <use style="fill:#ff7f0e;stroke:#ff7f0e;" x="286.220211" xlink:href="#m32523ea3cb" y="206.836086"/>
     <use style="fill:#ff7f0e;stroke:#ff7f0e;" x="289.235104" xlink:href="#m32523ea3cb" y="212.472353"/>
     <use style="fill:#ff7f0e;stroke:#ff7f0e;" x="292.249998" xlink:href="#m32523ea3cb" y="217.5063"/>
     <use style="fill:#ff7f0e;stroke:#ff7f0e;" x="295.264891" xlink:href="#m32523ea3cb" y="221.951086"/>
     <use style="fill:#ff7f0e;stroke:#ff7f0e;" x="298.279785" xlink:href="#m32523ea3cb" y="225.831468"/>
     <use style="fill:#ff7f0e;stroke:#ff7f0e;" x="301.294678" xlink:href="#m32523ea3cb" y="229.177738"/>
     <use style="fill:#ff7f0e;stroke:#ff7f0e;" x="304.309572" xlink:href="#m32523ea3cb" y="232.021324"/>
     <use style="fill:#ff7f0e;stroke:#ff7f0e;" x="307.324465" xlink:href="#m32523ea3cb" y="234.391588"/>
     <use style="fill:#ff7f0e;stroke:#ff7f0e;" x="310.339359" xlink:href="#m32523ea3cb" y="236.313418"/>
     <use style="fill:#ff7f0e;stroke:#ff7f0e;" x="313.354253" xlink:href="#m32523ea3cb" y="237.805295"/>
     <use style="fill:#ff7f0e;stroke:#ff7f0e;" x="316.369146" xlink:href="#m32523ea3cb" y="238.87758"/>
     <use style="fill:#ff7f0e;stroke:#ff7f0e;" x="319.38404" xlink:href="#m32523ea3cb" y="239.530781"/>
     <use style="fill:#ff7f0e;stroke:#ff7f0e;" x="322.398933" xlink:href="#m32523ea3cb" y="239.753628"/>
     <use style="fill:#ff7f0e;stroke:#ff7f0e;" x="325.413827" xlink:href="#m32523ea3cb" y="239.520795"/>
     <use style="fill:#ff7f0e;stroke:#ff7f0e;" x="328.42872" xlink:href="#m32523ea3cb" y="238.790196"/>
     <use style="fill:#ff7f0e;stroke:#ff7f0e;" x="331.443614" xlink:href="#m32523ea3cb" y="237.49989"/>
     <use style="fill:#ff7f0e;stroke:#ff7f0e;" x="334.458507" xlink:href="#m32523ea3cb" y="235.564941"/>
     <use style="fill:#ff7f0e;stroke:#ff7f0e;" x="337.473401" xlink:href="#m32523ea3cb" y="232.875091"/>
     <use style="fill:#ff7f0e;stroke:#ff7f0e;" x="340.488294" xlink:href="#m32523ea3cb" y="229.295086"/>
     <use style="fill:#ff7f0e;stroke:#ff7f0e;" x="343.503188" xlink:href="#m32523ea3cb" y="224.670967"/>
     <use style="fill:#ff7f0e;stroke:#ff7f0e;" x="346.518081" xlink:href="#m32523ea3cb" y="218.847655"/>
     <use style="fill:#ff7f0e;stroke:#ff7f0e;" x="349.532975" xlink:href="#m32523ea3cb" y="211.704579"/>
     <use style="fill:#ff7f0e;stroke:#ff7f0e;" x="352.547868" xlink:href="#m32523ea3cb" y="203.214813"/>
     <use style="fill:#ff7f0e;stroke:#ff7f0e;" x="355.562762" xlink:href="#m32523ea3cb" y="193.524716"/>
     <use style="fill:#ff7f0e;stroke:#ff7f0e;" x="358.577655" xlink:href="#m32523ea3cb" y="183.032985"/>
     <use style="fill:#ff7f0e;stroke:#ff7f0e;" x="361.592549" xlink:href="#m32523ea3cb" y="172.424847"/>
     <use style="fill:#ff7f0e;stroke:#ff7f0e;" x="364.607442" xlink:href="#m32523ea3cb" y="162.610562"/>
     <use style="fill:#ff7f0e;stroke:#ff7f0e;" x="367.622336" xlink:href="#m32523ea3cb" y="154.552093"/>
     <use style="fill:#ff7f0e;stroke:#ff7f0e;" x="370.637229" xlink:href="#m32523ea3cb" y="149.031885"/>
    </g>
   </g>
   <g id="matplotlib.axis_1">
    <g id="xtick_1">
     <g id="line2d_1">
      <defs>
       <path d="M 0 0 
L 0 3.5 
" id="ma5a41d91b0" style="stroke:#000000;stroke-width:0.8;"/>
      </defs>
      <g>
       <use style="stroke:#000000;stroke-width:0.8;" x="72.162771" xlink:href="#ma5a41d91b0" y="252"/>
      </g>
     </g>
     <g id="text_1">
      <!-- 0.0 -->
      <defs>
       <path d="M 31.78125 66.40625 
Q 24.171875 66.40625 20.328125 58.90625 
Q 16.5 51.421875 16.5 36.375 
Q 16.5 21.390625 20.328125 13.890625 
Q 24.171875 6.390625 31.78125 6.390625 
Q 39.453125 6.390625 43.28125 13.890625 
Q 47.125 21.390625 47.125 36.375 
Q 47.125 51.421875 43.28125 58.90625 
Q 39.453125 66.40625 31.78125 66.40625 
z
M 31.78125 74.21875 
Q 44.046875 74.21875 50.515625 64.515625 
Q 56.984375 54.828125 56.984375 36.375 
Q 56.984375 17.96875 50.515625 8.265625 
Q 44.046875 -1.421875 31.78125 -1.421875 
Q 19.53125 -1.421875 13.0625 8.265625 
Q 6.59375 17.96875 6.59375 36.375 
Q 6.59375 54.828125 13.0625 64.515625 
Q 19.53125 74.21875 31.78125 74.21875 
z
" id="DejaVuSans-48"/>
       <path d="M 10.6875 12.40625 
L 21 12.40625 
L 21 0 
L 10.6875 0 
z
" id="DejaVuSans-46"/>
      </defs>
      <g transform="translate(64.211208 266.598437)scale(0.1 -0.1)">
       <use xlink:href="#DejaVuSans-48"/>
       <use x="63.623047" xlink:href="#DejaVuSans-46"/>
       <use x="95.410156" xlink:href="#DejaVuSans-48"/>
      </g>
     </g>
    </g>
    <g id="xtick_2">
     <g id="line2d_2">
      <g>
       <use style="stroke:#000000;stroke-width:0.8;" x="109.472078" xlink:href="#ma5a41d91b0" y="252"/>
      </g>
     </g>
     <g id="text_2">
      <!-- 2.5 -->
      <defs>
       <path d="M 19.1875 8.296875 
L 53.609375 8.296875 
L 53.609375 0 
L 7.328125 0 
L 7.328125 8.296875 
Q 12.9375 14.109375 22.625 23.890625 
Q 32.328125 33.6875 34.8125 36.53125 
Q 39.546875 41.84375 41.421875 45.53125 
Q 43.3125 49.21875 43.3125 52.78125 
Q 43.3125 58.59375 39.234375 62.25 
Q 35.15625 65.921875 28.609375 65.921875 
Q 23.96875 65.921875 18.8125 64.3125 
Q 13.671875 62.703125 7.8125 59.421875 
L 7.8125 69.390625 
Q 13.765625 71.78125 18.9375 73 
Q 24.125 74.21875 28.421875 74.21875 
Q 39.75 74.21875 46.484375 68.546875 
Q 53.21875 62.890625 53.21875 53.421875 
Q 53.21875 48.921875 51.53125 44.890625 
Q 49.859375 40.875 45.40625 35.40625 
Q 44.1875 33.984375 37.640625 27.21875 
Q 31.109375 20.453125 19.1875 8.296875 
z
" id="DejaVuSans-50"/>
       <path d="M 10.796875 72.90625 
L 49.515625 72.90625 
L 49.515625 64.59375 
L 19.828125 64.59375 
L 19.828125 46.734375 
Q 21.96875 47.46875 24.109375 47.828125 
Q 26.265625 48.1875 28.421875 48.1875 
Q 40.625 48.1875 47.75 41.5 
Q 54.890625 34.8125 54.890625 23.390625 
Q 54.890625 11.625 47.5625 5.09375 
Q 40.234375 -1.421875 26.90625 -1.421875 
Q 22.3125 -1.421875 17.546875 -0.640625 
Q 12.796875 0.140625 7.71875 1.703125 
L 7.71875 11.625 
Q 12.109375 9.234375 16.796875 8.0625 
Q 21.484375 6.890625 26.703125 6.890625 
Q 35.15625 6.890625 40.078125 11.328125 
Q 45.015625 15.765625 45.015625 23.390625 
Q 45.015625 31 40.078125 35.4375 
Q 35.15625 39.890625 26.703125 39.890625 
Q 22.75 39.890625 18.8125 39.015625 
Q 14.890625 38.140625 10.796875 36.28125 
z
" id="DejaVuSans-53"/>
      </defs>
      <g transform="translate(101.520515 266.598437)scale(0.1 -0.1)">
       <use xlink:href="#DejaVuSans-50"/>
       <use x="63.623047" xlink:href="#DejaVuSans-46"/>
       <use x="95.410156" xlink:href="#DejaVuSans-53"/>
      </g>
     </g>
    </g>
    <g id="xtick_3">
     <g id="line2d_3">
      <g>
       <use style="stroke:#000000;stroke-width:0.8;" x="146.781385" xlink:href="#ma5a41d91b0" y="252"/>
      </g>
     </g>
     <g id="text_3">
      <!-- 5.0 -->
      <g transform="translate(138.829823 266.598437)scale(0.1 -0.1)">
       <use xlink:href="#DejaVuSans-53"/>
       <use x="63.623047" xlink:href="#DejaVuSans-46"/>
       <use x="95.410156" xlink:href="#DejaVuSans-48"/>
      </g>
     </g>
    </g>
    <g id="xtick_4">
     <g id="line2d_4">
      <g>
       <use style="stroke:#000000;stroke-width:0.8;" x="184.090693" xlink:href="#ma5a41d91b0" y="252"/>
      </g>
     </g>
     <g id="text_4">
      <!-- 7.5 -->
      <defs>
       <path d="M 8.203125 72.90625 
L 55.078125 72.90625 
L 55.078125 68.703125 
L 28.609375 0 
L 18.3125 0 
L 43.21875 64.59375 
L 8.203125 64.59375 
z
" id="DejaVuSans-55"/>
      </defs>
      <g transform="translate(176.13913 266.598437)scale(0.1 -0.1)">
       <use xlink:href="#DejaVuSans-55"/>
       <use x="63.623047" xlink:href="#DejaVuSans-46"/>
       <use x="95.410156" xlink:href="#DejaVuSans-53"/>
      </g>
     </g>
    </g>
    <g id="xtick_5">
     <g id="line2d_5">
      <g>
       <use style="stroke:#000000;stroke-width:0.8;" x="221.4" xlink:href="#ma5a41d91b0" y="252"/>
      </g>
     </g>
     <g id="text_5">
      <!-- 10.0 -->
      <defs>
       <path d="M 12.40625 8.296875 
L 28.515625 8.296875 
L 28.515625 63.921875 
L 10.984375 60.40625 
L 10.984375 69.390625 
L 28.421875 72.90625 
L 38.28125 72.90625 
L 38.28125 8.296875 
L 54.390625 8.296875 
L 54.390625 0 
L 12.40625 0 
z
" id="DejaVuSans-49"/>
      </defs>
      <g transform="translate(210.267188 266.598437)scale(0.1 -0.1)">
       <use xlink:href="#DejaVuSans-49"/>
       <use x="63.623047" xlink:href="#DejaVuSans-48"/>
       <use x="127.246094" xlink:href="#DejaVuSans-46"/>
       <use x="159.033203" xlink:href="#DejaVuSans-48"/>
      </g>
     </g>
    </g>
    <g id="xtick_6">
     <g id="line2d_6">
      <g>
       <use style="stroke:#000000;stroke-width:0.8;" x="258.709307" xlink:href="#ma5a41d91b0" y="252"/>
      </g>
     </g>
     <g id="text_6">
      <!-- 12.5 -->
      <g transform="translate(247.576495 266.598437)scale(0.1 -0.1)">
       <use xlink:href="#DejaVuSans-49"/>
       <use x="63.623047" xlink:href="#DejaVuSans-50"/>
       <use x="127.246094" xlink:href="#DejaVuSans-46"/>
       <use x="159.033203" xlink:href="#DejaVuSans-53"/>
      </g>
     </g>
    </g>
    <g id="xtick_7">
     <g id="line2d_7">
      <g>
       <use style="stroke:#000000;stroke-width:0.8;" x="296.018615" xlink:href="#ma5a41d91b0" y="252"/>
      </g>
     </g>
     <g id="text_7">
      <!-- 15.0 -->
      <g transform="translate(284.885802 266.598437)scale(0.1 -0.1)">
       <use xlink:href="#DejaVuSans-49"/>
       <use x="63.623047" xlink:href="#DejaVuSans-53"/>
       <use x="127.246094" xlink:href="#DejaVuSans-46"/>
       <use x="159.033203" xlink:href="#DejaVuSans-48"/>
      </g>
     </g>
    </g>
    <g id="xtick_8">
     <g id="line2d_8">
      <g>
       <use style="stroke:#000000;stroke-width:0.8;" x="333.327922" xlink:href="#ma5a41d91b0" y="252"/>
      </g>
     </g>
     <g id="text_8">
      <!-- 17.5 -->
      <g transform="translate(322.19511 266.598437)scale(0.1 -0.1)">
       <use xlink:href="#DejaVuSans-49"/>
       <use x="63.623047" xlink:href="#DejaVuSans-55"/>
       <use x="127.246094" xlink:href="#DejaVuSans-46"/>
       <use x="159.033203" xlink:href="#DejaVuSans-53"/>
      </g>
     </g>
    </g>
    <g id="xtick_9">
     <g id="line2d_9">
      <g>
       <use style="stroke:#000000;stroke-width:0.8;" x="370.637229" xlink:href="#ma5a41d91b0" y="252"/>
      </g>
     </g>
     <g id="text_9">
      <!-- 20.0 -->
      <g transform="translate(359.504417 266.598437)scale(0.1 -0.1)">
       <use xlink:href="#DejaVuSans-50"/>
       <use x="63.623047" xlink:href="#DejaVuSans-48"/>
       <use x="127.246094" xlink:href="#DejaVuSans-46"/>
       <use x="159.033203" xlink:href="#DejaVuSans-48"/>
      </g>
     </g>
    </g>
    <g id="text_10">
     <!-- Время -->
     <defs>
      <path d="M 19.671875 34.8125 
L 19.671875 8.109375 
L 35.5 8.109375 
Q 43.453125 8.109375 47.28125 11.40625 
Q 51.125 14.703125 51.125 21.484375 
Q 51.125 28.328125 47.28125 31.5625 
Q 43.453125 34.8125 35.5 34.8125 
z
M 19.671875 64.796875 
L 19.671875 42.828125 
L 34.28125 42.828125 
Q 41.5 42.828125 45.03125 45.53125 
Q 48.578125 48.25 48.578125 53.8125 
Q 48.578125 59.328125 45.03125 62.0625 
Q 41.5 64.796875 34.28125 64.796875 
z
M 9.8125 72.90625 
L 35.015625 72.90625 
Q 46.296875 72.90625 52.390625 68.21875 
Q 58.5 63.53125 58.5 54.890625 
Q 58.5 48.1875 55.375 44.234375 
Q 52.25 40.28125 46.1875 39.3125 
Q 53.46875 37.75 57.5 32.78125 
Q 61.53125 27.828125 61.53125 20.40625 
Q 61.53125 10.640625 54.890625 5.3125 
Q 48.25 0 35.984375 0 
L 9.8125 0 
z
" id="DejaVuSans-1042"/>
      <path d="M 18.109375 8.203125 
L 18.109375 -20.796875 
L 9.078125 -20.796875 
L 9.078125 54.6875 
L 18.109375 54.6875 
L 18.109375 46.390625 
Q 20.953125 51.265625 25.265625 53.625 
Q 29.59375 56 35.59375 56 
Q 45.5625 56 51.78125 48.09375 
Q 58.015625 40.1875 58.015625 27.296875 
Q 58.015625 14.40625 51.78125 6.484375 
Q 45.5625 -1.421875 35.59375 -1.421875 
Q 29.59375 -1.421875 25.265625 0.953125 
Q 20.953125 3.328125 18.109375 8.203125 
z
M 48.6875 27.296875 
Q 48.6875 37.203125 44.609375 42.84375 
Q 40.53125 48.484375 33.40625 48.484375 
Q 26.265625 48.484375 22.1875 42.84375 
Q 18.109375 37.203125 18.109375 27.296875 
Q 18.109375 17.390625 22.1875 11.75 
Q 26.265625 6.109375 33.40625 6.109375 
Q 40.53125 6.109375 44.609375 11.75 
Q 48.6875 17.390625 48.6875 27.296875 
z
" id="DejaVuSans-1088"/>
      <path d="M 56.203125 29.59375 
L 56.203125 25.203125 
L 14.890625 25.203125 
Q 15.484375 15.921875 20.484375 11.0625 
Q 25.484375 6.203125 34.421875 6.203125 
Q 39.59375 6.203125 44.453125 7.46875 
Q 49.3125 8.734375 54.109375 11.28125 
L 54.109375 2.78125 
Q 49.265625 0.734375 44.1875 -0.34375 
Q 39.109375 -1.421875 33.890625 -1.421875 
Q 20.796875 -1.421875 13.15625 6.1875 
Q 5.515625 13.8125 5.515625 26.8125 
Q 5.515625 40.234375 12.765625 48.109375 
Q 20.015625 56 32.328125 56 
Q 43.359375 56 49.78125 48.890625 
Q 56.203125 41.796875 56.203125 29.59375 
z
M 47.21875 32.234375 
Q 47.125 39.59375 43.09375 43.984375 
Q 39.0625 48.390625 32.421875 48.390625 
Q 24.90625 48.390625 20.390625 44.140625 
Q 15.875 39.890625 15.1875 32.171875 
z
" id="DejaVuSans-1077"/>
      <path d="M 9.078125 54.6875 
L 22.21875 54.6875 
L 37.75 18.0625 
L 53.328125 54.6875 
L 66.359375 54.6875 
L 66.359375 0 
L 57.328125 0 
L 57.328125 46.09375 
L 42.234375 10.5 
L 33.25 10.5 
L 18.109375 46.09375 
L 18.109375 0 
L 9.078125 0 
z
" id="DejaVuSans-1084"/>
      <path d="M 18.453125 38.921875 
Q 18.453125 34.859375 21.578125 32.5625 
Q 24.703125 30.28125 30.515625 30.28125 
L 42.625 30.28125 
L 42.625 47.515625 
L 30.515625 47.515625 
Q 24.703125 47.515625 21.578125 45.265625 
Q 18.453125 43.015625 18.453125 38.921875 
z
M 5.671875 0 
L 22.359375 23.96875 
Q 16.703125 25.25 12.9375 28.59375 
Q 9.1875 31.9375 9.1875 38.921875 
Q 9.1875 46.828125 14.421875 50.75 
Q 19.671875 54.6875 30.28125 54.6875 
L 51.65625 54.6875 
L 51.65625 0 
L 42.625 0 
L 42.625 23.09375 
L 31.453125 23.09375 
L 15.328125 0 
z
" id="DejaVuSans-1103"/>
     </defs>
     <g transform="translate(204.939063 280.276563)scale(0.1 -0.1)">
      <use xlink:href="#DejaVuSans-1042"/>
      <use x="68.603516" xlink:href="#DejaVuSans-1088"/>
      <use x="132.080078" xlink:href="#DejaVuSans-1077"/>
      <use x="193.603516" xlink:href="#DejaVuSans-1084"/>
      <use x="269.042969" xlink:href="#DejaVuSans-1103"/>
     </g>
    </g>
   </g>
   <g id="matplotlib.axis_2">
    <g id="ytick_1">
     <g id="line2d_10">
      <defs>
       <path d="M 0 0 
L -3.5 0 
" id="m4799a1b808" style="stroke:#000000;stroke-width:0.8;"/>
      </defs>
      <g>
       <use style="stroke:#000000;stroke-width:0.8;" x="54" xlink:href="#m4799a1b808" y="243.840126"/>
      </g>
     </g>
     <g id="text_11">
      <!-- 0.2 -->
      <g transform="translate(31.096875 247.639345)scale(0.1 -0.1)">
       <use xlink:href="#DejaVuSans-48"/>
       <use x="63.623047" xlink:href="#DejaVuSans-46"/>
       <use x="95.410156" xlink:href="#DejaVuSans-50"/>
      </g>
     </g>
    </g>
    <g id="ytick_2">
     <g id="line2d_11">
      <g>
       <use style="stroke:#000000;stroke-width:0.8;" x="54" xlink:href="#m4799a1b808" y="216.957878"/>
      </g>
     </g>
     <g id="text_12">
      <!-- 0.4 -->
      <defs>
       <path d="M 37.796875 64.3125 
L 12.890625 25.390625 
L 37.796875 25.390625 
z
M 35.203125 72.90625 
L 47.609375 72.90625 
L 47.609375 25.390625 
L 58.015625 25.390625 
L 58.015625 17.1875 
L 47.609375 17.1875 
L 47.609375 0 
L 37.796875 0 
L 37.796875 17.1875 
L 4.890625 17.1875 
L 4.890625 26.703125 
z
" id="DejaVuSans-52"/>
      </defs>
      <g transform="translate(31.096875 220.757097)scale(0.1 -0.1)">
       <use xlink:href="#DejaVuSans-48"/>
       <use x="63.623047" xlink:href="#DejaVuSans-46"/>
       <use x="95.410156" xlink:href="#DejaVuSans-52"/>
      </g>
     </g>
    </g>
    <g id="ytick_3">
     <g id="line2d_12">
      <g>
       <use style="stroke:#000000;stroke-width:0.8;" x="54" xlink:href="#m4799a1b808" y="190.075631"/>
      </g>
     </g>
     <g id="text_13">
      <!-- 0.6 -->
      <defs>
       <path d="M 33.015625 40.375 
Q 26.375 40.375 22.484375 35.828125 
Q 18.609375 31.296875 18.609375 23.390625 
Q 18.609375 15.53125 22.484375 10.953125 
Q 26.375 6.390625 33.015625 6.390625 
Q 39.65625 6.390625 43.53125 10.953125 
Q 47.40625 15.53125 47.40625 23.390625 
Q 47.40625 31.296875 43.53125 35.828125 
Q 39.65625 40.375 33.015625 40.375 
z
M 52.59375 71.296875 
L 52.59375 62.3125 
Q 48.875 64.0625 45.09375 64.984375 
Q 41.3125 65.921875 37.59375 65.921875 
Q 27.828125 65.921875 22.671875 59.328125 
Q 17.53125 52.734375 16.796875 39.40625 
Q 19.671875 43.65625 24.015625 45.921875 
Q 28.375 48.1875 33.59375 48.1875 
Q 44.578125 48.1875 50.953125 41.515625 
Q 57.328125 34.859375 57.328125 23.390625 
Q 57.328125 12.15625 50.6875 5.359375 
Q 44.046875 -1.421875 33.015625 -1.421875 
Q 20.359375 -1.421875 13.671875 8.265625 
Q 6.984375 17.96875 6.984375 36.375 
Q 6.984375 53.65625 15.1875 63.9375 
Q 23.390625 74.21875 37.203125 74.21875 
Q 40.921875 74.21875 44.703125 73.484375 
Q 48.484375 72.75 52.59375 71.296875 
z
" id="DejaVuSans-54"/>
      </defs>
      <g transform="translate(31.096875 193.87485)scale(0.1 -0.1)">
       <use xlink:href="#DejaVuSans-48"/>
       <use x="63.623047" xlink:href="#DejaVuSans-46"/>
       <use x="95.410156" xlink:href="#DejaVuSans-54"/>
      </g>
     </g>
    </g>
    <g id="ytick_4">
     <g id="line2d_13">
      <g>
       <use style="stroke:#000000;stroke-width:0.8;" x="54" xlink:href="#m4799a1b808" y="163.193383"/>
      </g>
     </g>
     <g id="text_14">
      <!-- 0.8 -->
      <defs>
       <path d="M 31.78125 34.625 
Q 24.75 34.625 20.71875 30.859375 
Q 16.703125 27.09375 16.703125 20.515625 
Q 16.703125 13.921875 20.71875 10.15625 
Q 24.75 6.390625 31.78125 6.390625 
Q 38.8125 6.390625 42.859375 10.171875 
Q 46.921875 13.96875 46.921875 20.515625 
Q 46.921875 27.09375 42.890625 30.859375 
Q 38.875 34.625 31.78125 34.625 
z
M 21.921875 38.8125 
Q 15.578125 40.375 12.03125 44.71875 
Q 8.5 49.078125 8.5 55.328125 
Q 8.5 64.0625 14.71875 69.140625 
Q 20.953125 74.21875 31.78125 74.21875 
Q 42.671875 74.21875 48.875 69.140625 
Q 55.078125 64.0625 55.078125 55.328125 
Q 55.078125 49.078125 51.53125 44.71875 
Q 48 40.375 41.703125 38.8125 
Q 48.828125 37.15625 52.796875 32.3125 
Q 56.78125 27.484375 56.78125 20.515625 
Q 56.78125 9.90625 50.3125 4.234375 
Q 43.84375 -1.421875 31.78125 -1.421875 
Q 19.734375 -1.421875 13.25 4.234375 
Q 6.78125 9.90625 6.78125 20.515625 
Q 6.78125 27.484375 10.78125 32.3125 
Q 14.796875 37.15625 21.921875 38.8125 
z
M 18.3125 54.390625 
Q 18.3125 48.734375 21.84375 45.5625 
Q 25.390625 42.390625 31.78125 42.390625 
Q 38.140625 42.390625 41.71875 45.5625 
Q 45.3125 48.734375 45.3125 54.390625 
Q 45.3125 60.0625 41.71875 63.234375 
Q 38.140625 66.40625 31.78125 66.40625 
Q 25.390625 66.40625 21.84375 63.234375 
Q 18.3125 60.0625 18.3125 54.390625 
z
" id="DejaVuSans-56"/>
      </defs>
      <g transform="translate(31.096875 166.992602)scale(0.1 -0.1)">
       <use xlink:href="#DejaVuSans-48"/>
       <use x="63.623047" xlink:href="#DejaVuSans-46"/>
       <use x="95.410156" xlink:href="#DejaVuSans-56"/>
      </g>
     </g>
    </g>
    <g id="ytick_5">
     <g id="line2d_14">
      <g>
       <use style="stroke:#000000;stroke-width:0.8;" x="54" xlink:href="#m4799a1b808" y="136.311135"/>
      </g>
     </g>
     <g id="text_15">
      <!-- 1.0 -->
      <g transform="translate(31.096875 140.110354)scale(0.1 -0.1)">
       <use xlink:href="#DejaVuSans-49"/>
       <use x="63.623047" xlink:href="#DejaVuSans-46"/>
       <use x="95.410156" xlink:href="#DejaVuSans-48"/>
      </g>
     </g>
    </g>
    <g id="ytick_6">
     <g id="line2d_15">
      <g>
       <use style="stroke:#000000;stroke-width:0.8;" x="54" xlink:href="#m4799a1b808" y="109.428888"/>
      </g>
     </g>
     <g id="text_16">
      <!-- 1.2 -->
      <g transform="translate(31.096875 113.228107)scale(0.1 -0.1)">
       <use xlink:href="#DejaVuSans-49"/>
       <use x="63.623047" xlink:href="#DejaVuSans-46"/>
       <use x="95.410156" xlink:href="#DejaVuSans-50"/>
      </g>
     </g>
    </g>
    <g id="ytick_7">
     <g id="line2d_16">
      <g>
       <use style="stroke:#000000;stroke-width:0.8;" x="54" xlink:href="#m4799a1b808" y="82.54664"/>
      </g>
     </g>
     <g id="text_17">
      <!-- 1.4 -->
      <g transform="translate(31.096875 86.345859)scale(0.1 -0.1)">
       <use xlink:href="#DejaVuSans-49"/>
       <use x="63.623047" xlink:href="#DejaVuSans-46"/>
       <use x="95.410156" xlink:href="#DejaVuSans-52"/>
      </g>
     </g>
    </g>
    <g id="ytick_8">
     <g id="line2d_17">
      <g>
       <use style="stroke:#000000;stroke-width:0.8;" x="54" xlink:href="#m4799a1b808" y="55.664392"/>
      </g>
     </g>
     <g id="text_18">
      <!-- 1.6 -->
      <g transform="translate(31.096875 59.463611)scale(0.1 -0.1)">
       <use xlink:href="#DejaVuSans-49"/>
       <use x="63.623047" xlink:href="#DejaVuSans-46"/>
       <use x="95.410156" xlink:href="#DejaVuSans-54"/>
      </g>
     </g>
    </g>
    <g id="text_19">
     <!-- Популяция -->
     <defs>
      <path d="M 65.375 72.90625 
L 65.375 0 
L 55.515625 0 
L 55.515625 64.59375 
L 19.671875 64.59375 
L 19.671875 0 
L 9.8125 0 
L 9.8125 72.90625 
z
" id="DejaVuSans-1055"/>
      <path d="M 30.609375 48.390625 
Q 23.390625 48.390625 19.1875 42.75 
Q 14.984375 37.109375 14.984375 27.296875 
Q 14.984375 17.484375 19.15625 11.84375 
Q 23.34375 6.203125 30.609375 6.203125 
Q 37.796875 6.203125 41.984375 11.859375 
Q 46.1875 17.53125 46.1875 27.296875 
Q 46.1875 37.015625 41.984375 42.703125 
Q 37.796875 48.390625 30.609375 48.390625 
z
M 30.609375 56 
Q 42.328125 56 49.015625 48.375 
Q 55.71875 40.765625 55.71875 27.296875 
Q 55.71875 13.875 49.015625 6.21875 
Q 42.328125 -1.421875 30.609375 -1.421875 
Q 18.84375 -1.421875 12.171875 6.21875 
Q 5.515625 13.875 5.515625 27.296875 
Q 5.515625 40.765625 12.171875 48.375 
Q 18.84375 56 30.609375 56 
z
" id="DejaVuSans-1086"/>
      <path d="M 56.296875 54.6875 
L 56.296875 0 
L 47.265625 0 
L 47.265625 47.515625 
L 18.109375 47.515625 
L 18.109375 0 
L 9.078125 0 
L 9.078125 54.6875 
z
" id="DejaVuSans-1087"/>
      <path d="M 32.171875 -5.078125 
Q 28.375 -14.84375 24.75 -17.8125 
Q 21.140625 -20.796875 15.09375 -20.796875 
L 7.90625 -20.796875 
L 7.90625 -13.28125 
L 13.1875 -13.28125 
Q 16.890625 -13.28125 18.9375 -11.515625 
Q 21 -9.765625 23.484375 -3.21875 
L 25.09375 0.875 
L 2.984375 54.6875 
L 12.5 54.6875 
L 29.59375 11.921875 
L 46.6875 54.6875 
L 56.203125 54.6875 
z
" id="DejaVuSans-1091"/>
      <path d="M 3.71875 0 
L 3.71875 7.46875 
Q 12.59375 8.84375 15.328125 14.984375 
Q 18.65625 23.640625 18.65625 45.75 
L 18.65625 54.6875 
L 55.609375 54.6875 
L 55.609375 0 
L 46.625 0 
L 46.625 47.515625 
L 27.640625 47.515625 
L 27.640625 42.09375 
Q 27.640625 21 23.34375 11.53125 
Q 18.75 1.421875 3.71875 0 
z
" id="DejaVuSans-1083"/>
      <path d="M 56.296875 0 
L 9.078125 0 
L 9.078125 54.6875 
L 18.109375 54.6875 
L 18.109375 7.171875 
L 47.265625 7.171875 
L 47.265625 54.6875 
L 56.296875 54.6875 
L 56.296875 7.171875 
L 63.484375 7.171875 
L 63.484375 -13.8125 
L 56.296875 -13.8125 
z
" id="DejaVuSans-1094"/>
      <path d="M 55.90625 54.6875 
L 55.90625 0 
L 46.96875 0 
L 46.96875 43.890625 
L 20.609375 0 
L 9.078125 0 
L 9.078125 54.6875 
L 18.015625 54.6875 
L 18.015625 10.890625 
L 44.34375 54.6875 
z
" id="DejaVuSans-1080"/>
     </defs>
     <g transform="translate(25.017187 172.191719)rotate(-90)scale(0.1 -0.1)">
      <use xlink:href="#DejaVuSans-1055"/>
      <use x="75.195312" xlink:href="#DejaVuSans-1086"/>
      <use x="136.376953" xlink:href="#DejaVuSans-1087"/>
      <use x="201.757812" xlink:href="#DejaVuSans-1091"/>
      <use x="260.9375" xlink:href="#DejaVuSans-1083"/>
      <use x="324.853516" xlink:href="#DejaVuSans-1103"/>
      <use x="385.009766" xlink:href="#DejaVuSans-1094"/>
      <use x="453.076172" xlink:href="#DejaVuSans-1080"/>
      <use x="518.066406" xlink:href="#DejaVuSans-1103"/>
     </g>
    </g>
   </g>
   <g id="patch_3">
    <path d="M 54 252 
L 54 34.56 
" style="fill:none;stroke:#000000;stroke-linecap:square;stroke-linejoin:miter;stroke-width:0.8;"/>
   </g>
   <g id="patch_4">
    <path d="M 388.8 252 
L 388.8 34.56 
" style="fill:none;stroke:#000000;stroke-linecap:square;stroke-linejoin:miter;stroke-width:0.8;"/>
   </g>
   <g id="patch_5">
    <path d="M 54 252 
L 388.8 252 
" style="fill:none;stroke:#000000;stroke-linecap:square;stroke-linejoin:miter;stroke-width:0.8;"/>
   </g>
   <g id="patch_6">
    <path d="M 54 34.56 
L 388.8 34.56 
" style="fill:none;stroke:#000000;stroke-linecap:square;stroke-linejoin:miter;stroke-width:0.8;"/>
   </g>
   <g id="legend_1">
    <g id="patch_7">
     <path d="M 61 71.91625 
L 206.926562 71.91625 
Q 208.926562 71.91625 208.926562 69.91625 
L 208.926562 41.56 
Q 208.926562 39.56 206.926562 39.56 
L 61 39.56 
Q 59 39.56 59 41.56 
L 59 69.91625 
Q 59 71.91625 61 71.91625 
z
" style="fill:#ffffff;opacity:0.8;stroke:#cccccc;stroke-linejoin:miter;"/>
    </g>
    <g id="PathCollection_3">
     <g>
      <use style="fill:#1f77b4;stroke:#1f77b4;" x="73" xlink:href="#mae5f7fa249" y="48.533437"/>
     </g>
    </g>
    <g id="text_20">
     <!-- Популяция жертв -->
     <defs>
      <path id="DejaVuSans-32"/>
      <path d="M 40.578125 54.6875 
L 49.515625 54.6875 
L 49.515625 29 
L 73.390625 54.6875 
L 83.84375 54.6875 
L 64.203125 33.640625 
L 86.671875 0 
L 77.046875 0 
L 58.640625 27.640625 
L 49.515625 17.828125 
L 49.515625 0 
L 40.578125 0 
L 40.578125 17.828125 
L 31.453125 27.640625 
L 13.03125 0 
L 3.421875 0 
L 25.875 33.640625 
L 6.25 54.6875 
L 16.703125 54.6875 
L 40.578125 29 
z
" id="DejaVuSans-1078"/>
      <path d="M 2.9375 54.6875 
L 55.328125 54.6875 
L 55.328125 47.515625 
L 33.546875 47.515625 
L 33.546875 0 
L 24.703125 0 
L 24.703125 47.515625 
L 2.9375 47.515625 
z
" id="DejaVuSans-1090"/>
      <path d="M 18.0625 25.203125 
L 18.0625 7.171875 
L 30.859375 7.171875 
Q 37.015625 7.171875 40.234375 9.484375 
Q 43.453125 11.8125 43.453125 16.21875 
Q 43.453125 20.609375 40.234375 22.90625 
Q 37.015625 25.203125 30.859375 25.203125 
z
M 18.0625 47.515625 
L 18.0625 32.375 
L 29.890625 32.375 
Q 34.96875 32.375 38.1875 34.390625 
Q 41.40625 36.421875 41.40625 40.046875 
Q 41.40625 43.65625 38.1875 45.578125 
Q 34.96875 47.515625 29.890625 47.515625 
z
M 9.078125 54.6875 
L 30.46875 54.6875 
Q 40.09375 54.6875 45.265625 51.171875 
Q 50.4375 47.65625 50.4375 41.15625 
Q 50.4375 36.140625 47.796875 33.171875 
Q 45.171875 30.21875 39.984375 29.5 
Q 46.1875 28.328125 49.609375 24.609375 
Q 53.03125 20.90625 53.03125 15.328125 
Q 53.03125 8.015625 47.390625 4 
Q 41.75 0 31.296875 0 
L 9.078125 0 
z
" id="DejaVuSans-1074"/>
     </defs>
     <g transform="translate(91 51.158437)scale(0.1 -0.1)">
      <use xlink:href="#DejaVuSans-1055"/>
      <use x="75.195312" xlink:href="#DejaVuSans-1086"/>
      <use x="136.376953" xlink:href="#DejaVuSans-1087"/>
      <use x="201.757812" xlink:href="#DejaVuSans-1091"/>
      <use x="260.9375" xlink:href="#DejaVuSans-1083"/>
      <use x="324.853516" xlink:href="#DejaVuSans-1103"/>
      <use x="385.009766" xlink:href="#DejaVuSans-1094"/>
      <use x="453.076172" xlink:href="#DejaVuSans-1080"/>
      <use x="518.066406" xlink:href="#DejaVuSans-1103"/>
      <use x="578.222656" xlink:href="#DejaVuSans-32"/>
      <use x="610.009766" xlink:href="#DejaVuSans-1078"/>
      <use x="700.097656" xlink:href="#DejaVuSans-1077"/>
      <use x="761.621094" xlink:href="#DejaVuSans-1088"/>
      <use x="825.097656" xlink:href="#DejaVuSans-1090"/>
      <use x="883.349609" xlink:href="#DejaVuSans-1074"/>
     </g>
    </g>
    <g id="PathCollection_4">
     <g>
      <use style="fill:#ff7f0e;stroke:#ff7f0e;" x="73" xlink:href="#m32523ea3cb" y="63.211562"/>
     </g>
    </g>
    <g id="text_21">
     <!-- Популяция хищников -->
     <defs>
      <path d="M 54.890625 54.6875 
L 35.109375 28.078125 
L 55.90625 0 
L 45.3125 0 
L 29.390625 21.484375 
L 13.484375 0 
L 2.875 0 
L 24.125 28.609375 
L 4.6875 54.6875 
L 15.28125 54.6875 
L 29.78125 35.203125 
L 44.28125 54.6875 
z
" id="DejaVuSans-1093"/>
      <path d="M 82.421875 0 
L 9.078125 0 
L 9.078125 54.6875 
L 18.109375 54.6875 
L 18.109375 7.171875 
L 41.21875 7.171875 
L 41.21875 54.6875 
L 50.25 54.6875 
L 50.25 7.171875 
L 73.390625 7.171875 
L 73.390625 54.6875 
L 82.421875 54.6875 
L 82.421875 7.171875 
L 89.59375 7.171875 
L 89.59375 -13.8125 
L 82.421875 -13.8125 
z
" id="DejaVuSans-1097"/>
      <path d="M 9.078125 54.6875 
L 18.109375 54.6875 
L 18.109375 32.375 
L 47.265625 32.375 
L 47.265625 54.6875 
L 56.296875 54.6875 
L 56.296875 0 
L 47.265625 0 
L 47.265625 25.203125 
L 18.109375 25.203125 
L 18.109375 0 
L 9.078125 0 
z
" id="DejaVuSans-1085"/>
      <path d="M 9.078125 54.6875 
L 18.015625 54.6875 
L 18.015625 29 
L 43.359375 54.6875 
L 54.390625 54.6875 
L 33.5 33.546875 
L 57.078125 0 
L 47.015625 0 
L 27.640625 27.59375 
L 18.015625 17.828125 
L 18.015625 0 
L 9.078125 0 
z
" id="DejaVuSans-1082"/>
     </defs>
     <g transform="translate(91 65.836562)scale(0.1 -0.1)">
      <use xlink:href="#DejaVuSans-1055"/>
      <use x="75.195312" xlink:href="#DejaVuSans-1086"/>
      <use x="136.376953" xlink:href="#DejaVuSans-1087"/>
      <use x="201.757812" xlink:href="#DejaVuSans-1091"/>
      <use x="260.9375" xlink:href="#DejaVuSans-1083"/>
      <use x="324.853516" xlink:href="#DejaVuSans-1103"/>
      <use x="385.009766" xlink:href="#DejaVuSans-1094"/>
      <use x="453.076172" xlink:href="#DejaVuSans-1080"/>
      <use x="518.066406" xlink:href="#DejaVuSans-1103"/>
      <use x="578.222656" xlink:href="#DejaVuSans-32"/>
      <use x="610.009766" xlink:href="#DejaVuSans-1093"/>
      <use x="669.189453" xlink:href="#DejaVuSans-1080"/>
      <use x="734.179688" xlink:href="#DejaVuSans-1097"/>
      <use x="828.369141" xlink:href="#DejaVuSans-1085"/>
      <use x="893.75" xlink:href="#DejaVuSans-1080"/>
      <use x="958.740234" xlink:href="#DejaVuSans-1082"/>
      <use x="1019.140625" xlink:href="#DejaVuSans-1086"/>
      <use x="1080.322266" xlink:href="#DejaVuSans-1074"/>
     </g>
    </g>
   </g>
  </g>
 </g>
 <defs>
  <clipPath id="p6725cd75aa">
   <rect height="217.44" width="334.8" x="54" y="34.56"/>
  </clipPath>
 </defs>
</svg>
