<?xml version="1.0" encoding="utf-8" standalone="no"?>
<!DOCTYPE svg PUBLIC "-//W3C//DTD SVG 1.1//EN"
  "http://www.w3.org/Graphics/SVG/1.1/DTD/svg11.dtd">
<!-- Created with matplotlib (https://matplotlib.org/) -->
<svg height="288pt" version="1.1" viewBox="0 0 432 288" width="432pt" xmlns="http://www.w3.org/2000/svg" xmlns:xlink="http://www.w3.org/1999/xlink">
 <defs>
  <style type="text/css">
*{stroke-linecap:butt;stroke-linejoin:round;}
  </style>
 </defs>
 <g id="figure_1">
  <g id="patch_1">
   <path d="M 0 288 
L 432 288 
L 432 0 
L 0 0 
z
" style="fill:#ffffff;"/>
  </g>
  <g id="axes_1">
   <g id="patch_2">
    <path d="M 54 252 
L 388.8 252 
L 388.8 34.56 
L 54 34.56 
z
" style="fill:#ffffff;"/>
   </g>
   <g id="PathCollection_1">
    <defs>
     <path d="M 0 3 
C 0.795609 3 1.55874 2.683901 2.12132 2.12132 
C 2.683901 1.55874 3 0.795609 3 0 
C 3 -0.795609 2.683901 -1.55874 2.12132 -2.12132 
C 1.55874 -2.683901 0.795609 -3 0 -3 
C -0.795609 -3 -1.55874 -2.683901 -2.12132 -2.12132 
C -2.683901 -1.55874 -3 -0.795609 -3 0 
C -3 0.795609 -2.683901 1.55874 -2.12132 2.12132 
C -1.55874 2.683901 -0.795609 3 0 3 
z
" id="m972a0e79c8" style="stroke:#1f77b4;"/>
    </defs>
    <g clip-path="url(#pad9bff449c)">
     <use style="fill:#1f77b4;stroke:#1f77b4;" x="124.850315" xlink:href="#m972a0e79c8" y="230.252627"/>
     <use style="fill:#1f77b4;stroke:#1f77b4;" x="138.30073" xlink:href="#m972a0e79c8" y="233.549902"/>
     <use style="fill:#1f77b4;stroke:#1f77b4;" x="153.30709" xlink:href="#m972a0e79c8" y="235.989269"/>
     <use style="fill:#1f77b4;stroke:#1f77b4;" x="169.866174" xlink:href="#m972a0e79c8" y="237.578235"/>
     <use style="fill:#1f77b4;stroke:#1f77b4;" x="187.942053" xlink:href="#m972a0e79c8" y="238.301613"/>
     <use style="fill:#1f77b4;stroke:#1f77b4;" x="207.448361" xlink:href="#m972a0e79c8" y="238.117119"/>
     <use style="fill:#1f77b4;stroke:#1f77b4;" x="228.225558" xlink:href="#m972a0e79c8" y="236.950146"/>
     <use style="fill:#1f77b4;stroke:#1f77b4;" x="250.012119" xlink:href="#m972a0e79c8" y="234.687674"/>
     <use style="fill:#1f77b4;stroke:#1f77b4;" x="272.409232" xlink:href="#m972a0e79c8" y="231.171786"/>
     <use style="fill:#1f77b4;stroke:#1f77b4;" x="294.839976" xlink:href="#m972a0e79c8" y="226.194151"/>
     <use style="fill:#1f77b4;stroke:#1f77b4;" x="316.506997" xlink:href="#m972a0e79c8" y="219.494482"/>
     <use style="fill:#1f77b4;stroke:#1f77b4;" x="336.358094" xlink:href="#m972a0e79c8" y="210.768715"/>
     <use style="fill:#1f77b4;stroke:#1f77b4;" x="353.077893" xlink:href="#m972a0e79c8" y="199.696406"/>
     <use style="fill:#1f77b4;stroke:#1f77b4;" x="365.134792" xlink:href="#m972a0e79c8" y="186.00058"/>
     <use style="fill:#1f77b4;stroke:#1f77b4;" x="370.919847" xlink:href="#m972a0e79c8" y="169.552906"/>
     <use style="fill:#1f77b4;stroke:#1f77b4;" x="369.006428" xlink:href="#m972a0e79c8" y="150.52553"/>
     <use style="fill:#1f77b4;stroke:#1f77b4;" x="358.517305" xlink:href="#m972a0e79c8" y="129.559717"/>
     <use style="fill:#1f77b4;stroke:#1f77b4;" x="339.504707" xlink:href="#m972a0e79c8" y="107.874676"/>
     <use style="fill:#1f77b4;stroke:#1f77b4;" x="313.167205" xlink:href="#m972a0e79c8" y="87.210333"/>
     <use style="fill:#1f77b4;stroke:#1f77b4;" x="281.731721" xlink:href="#m972a0e79c8" y="69.539427"/>
     <use style="fill:#1f77b4;stroke:#1f77b4;" x="247.979236" xlink:href="#m972a0e79c8" y="56.612923"/>
     <use style="fill:#1f77b4;stroke:#1f77b4;" x="214.606777" xlink:href="#m972a0e79c8" y="49.532063"/>
     <use style="fill:#1f77b4;stroke:#1f77b4;" x="183.711447" xlink:href="#m972a0e79c8" y="48.543619"/>
     <use style="fill:#1f77b4;stroke:#1f77b4;" x="156.573134" xlink:href="#m972a0e79c8" y="53.117505"/>
     <use style="fill:#1f77b4;stroke:#1f77b4;" x="133.719013" xlink:href="#m972a0e79c8" y="62.212437"/>
     <use style="fill:#1f77b4;stroke:#1f77b4;" x="115.137026" xlink:href="#m972a0e79c8" y="74.581105"/>
     <use style="fill:#1f77b4;stroke:#1f77b4;" x="100.507956" xlink:href="#m972a0e79c8" y="89.009451"/>
     <use style="fill:#1f77b4;stroke:#1f77b4;" x="89.38589" xlink:href="#m972a0e79c8" y="104.455895"/>
     <use style="fill:#1f77b4;stroke:#1f77b4;" x="81.311716" xlink:href="#m972a0e79c8" y="120.104478"/>
     <use style="fill:#1f77b4;stroke:#1f77b4;" x="75.872095" xlink:href="#m972a0e79c8" y="135.362403"/>
     <use style="fill:#1f77b4;stroke:#1f77b4;" x="72.722864" xlink:href="#m972a0e79c8" y="149.829623"/>
     <use style="fill:#1f77b4;stroke:#1f77b4;" x="71.592645" xlink:href="#m972a0e79c8" y="163.259138"/>
     <use style="fill:#1f77b4;stroke:#1f77b4;" x="72.277061" xlink:href="#m972a0e79c8" y="175.518252"/>
     <use style="fill:#1f77b4;stroke:#1f77b4;" x="74.629468" xlink:href="#m972a0e79c8" y="186.555268"/>
     <use style="fill:#1f77b4;stroke:#1f77b4;" x="78.551162" xlink:href="#m972a0e79c8" y="196.372844"/>
     <use style="fill:#1f77b4;stroke:#1f77b4;" x="83.982272" xlink:href="#m972a0e79c8" y="205.007611"/>
     <use style="fill:#1f77b4;stroke:#1f77b4;" x="90.893679" xlink:href="#m972a0e79c8" y="212.515049"/>
     <use style="fill:#1f77b4;stroke:#1f77b4;" x="99.279809" xlink:href="#m972a0e79c8" y="218.958448"/>
     <use style="fill:#1f77b4;stroke:#1f77b4;" x="109.151954" xlink:href="#m972a0e79c8" y="224.400915"/>
     <use style="fill:#1f77b4;stroke:#1f77b4;" x="120.531661" xlink:href="#m972a0e79c8" y="228.899497"/>
     <use style="fill:#1f77b4;stroke:#1f77b4;" x="133.44365" xlink:href="#m972a0e79c8" y="232.500695"/>
     <use style="fill:#1f77b4;stroke:#1f77b4;" x="147.907649" xlink:href="#m972a0e79c8" y="235.236744"/>
     <use style="fill:#1f77b4;stroke:#1f77b4;" x="163.928436" xlink:href="#m972a0e79c8" y="237.122152"/>
     <use style="fill:#1f77b4;stroke:#1f77b4;" x="181.483241" xlink:href="#m972a0e79c8" y="238.150091"/>
     <use style="fill:#1f77b4;stroke:#1f77b4;" x="200.505557" xlink:href="#m972a0e79c8" y="238.288255"/>
     <use style="fill:#1f77b4;stroke:#1f77b4;" x="220.864256" xlink:href="#m972a0e79c8" y="237.473937"/>
     <use style="fill:#1f77b4;stroke:#1f77b4;" x="242.336978" xlink:href="#m972a0e79c8" y="235.608217"/>
     <use style="fill:#1f77b4;stroke:#1f77b4;" x="264.577077" xlink:href="#m972a0e79c8" y="232.549521"/>
     <use style="fill:#1f77b4;stroke:#1f77b4;" x="287.074486" xlink:href="#m972a0e79c8" y="228.107532"/>
     <use style="fill:#1f77b4;stroke:#1f77b4;" x="309.11315" xlink:href="#m972a0e79c8" y="222.039769"/>
     <use style="fill:#1f77b4;stroke:#1f77b4;" x="329.732335" xlink:href="#m972a0e79c8" y="214.055523"/>
     <use style="fill:#1f77b4;stroke:#1f77b4;" x="347.706488" xlink:href="#m972a0e79c8" y="203.835221"/>
     <use style="fill:#1f77b4;stroke:#1f77b4;" x="361.568978" xlink:href="#m972a0e79c8" y="191.07735"/>
     <use style="fill:#1f77b4;stroke:#1f77b4;" x="369.714796" xlink:href="#m972a0e79c8" y="175.58678"/>
     <use style="fill:#1f77b4;stroke:#1f77b4;" x="370.616656" xlink:href="#m972a0e79c8" y="157.411689"/>
     <use style="fill:#1f77b4;stroke:#1f77b4;" x="363.160595" xlink:href="#m972a0e79c8" y="137.012537"/>
     <use style="fill:#1f77b4;stroke:#1f77b4;" x="347.038196" xlink:href="#m972a0e79c8" y="115.403232"/>
     <use style="fill:#1f77b4;stroke:#1f77b4;" x="323.042833" xlink:href="#m972a0e79c8" y="94.163158"/>
     <use style="fill:#1f77b4;stroke:#1f77b4;" x="293.081231" xlink:href="#m972a0e79c8" y="75.230212"/>
     <use style="fill:#1f77b4;stroke:#1f77b4;" x="259.811598" xlink:href="#m972a0e79c8" y="60.487319"/>
     <use style="fill:#1f77b4;stroke:#1f77b4;" x="226.030513" xlink:href="#m972a0e79c8" y="51.299472"/>
     <use style="fill:#1f77b4;stroke:#1f77b4;" x="194.085244" xlink:href="#m972a0e79c8" y="48.215657"/>
     <use style="fill:#1f77b4;stroke:#1f77b4;" x="165.544915" xlink:href="#m972a0e79c8" y="50.95246"/>
     <use style="fill:#1f77b4;stroke:#1f77b4;" x="141.178839" xlink:href="#m972a0e79c8" y="58.610966"/>
     <use style="fill:#1f77b4;stroke:#1f77b4;" x="121.13509" xlink:href="#m972a0e79c8" y="69.983667"/>
     <use style="fill:#1f77b4;stroke:#1f77b4;" x="105.177484" xlink:href="#m972a0e79c8" y="83.824005"/>
     <use style="fill:#1f77b4;stroke:#1f77b4;" x="92.888013" xlink:href="#m972a0e79c8" y="99.020554"/>
     <use style="fill:#1f77b4;stroke:#1f77b4;" x="83.803091" xlink:href="#m972a0e79c8" y="114.676944"/>
     <use style="fill:#1f77b4;stroke:#1f77b4;" x="77.489369" xlink:href="#m972a0e79c8" y="130.125231"/>
     <use style="fill:#1f77b4;stroke:#1f77b4;" x="73.57746" xlink:href="#m972a0e79c8" y="144.9026"/>
     <use style="fill:#1f77b4;stroke:#1f77b4;" x="71.770999" xlink:href="#m972a0e79c8" y="158.713376"/>
     <use style="fill:#1f77b4;stroke:#1f77b4;" x="71.843248" xlink:href="#m972a0e79c8" y="171.389184"/>
     <use style="fill:#1f77b4;stroke:#1f77b4;" x="73.628594" xlink:href="#m972a0e79c8" y="182.853502"/>
     <use style="fill:#1f77b4;stroke:#1f77b4;" x="77.01273" xlink:href="#m972a0e79c8" y="193.092683"/>
     <use style="fill:#1f77b4;stroke:#1f77b4;" x="81.923239" xlink:href="#m972a0e79c8" y="202.133496"/>
     <use style="fill:#1f77b4;stroke:#1f77b4;" x="88.321157" xlink:href="#m972a0e79c8" y="210.026298"/>
     <use style="fill:#1f77b4;stroke:#1f77b4;" x="96.193491" xlink:href="#m972a0e79c8" y="216.8327"/>
     <use style="fill:#1f77b4;stroke:#1f77b4;" x="105.546406" xlink:href="#m972a0e79c8" y="222.616631"/>
     <use style="fill:#1f77b4;stroke:#1f77b4;" x="116.398647" xlink:href="#m972a0e79c8" y="227.437811"/>
     <use style="fill:#1f77b4;stroke:#1f77b4;" x="128.774688" xlink:href="#m972a0e79c8" y="231.346864"/>
     <use style="fill:#1f77b4;stroke:#1f77b4;" x="142.697014" xlink:href="#m972a0e79c8" y="234.381382"/>
     <use style="fill:#1f77b4;stroke:#1f77b4;" x="158.176882" xlink:href="#m972a0e79c8" y="236.562438"/>
     <use style="fill:#1f77b4;stroke:#1f77b4;" x="175.202743" xlink:href="#m972a0e79c8" y="237.891067"/>
     <use style="fill:#1f77b4;stroke:#1f77b4;" x="193.725417" xlink:href="#m972a0e79c8" y="238.344343"/>
     <use style="fill:#1f77b4;stroke:#1f77b4;" x="213.638973" xlink:href="#m972a0e79c8" y="237.870756"/>
     <use style="fill:#1f77b4;stroke:#1f77b4;" x="234.756215" xlink:href="#m972a0e79c8" y="236.384698"/>
     <use style="fill:#1f77b4;stroke:#1f77b4;" x="256.77791" xlink:href="#m972a0e79c8" y="233.76018"/>
     <use style="fill:#1f77b4;stroke:#1f77b4;" x="279.255613" xlink:href="#m972a0e79c8" y="229.824443"/>
     <use style="fill:#1f77b4;stroke:#1f77b4;" x="301.549756" xlink:href="#m972a0e79c8" y="224.353215"/>
     <use style="fill:#1f77b4;stroke:#1f77b4;" x="322.78843" xlink:href="#m972a0e79c8" y="217.071389"/>
     <use style="fill:#1f77b4;stroke:#1f77b4;" x="341.838436" xlink:href="#m972a0e79c8" y="207.665808"/>
     <use style="fill:#1f77b4;stroke:#1f77b4;" x="357.310232" xlink:href="#m972a0e79c8" y="195.821035"/>
     <use style="fill:#1f77b4;stroke:#1f77b4;" x="367.62879" xlink:href="#m972a0e79c8" y="181.291829"/>
     <use style="fill:#1f77b4;stroke:#1f77b4;" x="371.207355" xlink:href="#m972a0e79c8" y="164.023417"/>
     <use style="fill:#1f77b4;stroke:#1f77b4;" x="366.744141" xlink:href="#m972a0e79c8" y="144.3135"/>
     <use style="fill:#1f77b4;stroke:#1f77b4;" x="353.607778" xlink:href="#m972a0e79c8" y="122.973039"/>
     <use style="fill:#1f77b4;stroke:#1f77b4;" x="332.188817" xlink:href="#m972a0e79c8" y="101.395804"/>
     <use style="fill:#1f77b4;stroke:#1f77b4;" x="304.028855" xlink:href="#m972a0e79c8" y="81.433284"/>
     <use style="fill:#1f77b4;stroke:#1f77b4;" x="271.586322" xlink:href="#m972a0e79c8" y="65.042142"/>
     <use style="fill:#1f77b4;stroke:#1f77b4;" x="237.683906" xlink:href="#m972a0e79c8" y="53.813893"/>
    </g>
   </g>
   <g id="matplotlib.axis_1">
    <g id="xtick_1">
     <g id="line2d_1">
      <defs>
       <path d="M 0 0 
L 0 3.5 
" id="m53e1d5106b" style="stroke:#000000;stroke-width:0.8;"/>
      </defs>
      <g>
       <use style="stroke:#000000;stroke-width:0.8;" x="87.751699" xlink:href="#m53e1d5106b" y="252"/>
      </g>
     </g>
     <g id="text_1">
      <!-- 0.6 -->
      <defs>
       <path d="M 31.78125 66.40625 
Q 24.171875 66.40625 20.328125 58.90625 
Q 16.5 51.421875 16.5 36.375 
Q 16.5 21.390625 20.328125 13.890625 
Q 24.171875 6.390625 31.78125 6.390625 
Q 39.453125 6.390625 43.28125 13.890625 
Q 47.125 21.390625 47.125 36.375 
Q 47.125 51.421875 43.28125 58.90625 
Q 39.453125 66.40625 31.78125 66.40625 
z
M 31.78125 74.21875 
Q 44.046875 74.21875 50.515625 64.515625 
Q 56.984375 54.828125 56.984375 36.375 
Q 56.984375 17.96875 50.515625 8.265625 
Q 44.046875 -1.421875 31.78125 -1.421875 
Q 19.53125 -1.421875 13.0625 8.265625 
Q 6.59375 17.96875 6.59375 36.375 
Q 6.59375 54.828125 13.0625 64.515625 
Q 19.53125 74.21875 31.78125 74.21875 
z
" id="DejaVuSans-48"/>
       <path d="M 10.6875 12.40625 
L 21 12.40625 
L 21 0 
L 10.6875 0 
z
" id="DejaVuSans-46"/>
       <path d="M 33.015625 40.375 
Q 26.375 40.375 22.484375 35.828125 
Q 18.609375 31.296875 18.609375 23.390625 
Q 18.609375 15.53125 22.484375 10.953125 
Q 26.375 6.390625 33.015625 6.390625 
Q 39.65625 6.390625 43.53125 10.953125 
Q 47.40625 15.53125 47.40625 23.390625 
Q 47.40625 31.296875 43.53125 35.828125 
Q 39.65625 40.375 33.015625 40.375 
z
M 52.59375 71.296875 
L 52.59375 62.3125 
Q 48.875 64.0625 45.09375 64.984375 
Q 41.3125 65.921875 37.59375 65.921875 
Q 27.828125 65.921875 22.671875 59.328125 
Q 17.53125 52.734375 16.796875 39.40625 
Q 19.671875 43.65625 24.015625 45.921875 
Q 28.375 48.1875 33.59375 48.1875 
Q 44.578125 48.1875 50.953125 41.515625 
Q 57.328125 34.859375 57.328125 23.390625 
Q 57.328125 12.15625 50.6875 5.359375 
Q 44.046875 -1.421875 33.015625 -1.421875 
Q 20.359375 -1.421875 13.671875 8.265625 
Q 6.984375 17.96875 6.984375 36.375 
Q 6.984375 53.65625 15.1875 63.9375 
Q 23.390625 74.21875 37.203125 74.21875 
Q 40.921875 74.21875 44.703125 73.484375 
Q 48.484375 72.75 52.59375 71.296875 
z
" id="DejaVuSans-54"/>
      </defs>
      <g transform="translate(79.800136 266.598437)scale(0.1 -0.1)">
       <use xlink:href="#DejaVuSans-48"/>
       <use x="63.623047" xlink:href="#DejaVuSans-46"/>
       <use x="95.410156" xlink:href="#DejaVuSans-54"/>
      </g>
     </g>
    </g>
    <g id="xtick_2">
     <g id="line2d_2">
      <g>
       <use style="stroke:#000000;stroke-width:0.8;" x="140.749722" xlink:href="#m53e1d5106b" y="252"/>
      </g>
     </g>
     <g id="text_2">
      <!-- 0.8 -->
      <defs>
       <path d="M 31.78125 34.625 
Q 24.75 34.625 20.71875 30.859375 
Q 16.703125 27.09375 16.703125 20.515625 
Q 16.703125 13.921875 20.71875 10.15625 
Q 24.75 6.390625 31.78125 6.390625 
Q 38.8125 6.390625 42.859375 10.171875 
Q 46.921875 13.96875 46.921875 20.515625 
Q 46.921875 27.09375 42.890625 30.859375 
Q 38.875 34.625 31.78125 34.625 
z
M 21.921875 38.8125 
Q 15.578125 40.375 12.03125 44.71875 
Q 8.5 49.078125 8.5 55.328125 
Q 8.5 64.0625 14.71875 69.140625 
Q 20.953125 74.21875 31.78125 74.21875 
Q 42.671875 74.21875 48.875 69.140625 
Q 55.078125 64.0625 55.078125 55.328125 
Q 55.078125 49.078125 51.53125 44.71875 
Q 48 40.375 41.703125 38.8125 
Q 48.828125 37.15625 52.796875 32.3125 
Q 56.78125 27.484375 56.78125 20.515625 
Q 56.78125 9.90625 50.3125 4.234375 
Q 43.84375 -1.421875 31.78125 -1.421875 
Q 19.734375 -1.421875 13.25 4.234375 
Q 6.78125 9.90625 6.78125 20.515625 
Q 6.78125 27.484375 10.78125 32.3125 
Q 14.796875 37.15625 21.921875 38.8125 
z
M 18.3125 54.390625 
Q 18.3125 48.734375 21.84375 45.5625 
Q 25.390625 42.390625 31.78125 42.390625 
Q 38.140625 42.390625 41.71875 45.5625 
Q 45.3125 48.734375 45.3125 54.390625 
Q 45.3125 60.0625 41.71875 63.234375 
Q 38.140625 66.40625 31.78125 66.40625 
Q 25.390625 66.40625 21.84375 63.234375 
Q 18.3125 60.0625 18.3125 54.390625 
z
" id="DejaVuSans-56"/>
      </defs>
      <g transform="translate(132.79816 266.598437)scale(0.1 -0.1)">
       <use xlink:href="#DejaVuSans-48"/>
       <use x="63.623047" xlink:href="#DejaVuSans-46"/>
       <use x="95.410156" xlink:href="#DejaVuSans-56"/>
      </g>
     </g>
    </g>
    <g id="xtick_3">
     <g id="line2d_3">
      <g>
       <use style="stroke:#000000;stroke-width:0.8;" x="193.747746" xlink:href="#m53e1d5106b" y="252"/>
      </g>
     </g>
     <g id="text_3">
      <!-- 1.0 -->
      <defs>
       <path d="M 12.40625 8.296875 
L 28.515625 8.296875 
L 28.515625 63.921875 
L 10.984375 60.40625 
L 10.984375 69.390625 
L 28.421875 72.90625 
L 38.28125 72.90625 
L 38.28125 8.296875 
L 54.390625 8.296875 
L 54.390625 0 
L 12.40625 0 
z
" id="DejaVuSans-49"/>
      </defs>
      <g transform="translate(185.796183 266.598437)scale(0.1 -0.1)">
       <use xlink:href="#DejaVuSans-49"/>
       <use x="63.623047" xlink:href="#DejaVuSans-46"/>
       <use x="95.410156" xlink:href="#DejaVuSans-48"/>
      </g>
     </g>
    </g>
    <g id="xtick_4">
     <g id="line2d_4">
      <g>
       <use style="stroke:#000000;stroke-width:0.8;" x="246.745769" xlink:href="#m53e1d5106b" y="252"/>
      </g>
     </g>
     <g id="text_4">
      <!-- 1.2 -->
      <defs>
       <path d="M 19.1875 8.296875 
L 53.609375 8.296875 
L 53.609375 0 
L 7.328125 0 
L 7.328125 8.296875 
Q 12.9375 14.109375 22.625 23.890625 
Q 32.328125 33.6875 34.8125 36.53125 
Q 39.546875 41.84375 41.421875 45.53125 
Q 43.3125 49.21875 43.3125 52.78125 
Q 43.3125 58.59375 39.234375 62.25 
Q 35.15625 65.921875 28.609375 65.921875 
Q 23.96875 65.921875 18.8125 64.3125 
Q 13.671875 62.703125 7.8125 59.421875 
L 7.8125 69.390625 
Q 13.765625 71.78125 18.9375 73 
Q 24.125 74.21875 28.421875 74.21875 
Q 39.75 74.21875 46.484375 68.546875 
Q 53.21875 62.890625 53.21875 53.421875 
Q 53.21875 48.921875 51.53125 44.890625 
Q 49.859375 40.875 45.40625 35.40625 
Q 44.1875 33.984375 37.640625 27.21875 
Q 31.109375 20.453125 19.1875 8.296875 
z
" id="DejaVuSans-50"/>
      </defs>
      <g transform="translate(238.794206 266.598437)scale(0.1 -0.1)">
       <use xlink:href="#DejaVuSans-49"/>
       <use x="63.623047" xlink:href="#DejaVuSans-46"/>
       <use x="95.410156" xlink:href="#DejaVuSans-50"/>
      </g>
     </g>
    </g>
    <g id="xtick_5">
     <g id="line2d_5">
      <g>
       <use style="stroke:#000000;stroke-width:0.8;" x="299.743792" xlink:href="#m53e1d5106b" y="252"/>
      </g>
     </g>
     <g id="text_5">
      <!-- 1.4 -->
      <defs>
       <path d="M 37.796875 64.3125 
L 12.890625 25.390625 
L 37.796875 25.390625 
z
M 35.203125 72.90625 
L 47.609375 72.90625 
L 47.609375 25.390625 
L 58.015625 25.390625 
L 58.015625 17.1875 
L 47.609375 17.1875 
L 47.609375 0 
L 37.796875 0 
L 37.796875 17.1875 
L 4.890625 17.1875 
L 4.890625 26.703125 
z
" id="DejaVuSans-52"/>
      </defs>
      <g transform="translate(291.79223 266.598437)scale(0.1 -0.1)">
       <use xlink:href="#DejaVuSans-49"/>
       <use x="63.623047" xlink:href="#DejaVuSans-46"/>
       <use x="95.410156" xlink:href="#DejaVuSans-52"/>
      </g>
     </g>
    </g>
    <g id="xtick_6">
     <g id="line2d_6">
      <g>
       <use style="stroke:#000000;stroke-width:0.8;" x="352.741816" xlink:href="#m53e1d5106b" y="252"/>
      </g>
     </g>
     <g id="text_6">
      <!-- 1.6 -->
      <g transform="translate(344.790253 266.598437)scale(0.1 -0.1)">
       <use xlink:href="#DejaVuSans-49"/>
       <use x="63.623047" xlink:href="#DejaVuSans-46"/>
       <use x="95.410156" xlink:href="#DejaVuSans-54"/>
      </g>
     </g>
    </g>
    <g id="text_7">
     <!-- Жертвы -->
     <defs>
      <path d="M 48.921875 72.90625 
L 58.796875 72.90625 
L 58.796875 36.859375 
L 92.09375 72.90625 
L 104.046875 72.90625 
L 77.4375 44.140625 
L 105.765625 0 
L 95.453125 0 
L 71.390625 37.546875 
L 58.796875 23.921875 
L 58.796875 0 
L 48.921875 0 
L 48.921875 23.921875 
L 36.328125 37.546875 
L 12.25 0 
L 1.953125 0 
L 30.28125 44.140625 
L 3.65625 72.90625 
L 15.625 72.90625 
L 48.921875 36.859375 
z
" id="DejaVuSans-1046"/>
      <path d="M 56.203125 29.59375 
L 56.203125 25.203125 
L 14.890625 25.203125 
Q 15.484375 15.921875 20.484375 11.0625 
Q 25.484375 6.203125 34.421875 6.203125 
Q 39.59375 6.203125 44.453125 7.46875 
Q 49.3125 8.734375 54.109375 11.28125 
L 54.109375 2.78125 
Q 49.265625 0.734375 44.1875 -0.34375 
Q 39.109375 -1.421875 33.890625 -1.421875 
Q 20.796875 -1.421875 13.15625 6.1875 
Q 5.515625 13.8125 5.515625 26.8125 
Q 5.515625 40.234375 12.765625 48.109375 
Q 20.015625 56 32.328125 56 
Q 43.359375 56 49.78125 48.890625 
Q 56.203125 41.796875 56.203125 29.59375 
z
M 47.21875 32.234375 
Q 47.125 39.59375 43.09375 43.984375 
Q 39.0625 48.390625 32.421875 48.390625 
Q 24.90625 48.390625 20.390625 44.140625 
Q 15.875 39.890625 15.1875 32.171875 
z
" id="DejaVuSans-1077"/>
      <path d="M 18.109375 8.203125 
L 18.109375 -20.796875 
L 9.078125 -20.796875 
L 9.078125 54.6875 
L 18.109375 54.6875 
L 18.109375 46.390625 
Q 20.953125 51.265625 25.265625 53.625 
Q 29.59375 56 35.59375 56 
Q 45.5625 56 51.78125 48.09375 
Q 58.015625 40.1875 58.015625 27.296875 
Q 58.015625 14.40625 51.78125 6.484375 
Q 45.5625 -1.421875 35.59375 -1.421875 
Q 29.59375 -1.421875 25.265625 0.953125 
Q 20.953125 3.328125 18.109375 8.203125 
z
M 48.6875 27.296875 
Q 48.6875 37.203125 44.609375 42.84375 
Q 40.53125 48.484375 33.40625 48.484375 
Q 26.265625 48.484375 22.1875 42.84375 
Q 18.109375 37.203125 18.109375 27.296875 
Q 18.109375 17.390625 22.1875 11.75 
Q 26.265625 6.109375 33.40625 6.109375 
Q 40.53125 6.109375 44.609375 11.75 
Q 48.6875 17.390625 48.6875 27.296875 
z
" id="DejaVuSans-1088"/>
      <path d="M 2.9375 54.6875 
L 55.328125 54.6875 
L 55.328125 47.515625 
L 33.546875 47.515625 
L 33.546875 0 
L 24.703125 0 
L 24.703125 47.515625 
L 2.9375 47.515625 
z
" id="DejaVuSans-1090"/>
      <path d="M 18.0625 25.203125 
L 18.0625 7.171875 
L 30.859375 7.171875 
Q 37.015625 7.171875 40.234375 9.484375 
Q 43.453125 11.8125 43.453125 16.21875 
Q 43.453125 20.609375 40.234375 22.90625 
Q 37.015625 25.203125 30.859375 25.203125 
z
M 18.0625 47.515625 
L 18.0625 32.375 
L 29.890625 32.375 
Q 34.96875 32.375 38.1875 34.390625 
Q 41.40625 36.421875 41.40625 40.046875 
Q 41.40625 43.65625 38.1875 45.578125 
Q 34.96875 47.515625 29.890625 47.515625 
z
M 9.078125 54.6875 
L 30.46875 54.6875 
Q 40.09375 54.6875 45.265625 51.171875 
Q 50.4375 47.65625 50.4375 41.15625 
Q 50.4375 36.140625 47.796875 33.171875 
Q 45.171875 30.21875 39.984375 29.5 
Q 46.1875 28.328125 49.609375 24.609375 
Q 53.03125 20.90625 53.03125 15.328125 
Q 53.03125 8.015625 47.390625 4 
Q 41.75 0 31.296875 0 
L 9.078125 0 
z
" id="DejaVuSans-1074"/>
      <path d="M 61.078125 54.6875 
L 70.0625 54.6875 
L 70.0625 0 
L 61.078125 0 
z
M 65.578125 56 
z
M 43.453125 16.21875 
Q 43.453125 20.609375 40.25 22.90625 
Q 37.0625 25.203125 30.90625 25.203125 
L 18.109375 25.203125 
L 18.109375 7.171875 
L 30.90625 7.171875 
Q 37.0625 7.171875 40.25 9.484375 
Q 43.453125 11.8125 43.453125 16.21875 
z
M 9.078125 54.6875 
L 18.109375 54.6875 
L 18.109375 32.375 
L 31.296875 32.375 
Q 41.75 32.375 47.390625 28.390625 
Q 53.03125 24.421875 53.03125 16.21875 
Q 53.03125 8.015625 47.390625 4 
Q 41.75 0 31.296875 0 
L 9.078125 0 
z
" id="DejaVuSans-1099"/>
     </defs>
     <g transform="translate(199.95625 280.276563)scale(0.1 -0.1)">
      <use xlink:href="#DejaVuSans-1046"/>
      <use x="107.714844" xlink:href="#DejaVuSans-1077"/>
      <use x="169.238281" xlink:href="#DejaVuSans-1088"/>
      <use x="232.714844" xlink:href="#DejaVuSans-1090"/>
      <use x="290.966797" xlink:href="#DejaVuSans-1074"/>
      <use x="349.902344" xlink:href="#DejaVuSans-1099"/>
     </g>
    </g>
   </g>
   <g id="matplotlib.axis_2">
    <g id="ytick_1">
     <g id="line2d_7">
      <defs>
       <path d="M 0 0 
L -3.5 0 
" id="me5cd6d96ab" style="stroke:#000000;stroke-width:0.8;"/>
      </defs>
      <g>
       <use style="stroke:#000000;stroke-width:0.8;" x="54" xlink:href="#me5cd6d96ab" y="246.65639"/>
      </g>
     </g>
     <g id="text_8">
      <!-- 0.2 -->
      <g transform="translate(31.096875 250.455609)scale(0.1 -0.1)">
       <use xlink:href="#DejaVuSans-48"/>
       <use x="63.623047" xlink:href="#DejaVuSans-46"/>
       <use x="95.410156" xlink:href="#DejaVuSans-50"/>
      </g>
     </g>
    </g>
    <g id="ytick_2">
     <g id="line2d_8">
      <g>
       <use style="stroke:#000000;stroke-width:0.8;" x="54" xlink:href="#me5cd6d96ab" y="219.316785"/>
      </g>
     </g>
     <g id="text_9">
      <!-- 0.3 -->
      <defs>
       <path d="M 40.578125 39.3125 
Q 47.65625 37.796875 51.625 33 
Q 55.609375 28.21875 55.609375 21.1875 
Q 55.609375 10.40625 48.1875 4.484375 
Q 40.765625 -1.421875 27.09375 -1.421875 
Q 22.515625 -1.421875 17.65625 -0.515625 
Q 12.796875 0.390625 7.625 2.203125 
L 7.625 11.71875 
Q 11.71875 9.328125 16.59375 8.109375 
Q 21.484375 6.890625 26.8125 6.890625 
Q 36.078125 6.890625 40.9375 10.546875 
Q 45.796875 14.203125 45.796875 21.1875 
Q 45.796875 27.640625 41.28125 31.265625 
Q 36.765625 34.90625 28.71875 34.90625 
L 20.21875 34.90625 
L 20.21875 43.015625 
L 29.109375 43.015625 
Q 36.375 43.015625 40.234375 45.921875 
Q 44.09375 48.828125 44.09375 54.296875 
Q 44.09375 59.90625 40.109375 62.90625 
Q 36.140625 65.921875 28.71875 65.921875 
Q 24.65625 65.921875 20.015625 65.03125 
Q 15.375 64.15625 9.8125 62.3125 
L 9.8125 71.09375 
Q 15.4375 72.65625 20.34375 73.4375 
Q 25.25 74.21875 29.59375 74.21875 
Q 40.828125 74.21875 47.359375 69.109375 
Q 53.90625 64.015625 53.90625 55.328125 
Q 53.90625 49.265625 50.4375 45.09375 
Q 46.96875 40.921875 40.578125 39.3125 
z
" id="DejaVuSans-51"/>
      </defs>
      <g transform="translate(31.096875 223.116004)scale(0.1 -0.1)">
       <use xlink:href="#DejaVuSans-48"/>
       <use x="63.623047" xlink:href="#DejaVuSans-46"/>
       <use x="95.410156" xlink:href="#DejaVuSans-51"/>
      </g>
     </g>
    </g>
    <g id="ytick_3">
     <g id="line2d_9">
      <g>
       <use style="stroke:#000000;stroke-width:0.8;" x="54" xlink:href="#me5cd6d96ab" y="191.97718"/>
      </g>
     </g>
     <g id="text_10">
      <!-- 0.4 -->
      <g transform="translate(31.096875 195.776398)scale(0.1 -0.1)">
       <use xlink:href="#DejaVuSans-48"/>
       <use x="63.623047" xlink:href="#DejaVuSans-46"/>
       <use x="95.410156" xlink:href="#DejaVuSans-52"/>
      </g>
     </g>
    </g>
    <g id="ytick_4">
     <g id="line2d_10">
      <g>
       <use style="stroke:#000000;stroke-width:0.8;" x="54" xlink:href="#me5cd6d96ab" y="164.637574"/>
      </g>
     </g>
     <g id="text_11">
      <!-- 0.5 -->
      <defs>
       <path d="M 10.796875 72.90625 
L 49.515625 72.90625 
L 49.515625 64.59375 
L 19.828125 64.59375 
L 19.828125 46.734375 
Q 21.96875 47.46875 24.109375 47.828125 
Q 26.265625 48.1875 28.421875 48.1875 
Q 40.625 48.1875 47.75 41.5 
Q 54.890625 34.8125 54.890625 23.390625 
Q 54.890625 11.625 47.5625 5.09375 
Q 40.234375 -1.421875 26.90625 -1.421875 
Q 22.3125 -1.421875 17.546875 -0.640625 
Q 12.796875 0.140625 7.71875 1.703125 
L 7.71875 11.625 
Q 12.109375 9.234375 16.796875 8.0625 
Q 21.484375 6.890625 26.703125 6.890625 
Q 35.15625 6.890625 40.078125 11.328125 
Q 45.015625 15.765625 45.015625 23.390625 
Q 45.015625 31 40.078125 35.4375 
Q 35.15625 39.890625 26.703125 39.890625 
Q 22.75 39.890625 18.8125 39.015625 
Q 14.890625 38.140625 10.796875 36.28125 
z
" id="DejaVuSans-53"/>
      </defs>
      <g transform="translate(31.096875 168.436793)scale(0.1 -0.1)">
       <use xlink:href="#DejaVuSans-48"/>
       <use x="63.623047" xlink:href="#DejaVuSans-46"/>
       <use x="95.410156" xlink:href="#DejaVuSans-53"/>
      </g>
     </g>
    </g>
    <g id="ytick_5">
     <g id="line2d_11">
      <g>
       <use style="stroke:#000000;stroke-width:0.8;" x="54" xlink:href="#me5cd6d96ab" y="137.297969"/>
      </g>
     </g>
     <g id="text_12">
      <!-- 0.6 -->
      <g transform="translate(31.096875 141.097188)scale(0.1 -0.1)">
       <use xlink:href="#DejaVuSans-48"/>
       <use x="63.623047" xlink:href="#DejaVuSans-46"/>
       <use x="95.410156" xlink:href="#DejaVuSans-54"/>
      </g>
     </g>
    </g>
    <g id="ytick_6">
     <g id="line2d_12">
      <g>
       <use style="stroke:#000000;stroke-width:0.8;" x="54" xlink:href="#me5cd6d96ab" y="109.958363"/>
      </g>
     </g>
     <g id="text_13">
      <!-- 0.7 -->
      <defs>
       <path d="M 8.203125 72.90625 
L 55.078125 72.90625 
L 55.078125 68.703125 
L 28.609375 0 
L 18.3125 0 
L 43.21875 64.59375 
L 8.203125 64.59375 
z
" id="DejaVuSans-55"/>
      </defs>
      <g transform="translate(31.096875 113.757582)scale(0.1 -0.1)">
       <use xlink:href="#DejaVuSans-48"/>
       <use x="63.623047" xlink:href="#DejaVuSans-46"/>
       <use x="95.410156" xlink:href="#DejaVuSans-55"/>
      </g>
     </g>
    </g>
    <g id="ytick_7">
     <g id="line2d_13">
      <g>
       <use style="stroke:#000000;stroke-width:0.8;" x="54" xlink:href="#me5cd6d96ab" y="82.618758"/>
      </g>
     </g>
     <g id="text_14">
      <!-- 0.8 -->
      <g transform="translate(31.096875 86.417977)scale(0.1 -0.1)">
       <use xlink:href="#DejaVuSans-48"/>
       <use x="63.623047" xlink:href="#DejaVuSans-46"/>
       <use x="95.410156" xlink:href="#DejaVuSans-56"/>
      </g>
     </g>
    </g>
    <g id="ytick_8">
     <g id="line2d_14">
      <g>
       <use style="stroke:#000000;stroke-width:0.8;" x="54" xlink:href="#me5cd6d96ab" y="55.279153"/>
      </g>
     </g>
     <g id="text_15">
      <!-- 0.9 -->
      <defs>
       <path d="M 10.984375 1.515625 
L 10.984375 10.5 
Q 14.703125 8.734375 18.5 7.8125 
Q 22.3125 6.890625 25.984375 6.890625 
Q 35.75 6.890625 40.890625 13.453125 
Q 46.046875 20.015625 46.78125 33.40625 
Q 43.953125 29.203125 39.59375 26.953125 
Q 35.25 24.703125 29.984375 24.703125 
Q 19.046875 24.703125 12.671875 31.3125 
Q 6.296875 37.9375 6.296875 49.421875 
Q 6.296875 60.640625 12.9375 67.421875 
Q 19.578125 74.21875 30.609375 74.21875 
Q 43.265625 74.21875 49.921875 64.515625 
Q 56.59375 54.828125 56.59375 36.375 
Q 56.59375 19.140625 48.40625 8.859375 
Q 40.234375 -1.421875 26.421875 -1.421875 
Q 22.703125 -1.421875 18.890625 -0.6875 
Q 15.09375 0.046875 10.984375 1.515625 
z
M 30.609375 32.421875 
Q 37.25 32.421875 41.125 36.953125 
Q 45.015625 41.5 45.015625 49.421875 
Q 45.015625 57.28125 41.125 61.84375 
Q 37.25 66.40625 30.609375 66.40625 
Q 23.96875 66.40625 20.09375 61.84375 
Q 16.21875 57.28125 16.21875 49.421875 
Q 16.21875 41.5 20.09375 36.953125 
Q 23.96875 32.421875 30.609375 32.421875 
z
" id="DejaVuSans-57"/>
      </defs>
      <g transform="translate(31.096875 59.078371)scale(0.1 -0.1)">
       <use xlink:href="#DejaVuSans-48"/>
       <use x="63.623047" xlink:href="#DejaVuSans-46"/>
       <use x="95.410156" xlink:href="#DejaVuSans-57"/>
      </g>
     </g>
    </g>
    <g id="text_16">
     <!-- Хищники -->
     <defs>
      <path d="M 6.296875 72.90625 
L 16.890625 72.90625 
L 35.015625 45.796875 
L 53.21875 72.90625 
L 63.8125 72.90625 
L 40.375 37.890625 
L 65.375 0 
L 54.78125 0 
L 34.28125 31 
L 13.625 0 
L 2.984375 0 
L 29 38.921875 
z
" id="DejaVuSans-1061"/>
      <path d="M 55.90625 54.6875 
L 55.90625 0 
L 46.96875 0 
L 46.96875 43.890625 
L 20.609375 0 
L 9.078125 0 
L 9.078125 54.6875 
L 18.015625 54.6875 
L 18.015625 10.890625 
L 44.34375 54.6875 
z
" id="DejaVuSans-1080"/>
      <path d="M 82.421875 0 
L 9.078125 0 
L 9.078125 54.6875 
L 18.109375 54.6875 
L 18.109375 7.171875 
L 41.21875 7.171875 
L 41.21875 54.6875 
L 50.25 54.6875 
L 50.25 7.171875 
L 73.390625 7.171875 
L 73.390625 54.6875 
L 82.421875 54.6875 
L 82.421875 7.171875 
L 89.59375 7.171875 
L 89.59375 -13.8125 
L 82.421875 -13.8125 
z
" id="DejaVuSans-1097"/>
      <path d="M 9.078125 54.6875 
L 18.109375 54.6875 
L 18.109375 32.375 
L 47.265625 32.375 
L 47.265625 54.6875 
L 56.296875 54.6875 
L 56.296875 0 
L 47.265625 0 
L 47.265625 25.203125 
L 18.109375 25.203125 
L 18.109375 0 
L 9.078125 0 
z
" id="DejaVuSans-1085"/>
      <path d="M 9.078125 54.6875 
L 18.015625 54.6875 
L 18.015625 29 
L 43.359375 54.6875 
L 54.390625 54.6875 
L 33.5 33.546875 
L 57.078125 0 
L 47.015625 0 
L 27.640625 27.59375 
L 18.015625 17.828125 
L 18.015625 0 
L 9.078125 0 
z
" id="DejaVuSans-1082"/>
     </defs>
     <g transform="translate(25.017187 167.451094)rotate(-90)scale(0.1 -0.1)">
      <use xlink:href="#DejaVuSans-1061"/>
      <use x="68.505859" xlink:href="#DejaVuSans-1080"/>
      <use x="133.496094" xlink:href="#DejaVuSans-1097"/>
      <use x="227.685547" xlink:href="#DejaVuSans-1085"/>
      <use x="293.066406" xlink:href="#DejaVuSans-1080"/>
      <use x="358.056641" xlink:href="#DejaVuSans-1082"/>
      <use x="418.457031" xlink:href="#DejaVuSans-1080"/>
     </g>
    </g>
   </g>
   <g id="patch_3">
    <path d="M 54 252 
L 54 34.56 
" style="fill:none;stroke:#000000;stroke-linecap:square;stroke-linejoin:miter;stroke-width:0.8;"/>
   </g>
   <g id="patch_4">
    <path d="M 388.8 252 
L 388.8 34.56 
" style="fill:none;stroke:#000000;stroke-linecap:square;stroke-linejoin:miter;stroke-width:0.8;"/>
   </g>
   <g id="patch_5">
    <path d="M 54 252 
L 388.8 252 
" style="fill:none;stroke:#000000;stroke-linecap:square;stroke-linejoin:miter;stroke-width:0.8;"/>
   </g>
   <g id="patch_6">
    <path d="M 54 34.56 
L 388.8 34.56 
" style="fill:none;stroke:#000000;stroke-linecap:square;stroke-linejoin:miter;stroke-width:0.8;"/>
   </g>
  </g>
 </g>
 <defs>
  <clipPath id="pad9bff449c">
   <rect height="217.44" width="334.8" x="54" y="34.56"/>
  </clipPath>
 </defs>
</svg>
