<?xml version="1.0" encoding="utf-8" standalone="no"?>
<!DOCTYPE svg PUBLIC "-//W3C//DTD SVG 1.1//EN"
  "http://www.w3.org/Graphics/SVG/1.1/DTD/svg11.dtd">
<!-- Created with matplotlib (https://matplotlib.org/) -->
<svg height="720pt" version="1.1" viewBox="0 0 1080 720" width="1080pt" xmlns="http://www.w3.org/2000/svg" xmlns:xlink="http://www.w3.org/1999/xlink">
 <defs>
  <style type="text/css">
*{stroke-linecap:butt;stroke-linejoin:round;}
  </style>
 </defs>
 <g id="figure_1">
  <g id="patch_1">
   <path d="M 0 720 
L 1080 720 
L 1080 0 
L 0 0 
z
" style="fill:#ffffff;"/>
  </g>
  <g id="axes_1">
   <g id="patch_2">
    <path d="M 135 280.542857 
L 972 280.542857 
L 972 86.4 
L 135 86.4 
z
" style="fill:#ffffff;"/>
   </g>
   <g id="matplotlib.axis_1">
    <g id="xtick_1">
     <g id="line2d_1">
      <defs>
       <path d="M 0 0 
L 0 3.5 
" id="m47bb06301c" style="stroke:#000000;stroke-width:0.8;"/>
      </defs>
      <g>
       <use style="stroke:#000000;stroke-width:0.8;" x="173.045455" xlink:href="#m47bb06301c" y="280.542857"/>
      </g>
     </g>
     <g id="text_1">
      <!-- 0 -->
      <defs>
       <path d="M 31.78125 66.40625 
Q 24.171875 66.40625 20.328125 58.90625 
Q 16.5 51.421875 16.5 36.375 
Q 16.5 21.390625 20.328125 13.890625 
Q 24.171875 6.390625 31.78125 6.390625 
Q 39.453125 6.390625 43.28125 13.890625 
Q 47.125 21.390625 47.125 36.375 
Q 47.125 51.421875 43.28125 58.90625 
Q 39.453125 66.40625 31.78125 66.40625 
z
M 31.78125 74.21875 
Q 44.046875 74.21875 50.515625 64.515625 
Q 56.984375 54.828125 56.984375 36.375 
Q 56.984375 17.96875 50.515625 8.265625 
Q 44.046875 -1.421875 31.78125 -1.421875 
Q 19.53125 -1.421875 13.0625 8.265625 
Q 6.59375 17.96875 6.59375 36.375 
Q 6.59375 54.828125 13.0625 64.515625 
Q 19.53125 74.21875 31.78125 74.21875 
z
" id="DejaVuSans-48"/>
      </defs>
      <g transform="translate(167.955455 299.700357)scale(0.16 -0.16)">
       <use xlink:href="#DejaVuSans-48"/>
      </g>
     </g>
    </g>
    <g id="xtick_2">
     <g id="line2d_2">
      <g>
       <use style="stroke:#000000;stroke-width:0.8;" x="325.227273" xlink:href="#m47bb06301c" y="280.542857"/>
      </g>
     </g>
     <g id="text_2">
      <!-- 2 -->
      <defs>
       <path d="M 19.1875 8.296875 
L 53.609375 8.296875 
L 53.609375 0 
L 7.328125 0 
L 7.328125 8.296875 
Q 12.9375 14.109375 22.625 23.890625 
Q 32.328125 33.6875 34.8125 36.53125 
Q 39.546875 41.84375 41.421875 45.53125 
Q 43.3125 49.21875 43.3125 52.78125 
Q 43.3125 58.59375 39.234375 62.25 
Q 35.15625 65.921875 28.609375 65.921875 
Q 23.96875 65.921875 18.8125 64.3125 
Q 13.671875 62.703125 7.8125 59.421875 
L 7.8125 69.390625 
Q 13.765625 71.78125 18.9375 73 
Q 24.125 74.21875 28.421875 74.21875 
Q 39.75 74.21875 46.484375 68.546875 
Q 53.21875 62.890625 53.21875 53.421875 
Q 53.21875 48.921875 51.53125 44.890625 
Q 49.859375 40.875 45.40625 35.40625 
Q 44.1875 33.984375 37.640625 27.21875 
Q 31.109375 20.453125 19.1875 8.296875 
z
" id="DejaVuSans-50"/>
      </defs>
      <g transform="translate(320.137273 299.700357)scale(0.16 -0.16)">
       <use xlink:href="#DejaVuSans-50"/>
      </g>
     </g>
    </g>
    <g id="xtick_3">
     <g id="line2d_3">
      <g>
       <use style="stroke:#000000;stroke-width:0.8;" x="477.409091" xlink:href="#m47bb06301c" y="280.542857"/>
      </g>
     </g>
     <g id="text_3">
      <!-- 4 -->
      <defs>
       <path d="M 37.796875 64.3125 
L 12.890625 25.390625 
L 37.796875 25.390625 
z
M 35.203125 72.90625 
L 47.609375 72.90625 
L 47.609375 25.390625 
L 58.015625 25.390625 
L 58.015625 17.1875 
L 47.609375 17.1875 
L 47.609375 0 
L 37.796875 0 
L 37.796875 17.1875 
L 4.890625 17.1875 
L 4.890625 26.703125 
z
" id="DejaVuSans-52"/>
      </defs>
      <g transform="translate(472.319091 299.700357)scale(0.16 -0.16)">
       <use xlink:href="#DejaVuSans-52"/>
      </g>
     </g>
    </g>
    <g id="xtick_4">
     <g id="line2d_4">
      <g>
       <use style="stroke:#000000;stroke-width:0.8;" x="629.590909" xlink:href="#m47bb06301c" y="280.542857"/>
      </g>
     </g>
     <g id="text_4">
      <!-- 6 -->
      <defs>
       <path d="M 33.015625 40.375 
Q 26.375 40.375 22.484375 35.828125 
Q 18.609375 31.296875 18.609375 23.390625 
Q 18.609375 15.53125 22.484375 10.953125 
Q 26.375 6.390625 33.015625 6.390625 
Q 39.65625 6.390625 43.53125 10.953125 
Q 47.40625 15.53125 47.40625 23.390625 
Q 47.40625 31.296875 43.53125 35.828125 
Q 39.65625 40.375 33.015625 40.375 
z
M 52.59375 71.296875 
L 52.59375 62.3125 
Q 48.875 64.0625 45.09375 64.984375 
Q 41.3125 65.921875 37.59375 65.921875 
Q 27.828125 65.921875 22.671875 59.328125 
Q 17.53125 52.734375 16.796875 39.40625 
Q 19.671875 43.65625 24.015625 45.921875 
Q 28.375 48.1875 33.59375 48.1875 
Q 44.578125 48.1875 50.953125 41.515625 
Q 57.328125 34.859375 57.328125 23.390625 
Q 57.328125 12.15625 50.6875 5.359375 
Q 44.046875 -1.421875 33.015625 -1.421875 
Q 20.359375 -1.421875 13.671875 8.265625 
Q 6.984375 17.96875 6.984375 36.375 
Q 6.984375 53.65625 15.1875 63.9375 
Q 23.390625 74.21875 37.203125 74.21875 
Q 40.921875 74.21875 44.703125 73.484375 
Q 48.484375 72.75 52.59375 71.296875 
z
" id="DejaVuSans-54"/>
      </defs>
      <g transform="translate(624.500909 299.700357)scale(0.16 -0.16)">
       <use xlink:href="#DejaVuSans-54"/>
      </g>
     </g>
    </g>
    <g id="xtick_5">
     <g id="line2d_5">
      <g>
       <use style="stroke:#000000;stroke-width:0.8;" x="781.772727" xlink:href="#m47bb06301c" y="280.542857"/>
      </g>
     </g>
     <g id="text_5">
      <!-- 8 -->
      <defs>
       <path d="M 31.78125 34.625 
Q 24.75 34.625 20.71875 30.859375 
Q 16.703125 27.09375 16.703125 20.515625 
Q 16.703125 13.921875 20.71875 10.15625 
Q 24.75 6.390625 31.78125 6.390625 
Q 38.8125 6.390625 42.859375 10.171875 
Q 46.921875 13.96875 46.921875 20.515625 
Q 46.921875 27.09375 42.890625 30.859375 
Q 38.875 34.625 31.78125 34.625 
z
M 21.921875 38.8125 
Q 15.578125 40.375 12.03125 44.71875 
Q 8.5 49.078125 8.5 55.328125 
Q 8.5 64.0625 14.71875 69.140625 
Q 20.953125 74.21875 31.78125 74.21875 
Q 42.671875 74.21875 48.875 69.140625 
Q 55.078125 64.0625 55.078125 55.328125 
Q 55.078125 49.078125 51.53125 44.71875 
Q 48 40.375 41.703125 38.8125 
Q 48.828125 37.15625 52.796875 32.3125 
Q 56.78125 27.484375 56.78125 20.515625 
Q 56.78125 9.90625 50.3125 4.234375 
Q 43.84375 -1.421875 31.78125 -1.421875 
Q 19.734375 -1.421875 13.25 4.234375 
Q 6.78125 9.90625 6.78125 20.515625 
Q 6.78125 27.484375 10.78125 32.3125 
Q 14.796875 37.15625 21.921875 38.8125 
z
M 18.3125 54.390625 
Q 18.3125 48.734375 21.84375 45.5625 
Q 25.390625 42.390625 31.78125 42.390625 
Q 38.140625 42.390625 41.71875 45.5625 
Q 45.3125 48.734375 45.3125 54.390625 
Q 45.3125 60.0625 41.71875 63.234375 
Q 38.140625 66.40625 31.78125 66.40625 
Q 25.390625 66.40625 21.84375 63.234375 
Q 18.3125 60.0625 18.3125 54.390625 
z
" id="DejaVuSans-56"/>
      </defs>
      <g transform="translate(776.682727 299.700357)scale(0.16 -0.16)">
       <use xlink:href="#DejaVuSans-56"/>
      </g>
     </g>
    </g>
    <g id="xtick_6">
     <g id="line2d_6">
      <g>
       <use style="stroke:#000000;stroke-width:0.8;" x="933.954545" xlink:href="#m47bb06301c" y="280.542857"/>
      </g>
     </g>
     <g id="text_6">
      <!-- 10 -->
      <defs>
       <path d="M 12.40625 8.296875 
L 28.515625 8.296875 
L 28.515625 63.921875 
L 10.984375 60.40625 
L 10.984375 69.390625 
L 28.421875 72.90625 
L 38.28125 72.90625 
L 38.28125 8.296875 
L 54.390625 8.296875 
L 54.390625 0 
L 12.40625 0 
z
" id="DejaVuSans-49"/>
      </defs>
      <g transform="translate(923.774545 299.700357)scale(0.16 -0.16)">
       <use xlink:href="#DejaVuSans-49"/>
       <use x="63.623047" xlink:href="#DejaVuSans-48"/>
      </g>
     </g>
    </g>
    <g id="text_7">
     <!-- (a) Время -->
     <defs>
      <path d="M 31 75.875 
Q 24.46875 64.65625 21.28125 53.65625 
Q 18.109375 42.671875 18.109375 31.390625 
Q 18.109375 20.125 21.3125 9.0625 
Q 24.515625 -2 31 -13.1875 
L 23.1875 -13.1875 
Q 15.875 -1.703125 12.234375 9.375 
Q 8.59375 20.453125 8.59375 31.390625 
Q 8.59375 42.28125 12.203125 53.3125 
Q 15.828125 64.359375 23.1875 75.875 
z
" id="DejaVuSans-40"/>
      <path d="M 34.28125 27.484375 
Q 23.390625 27.484375 19.1875 25 
Q 14.984375 22.515625 14.984375 16.5 
Q 14.984375 11.71875 18.140625 8.90625 
Q 21.296875 6.109375 26.703125 6.109375 
Q 34.1875 6.109375 38.703125 11.40625 
Q 43.21875 16.703125 43.21875 25.484375 
L 43.21875 27.484375 
z
M 52.203125 31.203125 
L 52.203125 0 
L 43.21875 0 
L 43.21875 8.296875 
Q 40.140625 3.328125 35.546875 0.953125 
Q 30.953125 -1.421875 24.3125 -1.421875 
Q 15.921875 -1.421875 10.953125 3.296875 
Q 6 8.015625 6 15.921875 
Q 6 25.140625 12.171875 29.828125 
Q 18.359375 34.515625 30.609375 34.515625 
L 43.21875 34.515625 
L 43.21875 35.40625 
Q 43.21875 41.609375 39.140625 45 
Q 35.0625 48.390625 27.6875 48.390625 
Q 23 48.390625 18.546875 47.265625 
Q 14.109375 46.140625 10.015625 43.890625 
L 10.015625 52.203125 
Q 14.9375 54.109375 19.578125 55.046875 
Q 24.21875 56 28.609375 56 
Q 40.484375 56 46.34375 49.84375 
Q 52.203125 43.703125 52.203125 31.203125 
z
" id="DejaVuSans-97"/>
      <path d="M 8.015625 75.875 
L 15.828125 75.875 
Q 23.140625 64.359375 26.78125 53.3125 
Q 30.421875 42.28125 30.421875 31.390625 
Q 30.421875 20.453125 26.78125 9.375 
Q 23.140625 -1.703125 15.828125 -13.1875 
L 8.015625 -13.1875 
Q 14.5 -2 17.703125 9.0625 
Q 20.90625 20.125 20.90625 31.390625 
Q 20.90625 42.671875 17.703125 53.65625 
Q 14.5 64.65625 8.015625 75.875 
z
" id="DejaVuSans-41"/>
      <path id="DejaVuSans-32"/>
      <path d="M 19.671875 34.8125 
L 19.671875 8.109375 
L 35.5 8.109375 
Q 43.453125 8.109375 47.28125 11.40625 
Q 51.125 14.703125 51.125 21.484375 
Q 51.125 28.328125 47.28125 31.5625 
Q 43.453125 34.8125 35.5 34.8125 
z
M 19.671875 64.796875 
L 19.671875 42.828125 
L 34.28125 42.828125 
Q 41.5 42.828125 45.03125 45.53125 
Q 48.578125 48.25 48.578125 53.8125 
Q 48.578125 59.328125 45.03125 62.0625 
Q 41.5 64.796875 34.28125 64.796875 
z
M 9.8125 72.90625 
L 35.015625 72.90625 
Q 46.296875 72.90625 52.390625 68.21875 
Q 58.5 63.53125 58.5 54.890625 
Q 58.5 48.1875 55.375 44.234375 
Q 52.25 40.28125 46.1875 39.3125 
Q 53.46875 37.75 57.5 32.78125 
Q 61.53125 27.828125 61.53125 20.40625 
Q 61.53125 10.640625 54.890625 5.3125 
Q 48.25 0 35.984375 0 
L 9.8125 0 
z
" id="DejaVuSans-1042"/>
      <path d="M 18.109375 8.203125 
L 18.109375 -20.796875 
L 9.078125 -20.796875 
L 9.078125 54.6875 
L 18.109375 54.6875 
L 18.109375 46.390625 
Q 20.953125 51.265625 25.265625 53.625 
Q 29.59375 56 35.59375 56 
Q 45.5625 56 51.78125 48.09375 
Q 58.015625 40.1875 58.015625 27.296875 
Q 58.015625 14.40625 51.78125 6.484375 
Q 45.5625 -1.421875 35.59375 -1.421875 
Q 29.59375 -1.421875 25.265625 0.953125 
Q 20.953125 3.328125 18.109375 8.203125 
z
M 48.6875 27.296875 
Q 48.6875 37.203125 44.609375 42.84375 
Q 40.53125 48.484375 33.40625 48.484375 
Q 26.265625 48.484375 22.1875 42.84375 
Q 18.109375 37.203125 18.109375 27.296875 
Q 18.109375 17.390625 22.1875 11.75 
Q 26.265625 6.109375 33.40625 6.109375 
Q 40.53125 6.109375 44.609375 11.75 
Q 48.6875 17.390625 48.6875 27.296875 
z
" id="DejaVuSans-1088"/>
      <path d="M 56.203125 29.59375 
L 56.203125 25.203125 
L 14.890625 25.203125 
Q 15.484375 15.921875 20.484375 11.0625 
Q 25.484375 6.203125 34.421875 6.203125 
Q 39.59375 6.203125 44.453125 7.46875 
Q 49.3125 8.734375 54.109375 11.28125 
L 54.109375 2.78125 
Q 49.265625 0.734375 44.1875 -0.34375 
Q 39.109375 -1.421875 33.890625 -1.421875 
Q 20.796875 -1.421875 13.15625 6.1875 
Q 5.515625 13.8125 5.515625 26.8125 
Q 5.515625 40.234375 12.765625 48.109375 
Q 20.015625 56 32.328125 56 
Q 43.359375 56 49.78125 48.890625 
Q 56.203125 41.796875 56.203125 29.59375 
z
M 47.21875 32.234375 
Q 47.125 39.59375 43.09375 43.984375 
Q 39.0625 48.390625 32.421875 48.390625 
Q 24.90625 48.390625 20.390625 44.140625 
Q 15.875 39.890625 15.1875 32.171875 
z
" id="DejaVuSans-1077"/>
      <path d="M 9.078125 54.6875 
L 22.21875 54.6875 
L 37.75 18.0625 
L 53.328125 54.6875 
L 66.359375 54.6875 
L 66.359375 0 
L 57.328125 0 
L 57.328125 46.09375 
L 42.234375 10.5 
L 33.25 10.5 
L 18.109375 46.09375 
L 18.109375 0 
L 9.078125 0 
z
" id="DejaVuSans-1084"/>
      <path d="M 18.453125 38.921875 
Q 18.453125 34.859375 21.578125 32.5625 
Q 24.703125 30.28125 30.515625 30.28125 
L 42.625 30.28125 
L 42.625 47.515625 
L 30.515625 47.515625 
Q 24.703125 47.515625 21.578125 45.265625 
Q 18.453125 43.015625 18.453125 38.921875 
z
M 5.671875 0 
L 22.359375 23.96875 
Q 16.703125 25.25 12.9375 28.59375 
Q 9.1875 31.9375 9.1875 38.921875 
Q 9.1875 46.828125 14.421875 50.75 
Q 19.671875 54.6875 30.28125 54.6875 
L 51.65625 54.6875 
L 51.65625 0 
L 42.625 0 
L 42.625 23.09375 
L 31.453125 23.09375 
L 15.328125 0 
z
" id="DejaVuSans-1103"/>
     </defs>
     <g transform="translate(513.475 319.185357)scale(0.16 -0.16)">
      <use xlink:href="#DejaVuSans-40"/>
      <use x="39.013672" xlink:href="#DejaVuSans-97"/>
      <use x="100.292969" xlink:href="#DejaVuSans-41"/>
      <use x="139.306641" xlink:href="#DejaVuSans-32"/>
      <use x="171.09375" xlink:href="#DejaVuSans-1042"/>
      <use x="239.697266" xlink:href="#DejaVuSans-1088"/>
      <use x="303.173828" xlink:href="#DejaVuSans-1077"/>
      <use x="364.697266" xlink:href="#DejaVuSans-1084"/>
      <use x="440.136719" xlink:href="#DejaVuSans-1103"/>
     </g>
    </g>
   </g>
   <g id="matplotlib.axis_2">
    <g id="ytick_1">
     <g id="line2d_7">
      <defs>
       <path d="M 0 0 
L -3.5 0 
" id="m4c7da8c2db" style="stroke:#000000;stroke-width:0.8;"/>
      </defs>
      <g>
       <use style="stroke:#000000;stroke-width:0.8;" x="135" xlink:href="#m4c7da8c2db" y="252.98582"/>
      </g>
     </g>
     <g id="text_8">
      <!-- −0.4 -->
      <defs>
       <path d="M 10.59375 35.5 
L 73.1875 35.5 
L 73.1875 27.203125 
L 10.59375 27.203125 
z
" id="DejaVuSans-8722"/>
       <path d="M 10.6875 12.40625 
L 21 12.40625 
L 21 0 
L 10.6875 0 
z
" id="DejaVuSans-46"/>
      </defs>
      <g transform="translate(89.1475 259.06457)scale(0.16 -0.16)">
       <use xlink:href="#DejaVuSans-8722"/>
       <use x="83.789062" xlink:href="#DejaVuSans-48"/>
       <use x="147.412109" xlink:href="#DejaVuSans-46"/>
       <use x="179.199219" xlink:href="#DejaVuSans-52"/>
      </g>
     </g>
    </g>
    <g id="ytick_2">
     <g id="line2d_8">
      <g>
       <use style="stroke:#000000;stroke-width:0.8;" x="135" xlink:href="#m4c7da8c2db" y="218.434477"/>
      </g>
     </g>
     <g id="text_9">
      <!-- −0.2 -->
      <g transform="translate(89.1475 224.513227)scale(0.16 -0.16)">
       <use xlink:href="#DejaVuSans-8722"/>
       <use x="83.789062" xlink:href="#DejaVuSans-48"/>
       <use x="147.412109" xlink:href="#DejaVuSans-46"/>
       <use x="179.199219" xlink:href="#DejaVuSans-50"/>
      </g>
     </g>
    </g>
    <g id="ytick_3">
     <g id="line2d_9">
      <g>
       <use style="stroke:#000000;stroke-width:0.8;" x="135" xlink:href="#m4c7da8c2db" y="183.883134"/>
      </g>
     </g>
     <g id="text_10">
      <!-- 0.0 -->
      <g transform="translate(102.555 189.961884)scale(0.16 -0.16)">
       <use xlink:href="#DejaVuSans-48"/>
       <use x="63.623047" xlink:href="#DejaVuSans-46"/>
       <use x="95.410156" xlink:href="#DejaVuSans-48"/>
      </g>
     </g>
    </g>
    <g id="ytick_4">
     <g id="line2d_10">
      <g>
       <use style="stroke:#000000;stroke-width:0.8;" x="135" xlink:href="#m4c7da8c2db" y="149.331791"/>
      </g>
     </g>
     <g id="text_11">
      <!-- 0.2 -->
      <g transform="translate(102.555 155.410541)scale(0.16 -0.16)">
       <use xlink:href="#DejaVuSans-48"/>
       <use x="63.623047" xlink:href="#DejaVuSans-46"/>
       <use x="95.410156" xlink:href="#DejaVuSans-50"/>
      </g>
     </g>
    </g>
    <g id="ytick_5">
     <g id="line2d_11">
      <g>
       <use style="stroke:#000000;stroke-width:0.8;" x="135" xlink:href="#m4c7da8c2db" y="114.780448"/>
      </g>
     </g>
     <g id="text_12">
      <!-- 0.4 -->
      <g transform="translate(102.555 120.859198)scale(0.16 -0.16)">
       <use xlink:href="#DejaVuSans-48"/>
       <use x="63.623047" xlink:href="#DejaVuSans-46"/>
       <use x="95.410156" xlink:href="#DejaVuSans-52"/>
      </g>
     </g>
    </g>
    <g id="text_13">
     <!-- Радиан -->
     <defs>
      <path d="M 19.671875 64.796875 
L 19.671875 37.40625 
L 32.078125 37.40625 
Q 38.96875 37.40625 42.71875 40.96875 
Q 46.484375 44.53125 46.484375 51.125 
Q 46.484375 57.671875 42.71875 61.234375 
Q 38.96875 64.796875 32.078125 64.796875 
z
M 9.8125 72.90625 
L 32.078125 72.90625 
Q 44.34375 72.90625 50.609375 67.359375 
Q 56.890625 61.8125 56.890625 51.125 
Q 56.890625 40.328125 50.609375 34.8125 
Q 44.34375 29.296875 32.078125 29.296875 
L 19.671875 29.296875 
L 19.671875 0 
L 9.8125 0 
z
" id="DejaVuSans-1056"/>
      <path d="M 34.28125 27.484375 
Q 23.390625 27.484375 19.1875 25 
Q 14.984375 22.515625 14.984375 16.5 
Q 14.984375 11.71875 18.140625 8.90625 
Q 21.296875 6.109375 26.703125 6.109375 
Q 34.1875 6.109375 38.703125 11.40625 
Q 43.21875 16.703125 43.21875 25.484375 
L 43.21875 27.484375 
z
M 52.203125 31.203125 
L 52.203125 0 
L 43.21875 0 
L 43.21875 8.296875 
Q 40.140625 3.328125 35.546875 0.953125 
Q 30.953125 -1.421875 24.3125 -1.421875 
Q 15.921875 -1.421875 10.953125 3.296875 
Q 6 8.015625 6 15.921875 
Q 6 25.140625 12.171875 29.828125 
Q 18.359375 34.515625 30.609375 34.515625 
L 43.21875 34.515625 
L 43.21875 35.40625 
Q 43.21875 41.609375 39.140625 45 
Q 35.0625 48.390625 27.6875 48.390625 
Q 23 48.390625 18.546875 47.265625 
Q 14.109375 46.140625 10.015625 43.890625 
L 10.015625 52.203125 
Q 14.9375 54.109375 19.578125 55.046875 
Q 24.21875 56 28.609375 56 
Q 40.484375 56 46.34375 49.84375 
Q 52.203125 43.703125 52.203125 31.203125 
z
" id="DejaVuSans-1072"/>
      <path d="M 21.625 7.171875 
L 47.703125 7.171875 
L 47.703125 47.515625 
L 28.8125 47.515625 
L 28.8125 40.671875 
Q 28.8125 20.5625 23.046875 9.8125 
z
M 8.59375 7.171875 
Q 13.03125 9.125 14.984375 13.28125 
Q 19.78125 23.578125 19.78125 44.34375 
L 19.78125 54.6875 
L 56.734375 54.6875 
L 56.734375 7.171875 
L 63.921875 7.171875 
L 63.921875 -13.8125 
L 56.734375 -13.8125 
L 56.734375 0 
L 12.40625 0 
L 12.40625 -13.8125 
L 5.21875 -13.8125 
L 5.21875 7.171875 
z
" id="DejaVuSans-1076"/>
      <path d="M 55.90625 54.6875 
L 55.90625 0 
L 46.96875 0 
L 46.96875 43.890625 
L 20.609375 0 
L 9.078125 0 
L 9.078125 54.6875 
L 18.015625 54.6875 
L 18.015625 10.890625 
L 44.34375 54.6875 
z
" id="DejaVuSans-1080"/>
      <path d="M 9.078125 54.6875 
L 18.109375 54.6875 
L 18.109375 32.375 
L 47.265625 32.375 
L 47.265625 54.6875 
L 56.296875 54.6875 
L 56.296875 0 
L 47.265625 0 
L 47.265625 25.203125 
L 18.109375 25.203125 
L 18.109375 0 
L 9.078125 0 
z
" id="DejaVuSans-1085"/>
     </defs>
     <g transform="translate(81.82 214.060179)rotate(-90)scale(0.16 -0.16)">
      <use xlink:href="#DejaVuSans-1056"/>
      <use x="60.302734" xlink:href="#DejaVuSans-1072"/>
      <use x="121.582031" xlink:href="#DejaVuSans-1076"/>
      <use x="190.722656" xlink:href="#DejaVuSans-1080"/>
      <use x="255.712891" xlink:href="#DejaVuSans-1072"/>
      <use x="316.992188" xlink:href="#DejaVuSans-1085"/>
     </g>
    </g>
   </g>
   <g id="line2d_12">
    <path clip-path="url(#pd03f21bcd3)" d="M 173.045455 183.883134 
L 178.371818 183.883134 
L 179.132727 97.504776 
L 248.375455 97.504776 
L 249.136364 183.883134 
L 316.857273 183.883134 
L 317.618182 270.261492 
L 368.599091 270.261492 
L 369.36 183.883134 
L 373.164545 183.883134 
L 373.925455 97.504776 
L 414.253636 97.504776 
L 415.014545 183.883134 
L 933.954545 183.883134 
L 933.954545 183.883134 
" style="fill:none;stroke:#1f77b4;stroke-linecap:square;stroke-width:1.5;"/>
   </g>
   <g id="line2d_13">
    <path clip-path="url(#pd03f21bcd3)" d="M 173.045455 183.883134 
L 179.132727 183.883134 
L 179.893636 183.64307 
L 180.654545 182.901324 
L 181.415455 181.658417 
L 182.176364 179.915156 
L 182.937273 177.672407 
L 183.698182 174.931135 
L 185.22 167.99348 
L 190.546364 140.806429 
L 192.068182 134.11632 
L 193.59 128.19896 
L 195.111818 123.061611 
L 196.633636 118.664532 
L 198.155455 114.858654 
L 199.677273 111.619434 
L 201.199091 108.940594 
L 202.720909 106.705009 
L 204.242727 104.838633 
L 205.764545 103.338251 
L 208.047273 101.522716 
L 209.569091 100.540062 
L 211.090909 99.738288 
L 212.612727 99.116813 
L 214.895455 98.479283 
L 220.982727 97.317681 
L 229.352727 96.25912 
L 242.288182 95.349797 
L 249.136364 95.224675 
L 249.897273 95.420039 
L 250.658182 96.05281 
L 251.419091 97.123439 
L 252.18 98.632758 
L 252.940909 100.582186 
L 253.701818 102.973697 
L 254.462727 105.80979 
L 255.984545 112.763367 
L 261.310909 140.083633 
L 262.832727 146.835413 
L 264.354545 152.8 
L 265.876364 157.956242 
L 267.398182 162.414766 
L 268.92 166.261962 
L 270.441818 169.498189 
L 271.963636 172.160722 
L 273.485455 174.400849 
L 275.007273 176.233166 
L 276.529091 177.700249 
L 278.050909 178.953544 
L 279.572727 180.00184 
L 281.094545 180.845675 
L 282.616364 181.48616 
L 286.420909 182.591808 
L 291.747273 183.808791 
L 297.073636 184.662741 
L 300.117273 184.904841 
L 306.204545 185.08098 
L 317.618182 184.840329 
L 318.379091 185.064542 
L 319.14 185.79045 
L 319.900909 187.01752 
L 320.661818 188.744927 
L 321.422727 190.971779 
L 322.183636 193.697079 
L 323.705455 200.550904 
L 329.031818 227.275601 
L 330.553636 233.835176 
L 332.075455 239.622889 
L 333.597273 244.660827 
L 335.119091 249.099897 
L 336.640909 252.965082 
L 338.162727 256.263248 
L 339.684545 259.000711 
L 341.206364 261.295007 
L 342.728182 263.220216 
L 344.25 264.779251 
L 345.771818 266.011986 
L 348.054545 267.508066 
L 349.576364 268.279439 
L 351.098182 268.871152 
L 353.380909 269.464405 
L 355.663636 269.919113 
L 361.750909 270.911103 
L 369.36 271.718182 
L 370.120909 271.553113 
L 370.881818 270.949466 
L 371.642727 269.906838 
L 372.403636 268.424452 
L 373.164545 266.500943 
L 373.925455 264.134393 
L 374.686364 261.322362 
L 376.208182 254.349795 
L 377.73 245.55532 
L 379.251818 234.906674 
L 380.773636 222.370257 
L 386.1 174.089485 
L 387.621818 162.289372 
L 389.143636 151.886137 
L 390.665455 142.814762 
L 392.187273 134.941962 
L 393.709091 128.249994 
L 395.230909 122.633488 
L 396.752727 117.951325 
L 398.274545 114.051081 
L 399.796364 110.797426 
L 401.318182 108.103027 
L 402.84 105.850835 
L 404.361818 103.966973 
L 405.883636 102.448559 
L 407.405455 101.25581 
L 408.927273 100.252676 
L 410.449091 99.430329 
L 411.970909 98.78777 
L 413.492727 98.324093 
L 415.014545 97.997597 
L 415.775455 98.047353 
L 416.536364 98.53843 
L 417.297273 99.471055 
L 418.058182 100.845827 
L 418.819091 102.663926 
L 419.58 104.927086 
L 420.340909 107.637559 
L 421.862727 114.346839 
L 427.95 144.313221 
L 429.471818 150.539438 
L 430.993636 155.958464 
L 432.515455 160.680227 
L 434.037273 164.790638 
L 435.559091 168.289704 
L 437.080909 171.177966 
L 438.602727 173.579664 
L 440.124545 175.573163 
L 441.646364 177.159468 
L 443.168182 178.472881 
L 444.69 179.581588 
L 446.211818 180.486182 
L 447.733636 181.187266 
L 450.777273 182.174591 
L 454.581818 183.169302 
L 459.908182 184.23757 
L 464.473636 184.830143 
L 466.756364 184.925705 
L 484.257273 185.141058 
L 532.955455 182.898517 
L 574.805455 181.140033 
L 601.437273 181.805184 
L 669.919091 183.368606 
L 743.727273 184.828144 
L 766.554545 185.140546 
L 815.252727 182.897761 
L 857.102727 181.139085 
L 883.734545 181.804122 
L 933.954545 182.971356 
L 933.954545 182.971356 
" style="fill:none;stroke:#ff7f0e;stroke-linecap:square;stroke-width:1.5;"/>
   </g>
   <g id="line2d_14">
    <path clip-path="url(#pd03f21bcd3)" d="M 173.045455 183.883134 
L 179.132727 183.883134 
L 179.893636 183.64307 
L 180.654545 182.901324 
L 181.415455 181.658417 
L 182.176364 179.915156 
L 182.937273 177.672407 
L 183.698182 174.931135 
L 185.22 168.009427 
L 190.546364 140.855713 
L 192.068182 134.190592 
L 193.59 128.26316 
L 195.111818 123.08089 
L 196.633636 118.609754 
L 198.155455 114.793295 
L 199.677273 111.565247 
L 201.199091 108.85646 
L 202.720909 106.600372 
L 204.242727 104.7346 
L 205.764545 103.201746 
L 207.286364 101.951022 
L 208.808182 100.937761 
L 210.33 100.122553 
L 212.612727 99.198661 
L 214.895455 98.551441 
L 217.939091 97.993144 
L 220.982727 97.668137 
L 225.548182 97.434754 
L 232.396364 97.345484 
L 249.136364 97.369944 
L 249.897273 97.581461 
L 250.658182 98.233401 
L 251.419091 99.326221 
L 252.18 100.860743 
L 252.940909 102.838365 
L 253.701818 105.261031 
L 254.462727 108.131191 
L 255.984545 115.112316 
L 261.310909 141.625463 
L 262.832727 148.118962 
L 264.354545 153.874805 
L 265.876364 158.882397 
L 267.398182 163.176969 
L 268.92 166.819533 
L 270.441818 169.882389 
L 271.963636 172.439602 
L 273.485455 174.563007 
L 275.007273 176.317641 
L 276.529091 177.760897 
L 278.050909 178.943157 
L 279.572727 179.908192 
L 281.855455 181.028726 
L 284.138182 181.845312 
L 286.420909 182.436787 
L 289.464545 182.975253 
L 293.269091 183.383412 
L 298.595455 183.670968 
L 306.204545 183.824309 
L 317.618182 183.877031 
L 318.379091 184.118399 
L 319.14 184.861445 
L 319.900909 186.10565 
L 320.661818 187.850207 
L 321.422727 190.094251 
L 322.183636 192.836814 
L 323.705455 199.760702 
L 329.031818 226.916865 
L 330.553636 233.582234 
L 332.075455 239.509921 
L 333.597273 244.692455 
L 335.119091 249.163359 
L 336.640909 252.979475 
L 338.162727 256.20719 
L 339.684545 258.915654 
L 341.206364 261.171426 
L 342.728182 263.03689 
L 344.25 264.569442 
L 345.771818 265.819867 
L 347.293636 266.833385 
L 348.815455 267.648896 
L 351.098182 268.573247 
L 353.380909 269.220928 
L 356.424545 269.779842 
L 359.468182 270.105186 
L 364.033636 270.337739 
L 369.36 270.420373 
L 370.120909 270.214734 
L 370.881818 269.568701 
L 371.642727 268.481828 
L 372.403636 266.953302 
L 373.164545 264.981731 
L 373.925455 262.565177 
L 374.686364 259.701196 
L 376.208182 252.618922 
L 377.73 243.707217 
L 379.251818 232.934335 
L 380.773636 220.26805 
L 385.339091 178.72769 
L 386.860909 166.476099 
L 388.382727 155.533333 
L 389.904545 145.955184 
L 391.426364 137.693095 
L 392.948182 130.640372 
L 394.47 124.667651 
L 395.991818 119.64286 
L 397.513636 115.439643 
L 399.035455 111.942761 
L 400.557273 109.049239 
L 402.079091 106.668124 
L 403.600909 104.719599 
L 405.122727 103.134405 
L 406.644545 101.852539 
L 408.166364 100.822375 
L 409.688182 100.000362 
L 411.970909 99.078255 
L 414.253636 98.440933 
L 415.014545 98.277517 
L 415.775455 98.326661 
L 416.536364 98.817515 
L 417.297273 99.750301 
L 418.058182 101.125614 
L 418.819091 102.944628 
L 419.58 105.209071 
L 420.340909 107.921187 
L 421.862727 114.635737 
L 427.95 144.366422 
L 429.471818 150.545923 
L 430.993636 155.983444 
L 432.515455 160.687761 
L 434.037273 164.7051 
L 435.559091 168.101602 
L 437.080909 170.950384 
L 438.602727 173.323923 
L 440.124545 175.290995 
L 441.646364 176.913208 
L 443.168182 178.245164 
L 444.69 179.334836 
L 446.211818 180.223461 
L 448.494545 181.254048 
L 450.777273 182.004175 
L 453.06 182.546264 
L 456.103636 183.038904 
L 459.908182 183.411439 
L 465.234545 183.67528 
L 473.604545 183.820632 
L 494.149091 183.866343 
L 814.491818 183.872796 
L 933.954545 183.872545 
L 933.954545 183.872545 
" style="fill:none;stroke:#2ca02c;stroke-linecap:square;stroke-width:1.5;"/>
   </g>
   <g id="patch_3">
    <path d="M 135 280.542857 
L 135 86.4 
" style="fill:none;stroke:#000000;stroke-linecap:square;stroke-linejoin:miter;stroke-width:0.8;"/>
   </g>
   <g id="patch_4">
    <path d="M 972 280.542857 
L 972 86.4 
" style="fill:none;stroke:#000000;stroke-linecap:square;stroke-linejoin:miter;stroke-width:0.8;"/>
   </g>
   <g id="patch_5">
    <path d="M 135 280.542857 
L 972 280.542857 
" style="fill:none;stroke:#000000;stroke-linecap:square;stroke-linejoin:miter;stroke-width:0.8;"/>
   </g>
   <g id="patch_6">
    <path d="M 135 86.4 
L 972 86.4 
" style="fill:none;stroke:#000000;stroke-linecap:square;stroke-linejoin:miter;stroke-width:0.8;"/>
   </g>
   <g id="text_14">
    <!-- Переходный процесс в пространстве состояний  -->
    <defs>
     <path d="M 65.375 72.90625 
L 65.375 0 
L 55.515625 0 
L 55.515625 64.59375 
L 19.671875 64.59375 
L 19.671875 0 
L 9.8125 0 
L 9.8125 72.90625 
z
" id="DejaVuSans-1055"/>
     <path d="M 54.890625 54.6875 
L 35.109375 28.078125 
L 55.90625 0 
L 45.3125 0 
L 29.390625 21.484375 
L 13.484375 0 
L 2.875 0 
L 24.125 28.609375 
L 4.6875 54.6875 
L 15.28125 54.6875 
L 29.78125 35.203125 
L 44.28125 54.6875 
z
" id="DejaVuSans-1093"/>
     <path d="M 30.609375 48.390625 
Q 23.390625 48.390625 19.1875 42.75 
Q 14.984375 37.109375 14.984375 27.296875 
Q 14.984375 17.484375 19.15625 11.84375 
Q 23.34375 6.203125 30.609375 6.203125 
Q 37.796875 6.203125 41.984375 11.859375 
Q 46.1875 17.53125 46.1875 27.296875 
Q 46.1875 37.015625 41.984375 42.703125 
Q 37.796875 48.390625 30.609375 48.390625 
z
M 30.609375 56 
Q 42.328125 56 49.015625 48.375 
Q 55.71875 40.765625 55.71875 27.296875 
Q 55.71875 13.875 49.015625 6.21875 
Q 42.328125 -1.421875 30.609375 -1.421875 
Q 18.84375 -1.421875 12.171875 6.21875 
Q 5.515625 13.875 5.515625 27.296875 
Q 5.515625 40.765625 12.171875 48.375 
Q 18.84375 56 30.609375 56 
z
" id="DejaVuSans-1086"/>
     <path d="M 61.046875 54.6875 
L 70.03125 54.6875 
L 70.03125 0 
L 61.046875 0 
z
M 65.546875 56 
z
M 43.453125 16.21875 
Q 43.453125 20.609375 40.25 22.90625 
Q 37.0625 25.203125 30.90625 25.203125 
L 18.109375 25.203125 
L 18.109375 7.171875 
L 30.90625 7.171875 
Q 37.0625 7.171875 40.25 9.484375 
Q 43.453125 11.8125 43.453125 16.21875 
z
M 9.078125 54.6875 
L 18.109375 54.6875 
L 18.109375 32.375 
L 31.296875 32.375 
Q 41.75 32.375 47.390625 28.390625 
Q 53.03125 24.421875 53.03125 16.21875 
Q 53.03125 8.015625 47.390625 4 
Q 41.75 0 31.296875 0 
L 9.078125 0 
z
" id="DejaVuSans-1099"/>
     <path d="M 55.90625 54.6875 
L 55.90625 0 
L 46.96875 0 
L 46.96875 43.890625 
L 20.609375 0 
L 9.078125 0 
L 9.078125 54.6875 
L 18.015625 54.6875 
L 18.015625 10.890625 
L 44.34375 54.6875 
z
M 17.21875 75.515625 
L 22.984375 75.515625 
Q 23.515625 71.859375 25.875 70.015625 
Q 28.25 68.1875 32.5 68.1875 
Q 36.703125 68.1875 39.046875 70 
Q 41.390625 71.8125 42.015625 75.515625 
L 47.78125 75.515625 
Q 47.296875 68.53125 43.4375 65.015625 
Q 39.578125 61.5 32.5 61.5 
Q 25.421875 61.5 21.5625 65.015625 
Q 17.703125 68.53125 17.21875 75.515625 
z
" id="DejaVuSans-1081"/>
     <path d="M 56.296875 54.6875 
L 56.296875 0 
L 47.265625 0 
L 47.265625 47.515625 
L 18.109375 47.515625 
L 18.109375 0 
L 9.078125 0 
L 9.078125 54.6875 
z
" id="DejaVuSans-1087"/>
     <path d="M 56.296875 0 
L 9.078125 0 
L 9.078125 54.6875 
L 18.109375 54.6875 
L 18.109375 7.171875 
L 47.265625 7.171875 
L 47.265625 54.6875 
L 56.296875 54.6875 
L 56.296875 7.171875 
L 63.484375 7.171875 
L 63.484375 -13.8125 
L 56.296875 -13.8125 
z
" id="DejaVuSans-1094"/>
     <path d="M 48.78125 52.59375 
L 48.78125 44.1875 
Q 44.96875 46.296875 41.140625 47.34375 
Q 37.3125 48.390625 33.40625 48.390625 
Q 24.65625 48.390625 19.8125 42.84375 
Q 14.984375 37.3125 14.984375 27.296875 
Q 14.984375 17.28125 19.8125 11.734375 
Q 24.65625 6.203125 33.40625 6.203125 
Q 37.3125 6.203125 41.140625 7.25 
Q 44.96875 8.296875 48.78125 10.40625 
L 48.78125 2.09375 
Q 45.015625 0.34375 40.984375 -0.53125 
Q 36.96875 -1.421875 32.421875 -1.421875 
Q 20.0625 -1.421875 12.78125 6.34375 
Q 5.515625 14.109375 5.515625 27.296875 
Q 5.515625 40.671875 12.859375 48.328125 
Q 20.21875 56 33.015625 56 
Q 37.15625 56 41.109375 55.140625 
Q 45.0625 54.296875 48.78125 52.59375 
z
" id="DejaVuSans-1089"/>
     <path d="M 18.0625 25.203125 
L 18.0625 7.171875 
L 30.859375 7.171875 
Q 37.015625 7.171875 40.234375 9.484375 
Q 43.453125 11.8125 43.453125 16.21875 
Q 43.453125 20.609375 40.234375 22.90625 
Q 37.015625 25.203125 30.859375 25.203125 
z
M 18.0625 47.515625 
L 18.0625 32.375 
L 29.890625 32.375 
Q 34.96875 32.375 38.1875 34.390625 
Q 41.40625 36.421875 41.40625 40.046875 
Q 41.40625 43.65625 38.1875 45.578125 
Q 34.96875 47.515625 29.890625 47.515625 
z
M 9.078125 54.6875 
L 30.46875 54.6875 
Q 40.09375 54.6875 45.265625 51.171875 
Q 50.4375 47.65625 50.4375 41.15625 
Q 50.4375 36.140625 47.796875 33.171875 
Q 45.171875 30.21875 39.984375 29.5 
Q 46.1875 28.328125 49.609375 24.609375 
Q 53.03125 20.90625 53.03125 15.328125 
Q 53.03125 8.015625 47.390625 4 
Q 41.75 0 31.296875 0 
L 9.078125 0 
z
" id="DejaVuSans-1074"/>
     <path d="M 2.9375 54.6875 
L 55.328125 54.6875 
L 55.328125 47.515625 
L 33.546875 47.515625 
L 33.546875 0 
L 24.703125 0 
L 24.703125 47.515625 
L 2.9375 47.515625 
z
" id="DejaVuSans-1090"/>
    </defs>
    <g transform="translate(305.7 58.9002)scale(0.192 -0.192)">
     <use xlink:href="#DejaVuSans-1055"/>
     <use x="75.195312" xlink:href="#DejaVuSans-1077"/>
     <use x="136.71875" xlink:href="#DejaVuSans-1088"/>
     <use x="200.195312" xlink:href="#DejaVuSans-1077"/>
     <use x="261.71875" xlink:href="#DejaVuSans-1093"/>
     <use x="320.898438" xlink:href="#DejaVuSans-1086"/>
     <use x="382.080078" xlink:href="#DejaVuSans-1076"/>
     <use x="451.220703" xlink:href="#DejaVuSans-1085"/>
     <use x="516.601562" xlink:href="#DejaVuSans-1099"/>
     <use x="595.556641" xlink:href="#DejaVuSans-1081"/>
     <use x="660.546875" xlink:href="#DejaVuSans-32"/>
     <use x="692.333984" xlink:href="#DejaVuSans-1087"/>
     <use x="757.714844" xlink:href="#DejaVuSans-1088"/>
     <use x="821.191406" xlink:href="#DejaVuSans-1086"/>
     <use x="882.373047" xlink:href="#DejaVuSans-1094"/>
     <use x="950.439453" xlink:href="#DejaVuSans-1077"/>
     <use x="1011.962891" xlink:href="#DejaVuSans-1089"/>
     <use x="1066.943359" xlink:href="#DejaVuSans-1089"/>
     <use x="1121.923828" xlink:href="#DejaVuSans-32"/>
     <use x="1153.710938" xlink:href="#DejaVuSans-1074"/>
     <use x="1212.646484" xlink:href="#DejaVuSans-32"/>
     <use x="1244.433594" xlink:href="#DejaVuSans-1087"/>
     <use x="1309.814453" xlink:href="#DejaVuSans-1088"/>
     <use x="1373.291016" xlink:href="#DejaVuSans-1086"/>
     <use x="1434.472656" xlink:href="#DejaVuSans-1089"/>
     <use x="1489.453125" xlink:href="#DejaVuSans-1090"/>
     <use x="1547.705078" xlink:href="#DejaVuSans-1088"/>
     <use x="1611.181641" xlink:href="#DejaVuSans-1072"/>
     <use x="1672.460938" xlink:href="#DejaVuSans-1085"/>
     <use x="1737.841797" xlink:href="#DejaVuSans-1089"/>
     <use x="1792.822266" xlink:href="#DejaVuSans-1090"/>
     <use x="1851.074219" xlink:href="#DejaVuSans-1074"/>
     <use x="1910.009766" xlink:href="#DejaVuSans-1077"/>
     <use x="1971.533203" xlink:href="#DejaVuSans-32"/>
     <use x="2003.320312" xlink:href="#DejaVuSans-1089"/>
     <use x="2058.300781" xlink:href="#DejaVuSans-1086"/>
     <use x="2119.482422" xlink:href="#DejaVuSans-1089"/>
     <use x="2174.462891" xlink:href="#DejaVuSans-1090"/>
     <use x="2232.714844" xlink:href="#DejaVuSans-1086"/>
     <use x="2293.896484" xlink:href="#DejaVuSans-1103"/>
     <use x="2354.052734" xlink:href="#DejaVuSans-1085"/>
     <use x="2419.433594" xlink:href="#DejaVuSans-1080"/>
     <use x="2484.423828" xlink:href="#DejaVuSans-1081"/>
     <use x="2549.414062" xlink:href="#DejaVuSans-32"/>
    </g>
    <!--  в соответствии с заданием -->
    <defs>
     <path d="M 34.46875 29.5 
Q 40.53125 28.328125 43.890625 24.75 
Q 47.265625 21.1875 47.265625 15.921875 
Q 47.265625 7.46875 40.96875 3.015625 
Q 34.671875 -1.421875 23.046875 -1.421875 
Q 19.140625 -1.421875 15.015625 -0.734375 
Q 10.890625 -0.046875 6.5 1.3125 
L 6.5 9.671875 
Q 9.96875 7.859375 14.109375 6.953125 
Q 18.265625 6.0625 22.796875 6.0625 
Q 30.171875 6.0625 34.296875 8.796875 
Q 38.421875 11.53125 38.421875 15.921875 
Q 38.421875 20.21875 34.765625 22.828125 
Q 31.109375 25.4375 24.421875 25.4375 
L 17.1875 25.4375 
L 17.1875 32.859375 
L 24.75 32.859375 
Q 30.421875 32.859375 33.71875 35.03125 
Q 37.015625 37.203125 37.015625 40.625 
Q 37.015625 43.75 33.609375 46 
Q 30.21875 48.25 24.421875 48.25 
Q 20.953125 48.25 17.015625 47.609375 
Q 13.09375 46.96875 8.34375 45.5625 
L 8.34375 53.71875 
Q 13.140625 54.890625 17.28125 55.46875 
Q 21.4375 56.0625 25.140625 56.0625 
Q 34.71875 56.0625 40.25 52.21875 
Q 45.796875 48.390625 45.796875 41.5 
Q 45.796875 36.96875 42.859375 33.8125 
Q 39.9375 30.671875 34.46875 29.5 
z
" id="DejaVuSans-1079"/>
    </defs>
    <g transform="translate(412.407 80.4)scale(0.192 -0.192)">
     <use xlink:href="#DejaVuSans-32"/>
     <use x="31.787109" xlink:href="#DejaVuSans-1074"/>
     <use x="90.722656" xlink:href="#DejaVuSans-32"/>
     <use x="122.509766" xlink:href="#DejaVuSans-1089"/>
     <use x="177.490234" xlink:href="#DejaVuSans-1086"/>
     <use x="238.671875" xlink:href="#DejaVuSans-1086"/>
     <use x="299.853516" xlink:href="#DejaVuSans-1090"/>
     <use x="358.105469" xlink:href="#DejaVuSans-1074"/>
     <use x="417.041016" xlink:href="#DejaVuSans-1077"/>
     <use x="478.564453" xlink:href="#DejaVuSans-1090"/>
     <use x="536.816406" xlink:href="#DejaVuSans-1089"/>
     <use x="591.796875" xlink:href="#DejaVuSans-1090"/>
     <use x="650.048828" xlink:href="#DejaVuSans-1074"/>
     <use x="708.984375" xlink:href="#DejaVuSans-1080"/>
     <use x="773.974609" xlink:href="#DejaVuSans-1080"/>
     <use x="838.964844" xlink:href="#DejaVuSans-32"/>
     <use x="870.751953" xlink:href="#DejaVuSans-1089"/>
     <use x="925.732422" xlink:href="#DejaVuSans-32"/>
     <use x="957.519531" xlink:href="#DejaVuSans-1079"/>
     <use x="1010.693359" xlink:href="#DejaVuSans-1072"/>
     <use x="1071.972656" xlink:href="#DejaVuSans-1076"/>
     <use x="1141.113281" xlink:href="#DejaVuSans-1072"/>
     <use x="1202.392578" xlink:href="#DejaVuSans-1085"/>
     <use x="1267.773438" xlink:href="#DejaVuSans-1080"/>
     <use x="1332.763672" xlink:href="#DejaVuSans-1077"/>
     <use x="1394.287109" xlink:href="#DejaVuSans-1084"/>
    </g>
   </g>
   <g id="legend_1">
    <g id="patch_7">
     <path d="M 752.195 169.655 
L 960.8 169.655 
Q 964 169.655 964 166.455 
L 964 97.6 
Q 964 94.4 960.8 94.4 
L 752.195 94.4 
Q 748.995 94.4 748.995 97.6 
L 748.995 166.455 
Q 748.995 169.655 752.195 169.655 
z
" style="fill:#ffffff;opacity:0.8;stroke:#cccccc;stroke-linejoin:miter;"/>
    </g>
    <g id="line2d_15">
     <path d="M 755.395 107.3575 
L 787.395 107.3575 
" style="fill:none;stroke:#1f77b4;stroke-linecap:square;stroke-width:1.5;"/>
    </g>
    <g id="line2d_16"/>
    <g id="text_15">
     <!-- Задание -->
     <defs>
      <path d="M 28.5625 74.21875 
Q 40.578125 74.21875 48.1875 69.109375 
Q 55.8125 64.015625 55.8125 55.328125 
Q 55.8125 49.265625 52.34375 45.09375 
Q 48.875 40.921875 42.484375 39.3125 
Q 49.5625 37.796875 53.53125 33 
Q 57.515625 28.21875 57.515625 21.1875 
Q 57.515625 9.96875 48.84375 4.265625 
Q 40.1875 -1.421875 28.5625 -1.421875 
Q 22.609375 -1.421875 15.671875 0.1875 
Q 8.734375 1.8125 6.59375 3.171875 
L 6.59375 13.328125 
Q 14.0625 8.984375 18.1875 7.9375 
Q 22.3125 6.890625 28.375 6.890625 
Q 37.546875 6.890625 42.625 10.40625 
Q 47.703125 13.921875 47.703125 21.1875 
Q 47.703125 27.640625 43.1875 31.265625 
Q 38.671875 34.90625 29.15625 34.90625 
L 19.1875 34.90625 
L 19.1875 43.015625 
L 29.546875 43.015625 
Q 38.28125 43.015625 42.140625 45.921875 
Q 46 48.828125 46 54.296875 
Q 46 59.90625 42.015625 62.90625 
Q 38.03125 65.921875 28.375 65.921875 
Q 21.828125 65.921875 19.578125 65.328125 
Q 17.328125 64.75 7.328125 60.984375 
L 7.328125 70.609375 
Q 12.84375 72.5625 18.59375 73.390625 
Q 24.359375 74.21875 28.5625 74.21875 
z
" id="DejaVuSans-1047"/>
     </defs>
     <g transform="translate(800.195 112.9575)scale(0.16 -0.16)">
      <use xlink:href="#DejaVuSans-1047"/>
      <use x="64.111328" xlink:href="#DejaVuSans-1072"/>
      <use x="125.390625" xlink:href="#DejaVuSans-1076"/>
      <use x="194.53125" xlink:href="#DejaVuSans-1072"/>
      <use x="255.810547" xlink:href="#DejaVuSans-1085"/>
      <use x="321.191406" xlink:href="#DejaVuSans-1080"/>
      <use x="386.181641" xlink:href="#DejaVuSans-1077"/>
     </g>
    </g>
    <g id="line2d_17">
     <path d="M 755.395 130.8425 
L 787.395 130.8425 
" style="fill:none;stroke:#ff7f0e;stroke-linecap:square;stroke-width:1.5;"/>
    </g>
    <g id="line2d_18"/>
    <g id="text_16">
     <!-- Нейро управление -->
     <defs>
      <path d="M 9.8125 72.90625 
L 19.671875 72.90625 
L 19.671875 43.015625 
L 55.515625 43.015625 
L 55.515625 72.90625 
L 65.375 72.90625 
L 65.375 0 
L 55.515625 0 
L 55.515625 34.71875 
L 19.671875 34.71875 
L 19.671875 0 
L 9.8125 0 
z
" id="DejaVuSans-1053"/>
      <path d="M 32.171875 -5.078125 
Q 28.375 -14.84375 24.75 -17.8125 
Q 21.140625 -20.796875 15.09375 -20.796875 
L 7.90625 -20.796875 
L 7.90625 -13.28125 
L 13.1875 -13.28125 
Q 16.890625 -13.28125 18.9375 -11.515625 
Q 21 -9.765625 23.484375 -3.21875 
L 25.09375 0.875 
L 2.984375 54.6875 
L 12.5 54.6875 
L 29.59375 11.921875 
L 46.6875 54.6875 
L 56.203125 54.6875 
z
" id="DejaVuSans-1091"/>
      <path d="M 3.71875 0 
L 3.71875 7.46875 
Q 12.59375 8.84375 15.328125 14.984375 
Q 18.65625 23.640625 18.65625 45.75 
L 18.65625 54.6875 
L 55.609375 54.6875 
L 55.609375 0 
L 46.625 0 
L 46.625 47.515625 
L 27.640625 47.515625 
L 27.640625 42.09375 
Q 27.640625 21 23.34375 11.53125 
Q 18.75 1.421875 3.71875 0 
z
" id="DejaVuSans-1083"/>
     </defs>
     <g transform="translate(800.195 136.4425)scale(0.16 -0.16)">
      <use xlink:href="#DejaVuSans-1053"/>
      <use x="75.195312" xlink:href="#DejaVuSans-1077"/>
      <use x="136.71875" xlink:href="#DejaVuSans-1081"/>
      <use x="201.708984" xlink:href="#DejaVuSans-1088"/>
      <use x="265.185547" xlink:href="#DejaVuSans-1086"/>
      <use x="326.367188" xlink:href="#DejaVuSans-32"/>
      <use x="358.154297" xlink:href="#DejaVuSans-1091"/>
      <use x="417.333984" xlink:href="#DejaVuSans-1087"/>
      <use x="482.714844" xlink:href="#DejaVuSans-1088"/>
      <use x="546.191406" xlink:href="#DejaVuSans-1072"/>
      <use x="607.470703" xlink:href="#DejaVuSans-1074"/>
      <use x="666.40625" xlink:href="#DejaVuSans-1083"/>
      <use x="730.322266" xlink:href="#DejaVuSans-1077"/>
      <use x="791.845703" xlink:href="#DejaVuSans-1085"/>
      <use x="857.226562" xlink:href="#DejaVuSans-1080"/>
      <use x="922.216797" xlink:href="#DejaVuSans-1077"/>
     </g>
    </g>
    <g id="line2d_19">
     <path d="M 755.395 154.3275 
L 787.395 154.3275 
" style="fill:none;stroke:#2ca02c;stroke-linecap:square;stroke-width:1.5;"/>
    </g>
    <g id="line2d_20"/>
    <g id="text_17">
     <!-- ПИД управление -->
     <defs>
      <path d="M 64.984375 72.90625 
L 64.984375 0 
L 55.421875 0 
L 55.421875 60.984375 
L 23.09375 0 
L 9.8125 0 
L 9.8125 72.90625 
L 19.390625 72.90625 
L 19.390625 11.921875 
L 51.703125 72.90625 
z
" id="DejaVuSans-1048"/>
      <path d="M 22.796875 8.296875 
L 55.03125 8.296875 
L 55.03125 64.59375 
L 31.34375 64.59375 
L 31.34375 54.25 
Q 31.34375 29.890625 25.875 13.71875 
Q 24.75 10.40625 22.796875 8.296875 
z
M 8.40625 8.296875 
Q 14.9375 11.375 16.796875 17.234375 
Q 21.53125 32.28125 21.53125 59.125 
L 21.53125 72.90625 
L 64.890625 72.90625 
L 64.890625 8.296875 
L 73.1875 8.296875 
L 73.1875 -15.671875 
L 64.890625 -15.671875 
L 64.890625 0 
L 13.234375 0 
L 13.234375 -15.671875 
L 4.9375 -15.671875 
L 4.9375 8.296875 
z
" id="DejaVuSans-1044"/>
     </defs>
     <g transform="translate(800.195 159.9275)scale(0.16 -0.16)">
      <use xlink:href="#DejaVuSans-1055"/>
      <use x="75.195312" xlink:href="#DejaVuSans-1048"/>
      <use x="150" xlink:href="#DejaVuSans-1044"/>
      <use x="228.125" xlink:href="#DejaVuSans-32"/>
      <use x="259.912109" xlink:href="#DejaVuSans-1091"/>
      <use x="319.091797" xlink:href="#DejaVuSans-1087"/>
      <use x="384.472656" xlink:href="#DejaVuSans-1088"/>
      <use x="447.949219" xlink:href="#DejaVuSans-1072"/>
      <use x="509.228516" xlink:href="#DejaVuSans-1074"/>
      <use x="568.164062" xlink:href="#DejaVuSans-1083"/>
      <use x="632.080078" xlink:href="#DejaVuSans-1077"/>
      <use x="693.603516" xlink:href="#DejaVuSans-1085"/>
      <use x="758.984375" xlink:href="#DejaVuSans-1080"/>
      <use x="823.974609" xlink:href="#DejaVuSans-1077"/>
     </g>
    </g>
   </g>
  </g>
  <g id="axes_2">
   <g id="patch_8">
    <path d="M 135 630 
L 972 630 
L 972 435.857143 
L 135 435.857143 
z
" style="fill:#ffffff;"/>
   </g>
   <g id="matplotlib.axis_3">
    <g id="xtick_7">
     <g id="line2d_21">
      <g>
       <use style="stroke:#000000;stroke-width:0.8;" x="173.045455" xlink:href="#m47bb06301c" y="630"/>
      </g>
     </g>
     <g id="text_18">
      <!-- 0 -->
      <g transform="translate(167.955455 649.1575)scale(0.16 -0.16)">
       <use xlink:href="#DejaVuSans-48"/>
      </g>
     </g>
    </g>
    <g id="xtick_8">
     <g id="line2d_22">
      <g>
       <use style="stroke:#000000;stroke-width:0.8;" x="325.227273" xlink:href="#m47bb06301c" y="630"/>
      </g>
     </g>
     <g id="text_19">
      <!-- 2 -->
      <g transform="translate(320.137273 649.1575)scale(0.16 -0.16)">
       <use xlink:href="#DejaVuSans-50"/>
      </g>
     </g>
    </g>
    <g id="xtick_9">
     <g id="line2d_23">
      <g>
       <use style="stroke:#000000;stroke-width:0.8;" x="477.409091" xlink:href="#m47bb06301c" y="630"/>
      </g>
     </g>
     <g id="text_20">
      <!-- 4 -->
      <g transform="translate(472.319091 649.1575)scale(0.16 -0.16)">
       <use xlink:href="#DejaVuSans-52"/>
      </g>
     </g>
    </g>
    <g id="xtick_10">
     <g id="line2d_24">
      <g>
       <use style="stroke:#000000;stroke-width:0.8;" x="629.590909" xlink:href="#m47bb06301c" y="630"/>
      </g>
     </g>
     <g id="text_21">
      <!-- 6 -->
      <g transform="translate(624.500909 649.1575)scale(0.16 -0.16)">
       <use xlink:href="#DejaVuSans-54"/>
      </g>
     </g>
    </g>
    <g id="xtick_11">
     <g id="line2d_25">
      <g>
       <use style="stroke:#000000;stroke-width:0.8;" x="781.772727" xlink:href="#m47bb06301c" y="630"/>
      </g>
     </g>
     <g id="text_22">
      <!-- 8 -->
      <g transform="translate(776.682727 649.1575)scale(0.16 -0.16)">
       <use xlink:href="#DejaVuSans-56"/>
      </g>
     </g>
    </g>
    <g id="xtick_12">
     <g id="line2d_26">
      <g>
       <use style="stroke:#000000;stroke-width:0.8;" x="933.954545" xlink:href="#m47bb06301c" y="630"/>
      </g>
     </g>
     <g id="text_23">
      <!-- 10 -->
      <g transform="translate(923.774545 649.1575)scale(0.16 -0.16)">
       <use xlink:href="#DejaVuSans-49"/>
       <use x="63.623047" xlink:href="#DejaVuSans-48"/>
      </g>
     </g>
    </g>
    <g id="text_24">
     <!-- (б) Время -->
     <defs>
      <path d="M 31.109375 56 
Q 42.828125 56 49.515625 48.375 
Q 56.203125 40.765625 56.203125 27.296875 
Q 56.203125 13.875 49.515625 6.21875 
Q 42.828125 -1.421875 31.109375 -1.421875 
Q 19.34375 -1.421875 12.84375 6 
Q 6.34375 13.421875 6 27.296875 
L 5.71875 38.484375 
Q 5.46875 44.28125 5.46875 46.296875 
Q 5.46875 54.109375 8.296875 59.859375 
Q 12.75 68.890625 20.4375 72.796875 
Q 28.125 76.703125 41.015625 76.8125 
Q 46.96875 76.859375 49.609375 77.6875 
L 52.09375 70.5625 
Q 49.703125 69.578125 47.515625 69.53125 
L 35.296875 68.703125 
Q 29.15625 68.265625 25.4375 66.109375 
Q 15.71875 60.40625 14.796875 52.9375 
L 14.453125 50.203125 
Q 20.796875 56 31.109375 56 
z
M 31.109375 48.390625 
Q 23.875 48.390625 19.671875 42.75 
Q 15.484375 37.109375 15.484375 27.296875 
Q 15.484375 17.484375 19.65625 11.84375 
Q 23.828125 6.203125 31.109375 6.203125 
Q 38.28125 6.203125 42.484375 11.859375 
Q 46.6875 17.53125 46.6875 27.296875 
Q 46.6875 37.015625 42.484375 42.703125 
Q 38.28125 48.390625 31.109375 48.390625 
z
" id="DejaVuSans-1073"/>
     </defs>
     <g transform="translate(513.44375 668.915)scale(0.16 -0.16)">
      <use xlink:href="#DejaVuSans-40"/>
      <use x="39.013672" xlink:href="#DejaVuSans-1073"/>
      <use x="100.683594" xlink:href="#DejaVuSans-41"/>
      <use x="139.697266" xlink:href="#DejaVuSans-32"/>
      <use x="171.484375" xlink:href="#DejaVuSans-1042"/>
      <use x="240.087891" xlink:href="#DejaVuSans-1088"/>
      <use x="303.564453" xlink:href="#DejaVuSans-1077"/>
      <use x="365.087891" xlink:href="#DejaVuSans-1084"/>
      <use x="440.527344" xlink:href="#DejaVuSans-1103"/>
     </g>
    </g>
   </g>
   <g id="matplotlib.axis_4">
    <g id="ytick_6">
     <g id="line2d_27">
      <g>
       <use style="stroke:#000000;stroke-width:0.8;" x="135" xlink:href="#m4c7da8c2db" y="621.175325"/>
      </g>
     </g>
     <g id="text_25">
      <!-- 0.000 -->
      <g transform="translate(82.195 627.254075)scale(0.16 -0.16)">
       <use xlink:href="#DejaVuSans-48"/>
       <use x="63.623047" xlink:href="#DejaVuSans-46"/>
       <use x="95.410156" xlink:href="#DejaVuSans-48"/>
       <use x="159.033203" xlink:href="#DejaVuSans-48"/>
       <use x="222.65625" xlink:href="#DejaVuSans-48"/>
      </g>
     </g>
    </g>
    <g id="ytick_7">
     <g id="line2d_28">
      <g>
       <use style="stroke:#000000;stroke-width:0.8;" x="135" xlink:href="#m4c7da8c2db" y="565.408121"/>
      </g>
     </g>
     <g id="text_26">
      <!-- 0.005 -->
      <defs>
       <path d="M 10.796875 72.90625 
L 49.515625 72.90625 
L 49.515625 64.59375 
L 19.828125 64.59375 
L 19.828125 46.734375 
Q 21.96875 47.46875 24.109375 47.828125 
Q 26.265625 48.1875 28.421875 48.1875 
Q 40.625 48.1875 47.75 41.5 
Q 54.890625 34.8125 54.890625 23.390625 
Q 54.890625 11.625 47.5625 5.09375 
Q 40.234375 -1.421875 26.90625 -1.421875 
Q 22.3125 -1.421875 17.546875 -0.640625 
Q 12.796875 0.140625 7.71875 1.703125 
L 7.71875 11.625 
Q 12.109375 9.234375 16.796875 8.0625 
Q 21.484375 6.890625 26.703125 6.890625 
Q 35.15625 6.890625 40.078125 11.328125 
Q 45.015625 15.765625 45.015625 23.390625 
Q 45.015625 31 40.078125 35.4375 
Q 35.15625 39.890625 26.703125 39.890625 
Q 22.75 39.890625 18.8125 39.015625 
Q 14.890625 38.140625 10.796875 36.28125 
z
" id="DejaVuSans-53"/>
      </defs>
      <g transform="translate(82.195 571.486871)scale(0.16 -0.16)">
       <use xlink:href="#DejaVuSans-48"/>
       <use x="63.623047" xlink:href="#DejaVuSans-46"/>
       <use x="95.410156" xlink:href="#DejaVuSans-48"/>
       <use x="159.033203" xlink:href="#DejaVuSans-48"/>
       <use x="222.65625" xlink:href="#DejaVuSans-53"/>
      </g>
     </g>
    </g>
    <g id="ytick_8">
     <g id="line2d_29">
      <g>
       <use style="stroke:#000000;stroke-width:0.8;" x="135" xlink:href="#m4c7da8c2db" y="509.640918"/>
      </g>
     </g>
     <g id="text_27">
      <!-- 0.010 -->
      <g transform="translate(82.195 515.719668)scale(0.16 -0.16)">
       <use xlink:href="#DejaVuSans-48"/>
       <use x="63.623047" xlink:href="#DejaVuSans-46"/>
       <use x="95.410156" xlink:href="#DejaVuSans-48"/>
       <use x="159.033203" xlink:href="#DejaVuSans-49"/>
       <use x="222.65625" xlink:href="#DejaVuSans-48"/>
      </g>
     </g>
    </g>
    <g id="ytick_9">
     <g id="line2d_30">
      <g>
       <use style="stroke:#000000;stroke-width:0.8;" x="135" xlink:href="#m4c7da8c2db" y="453.873714"/>
      </g>
     </g>
     <g id="text_28">
      <!-- 0.015 -->
      <g transform="translate(82.195 459.952464)scale(0.16 -0.16)">
       <use xlink:href="#DejaVuSans-48"/>
       <use x="63.623047" xlink:href="#DejaVuSans-46"/>
       <use x="95.410156" xlink:href="#DejaVuSans-48"/>
       <use x="159.033203" xlink:href="#DejaVuSans-49"/>
       <use x="222.65625" xlink:href="#DejaVuSans-53"/>
      </g>
     </g>
    </g>
    <g id="text_29">
     <!-- abs(pid-nn) -->
     <defs>
      <path d="M 48.6875 27.296875 
Q 48.6875 37.203125 44.609375 42.84375 
Q 40.53125 48.484375 33.40625 48.484375 
Q 26.265625 48.484375 22.1875 42.84375 
Q 18.109375 37.203125 18.109375 27.296875 
Q 18.109375 17.390625 22.1875 11.75 
Q 26.265625 6.109375 33.40625 6.109375 
Q 40.53125 6.109375 44.609375 11.75 
Q 48.6875 17.390625 48.6875 27.296875 
z
M 18.109375 46.390625 
Q 20.953125 51.265625 25.265625 53.625 
Q 29.59375 56 35.59375 56 
Q 45.5625 56 51.78125 48.09375 
Q 58.015625 40.1875 58.015625 27.296875 
Q 58.015625 14.40625 51.78125 6.484375 
Q 45.5625 -1.421875 35.59375 -1.421875 
Q 29.59375 -1.421875 25.265625 0.953125 
Q 20.953125 3.328125 18.109375 8.203125 
L 18.109375 0 
L 9.078125 0 
L 9.078125 75.984375 
L 18.109375 75.984375 
z
" id="DejaVuSans-98"/>
      <path d="M 44.28125 53.078125 
L 44.28125 44.578125 
Q 40.484375 46.53125 36.375 47.5 
Q 32.28125 48.484375 27.875 48.484375 
Q 21.1875 48.484375 17.84375 46.4375 
Q 14.5 44.390625 14.5 40.28125 
Q 14.5 37.15625 16.890625 35.375 
Q 19.28125 33.59375 26.515625 31.984375 
L 29.59375 31.296875 
Q 39.15625 29.25 43.1875 25.515625 
Q 47.21875 21.78125 47.21875 15.09375 
Q 47.21875 7.46875 41.1875 3.015625 
Q 35.15625 -1.421875 24.609375 -1.421875 
Q 20.21875 -1.421875 15.453125 -0.5625 
Q 10.6875 0.296875 5.421875 2 
L 5.421875 11.28125 
Q 10.40625 8.6875 15.234375 7.390625 
Q 20.0625 6.109375 24.8125 6.109375 
Q 31.15625 6.109375 34.5625 8.28125 
Q 37.984375 10.453125 37.984375 14.40625 
Q 37.984375 18.0625 35.515625 20.015625 
Q 33.0625 21.96875 24.703125 23.78125 
L 21.578125 24.515625 
Q 13.234375 26.265625 9.515625 29.90625 
Q 5.8125 33.546875 5.8125 39.890625 
Q 5.8125 47.609375 11.28125 51.796875 
Q 16.75 56 26.8125 56 
Q 31.78125 56 36.171875 55.265625 
Q 40.578125 54.546875 44.28125 53.078125 
z
" id="DejaVuSans-115"/>
      <path d="M 18.109375 8.203125 
L 18.109375 -20.796875 
L 9.078125 -20.796875 
L 9.078125 54.6875 
L 18.109375 54.6875 
L 18.109375 46.390625 
Q 20.953125 51.265625 25.265625 53.625 
Q 29.59375 56 35.59375 56 
Q 45.5625 56 51.78125 48.09375 
Q 58.015625 40.1875 58.015625 27.296875 
Q 58.015625 14.40625 51.78125 6.484375 
Q 45.5625 -1.421875 35.59375 -1.421875 
Q 29.59375 -1.421875 25.265625 0.953125 
Q 20.953125 3.328125 18.109375 8.203125 
z
M 48.6875 27.296875 
Q 48.6875 37.203125 44.609375 42.84375 
Q 40.53125 48.484375 33.40625 48.484375 
Q 26.265625 48.484375 22.1875 42.84375 
Q 18.109375 37.203125 18.109375 27.296875 
Q 18.109375 17.390625 22.1875 11.75 
Q 26.265625 6.109375 33.40625 6.109375 
Q 40.53125 6.109375 44.609375 11.75 
Q 48.6875 17.390625 48.6875 27.296875 
z
" id="DejaVuSans-112"/>
      <path d="M 9.421875 54.6875 
L 18.40625 54.6875 
L 18.40625 0 
L 9.421875 0 
z
M 9.421875 75.984375 
L 18.40625 75.984375 
L 18.40625 64.59375 
L 9.421875 64.59375 
z
" id="DejaVuSans-105"/>
      <path d="M 45.40625 46.390625 
L 45.40625 75.984375 
L 54.390625 75.984375 
L 54.390625 0 
L 45.40625 0 
L 45.40625 8.203125 
Q 42.578125 3.328125 38.25 0.953125 
Q 33.9375 -1.421875 27.875 -1.421875 
Q 17.96875 -1.421875 11.734375 6.484375 
Q 5.515625 14.40625 5.515625 27.296875 
Q 5.515625 40.1875 11.734375 48.09375 
Q 17.96875 56 27.875 56 
Q 33.9375 56 38.25 53.625 
Q 42.578125 51.265625 45.40625 46.390625 
z
M 14.796875 27.296875 
Q 14.796875 17.390625 18.875 11.75 
Q 22.953125 6.109375 30.078125 6.109375 
Q 37.203125 6.109375 41.296875 11.75 
Q 45.40625 17.390625 45.40625 27.296875 
Q 45.40625 37.203125 41.296875 42.84375 
Q 37.203125 48.484375 30.078125 48.484375 
Q 22.953125 48.484375 18.875 42.84375 
Q 14.796875 37.203125 14.796875 27.296875 
z
" id="DejaVuSans-100"/>
      <path d="M 4.890625 31.390625 
L 31.203125 31.390625 
L 31.203125 23.390625 
L 4.890625 23.390625 
z
" id="DejaVuSans-45"/>
      <path d="M 54.890625 33.015625 
L 54.890625 0 
L 45.90625 0 
L 45.90625 32.71875 
Q 45.90625 40.484375 42.875 44.328125 
Q 39.84375 48.1875 33.796875 48.1875 
Q 26.515625 48.1875 22.3125 43.546875 
Q 18.109375 38.921875 18.109375 30.90625 
L 18.109375 0 
L 9.078125 0 
L 9.078125 54.6875 
L 18.109375 54.6875 
L 18.109375 46.1875 
Q 21.34375 51.125 25.703125 53.5625 
Q 30.078125 56 35.796875 56 
Q 45.21875 56 50.046875 50.171875 
Q 54.890625 44.34375 54.890625 33.015625 
z
" id="DejaVuSans-110"/>
     </defs>
     <g transform="translate(74.8675 578.726071)rotate(-90)scale(0.16 -0.16)">
      <use xlink:href="#DejaVuSans-97"/>
      <use x="61.279297" xlink:href="#DejaVuSans-98"/>
      <use x="124.755859" xlink:href="#DejaVuSans-115"/>
      <use x="176.855469" xlink:href="#DejaVuSans-40"/>
      <use x="215.869141" xlink:href="#DejaVuSans-112"/>
      <use x="279.345703" xlink:href="#DejaVuSans-105"/>
      <use x="307.128906" xlink:href="#DejaVuSans-100"/>
      <use x="370.605469" xlink:href="#DejaVuSans-45"/>
      <use x="406.689453" xlink:href="#DejaVuSans-110"/>
      <use x="470.068359" xlink:href="#DejaVuSans-110"/>
      <use x="533.447266" xlink:href="#DejaVuSans-41"/>
     </g>
    </g>
   </g>
   <g id="line2d_31">
    <path clip-path="url(#pb3406435b6)" d="M 173.045455 621.175325 
L 184.459091 621.15757 
L 185.22 620.14579 
L 185.980909 619.341314 
L 187.502727 619.021398 
L 189.024545 617.700271 
L 190.546364 617.993472 
L 192.068182 616.380227 
L 192.829091 616.427346 
L 193.59 617.030495 
L 194.350909 618.153833 
L 195.111818 619.930643 
L 195.872727 619.7191 
L 196.633636 617.638797 
L 197.394545 616.872464 
L 198.155455 616.955645 
L 198.916364 617.394746 
L 199.677273 617.676944 
L 200.438182 617.290839 
L 201.199091 615.743506 
L 201.96 614.683643 
L 202.720909 614.419822 
L 204.242727 614.458816 
L 205.003636 613.881279 
L 205.764545 612.362316 
L 206.525455 611.926124 
L 207.286364 612.705648 
L 208.047273 614.369411 
L 210.33 620.792832 
L 211.090909 618.582463 
L 211.851818 616.874543 
L 212.612727 615.891061 
L 213.373636 615.825466 
L 214.134545 616.858536 
L 214.895455 616.516711 
L 215.656364 617.397758 
L 216.417273 617.213853 
L 217.178182 615.881316 
L 217.939091 613.517417 
L 218.7 610.238581 
L 219.460909 606.151919 
L 220.221818 601.345641 
L 221.743636 595.396867 
L 223.265455 587.638429 
L 224.787273 578.322386 
L 227.07 562.240903 
L 227.830909 556.455761 
L 231.635455 539.431996 
L 235.44 520.744152 
L 240.766364 493.694207 
L 241.527273 492.456725 
L 246.092727 486.522711 
L 249.897273 481.63056 
L 251.419091 478.960284 
L 252.940909 475.512877 
L 254.462727 471.302075 
L 255.223636 469.084912 
L 255.984545 469.523551 
L 256.745455 474.070952 
L 258.267273 489.34373 
L 260.55 514.096153 
L 262.071818 530.109544 
L 263.593636 545.480017 
L 265.115455 557.163585 
L 266.637273 566.072696 
L 268.159091 578.528155 
L 269.680909 591.322675 
L 270.441818 596.370761 
L 271.963636 603.170396 
L 273.485455 610.706167 
L 274.246364 613.766218 
L 275.007273 615.721485 
L 275.768182 616.131306 
L 276.529091 617.259778 
L 277.29 619.28581 
L 278.050909 620.504733 
L 279.572727 615.12924 
L 280.333636 612.91111 
L 281.094545 611.351288 
L 281.855455 610.67956 
L 282.616364 611.113294 
L 283.377273 612.858502 
L 284.138182 613.097526 
L 284.899091 611.757073 
L 285.66 611.984624 
L 286.420909 611.166882 
L 287.181818 609.176575 
L 287.942727 606.144264 
L 288.703636 602.171004 
L 289.464545 597.355819 
L 290.225455 591.787263 
L 291.747273 584.929959 
L 293.269091 576.109554 
L 294.790909 565.505206 
L 295.551818 559.656248 
L 297.834545 549.859548 
L 298.595455 546.192526 
L 300.878182 543.604356 
L 302.4 541.301785 
L 303.921818 538.561742 
L 304.682727 537.048841 
L 306.204545 540.04271 
L 308.487273 544.437244 
L 310.77 548.433021 
L 313.813636 553.285115 
L 318.379091 560.090847 
L 322.944545 566.843692 
L 324.466364 573.69019 
L 326.749091 585.653726 
L 327.51 589.231162 
L 329.031818 598.014799 
L 330.553636 604.845048 
L 332.075455 613.881941 
L 332.836364 619.184276 
L 333.597273 619.133404 
L 334.358182 617.22848 
L 335.119091 617.078159 
L 335.88 618.238638 
L 336.640909 620.246104 
L 337.401818 619.749746 
L 338.162727 617.556192 
L 338.923636 616.038028 
L 339.684545 615.683928 
L 340.445455 614.842302 
L 341.206364 613.196792 
L 342.728182 609.339505 
L 343.489091 608.01133 
L 344.25 607.629696 
L 345.010909 608.561001 
L 345.771818 608.771836 
L 346.532727 608.11047 
L 347.293636 606.886487 
L 348.815455 603.913317 
L 349.576364 602.692221 
L 350.337273 601.9615 
L 351.098182 601.942121 
L 351.859091 602.836046 
L 352.62 604.833708 
L 353.380909 605.456055 
L 354.141818 604.656841 
L 354.902727 605.223793 
L 355.663636 604.852159 
L 356.424545 603.447816 
L 357.185455 601.12708 
L 357.946364 597.997064 
L 358.707273 594.145977 
L 360.229091 584.573036 
L 361.750909 578.457472 
L 363.272727 570.989749 
L 364.794545 562.344665 
L 367.077273 547.771445 
L 367.838182 542.604769 
L 371.642727 529.174496 
L 373.925455 519.864338 
L 376.208182 509.427497 
L 378.490909 497.902078 
L 380.773636 485.453553 
L 381.534545 483.661555 
L 382.295455 485.333405 
L 383.056364 490.133081 
L 387.621818 527.251142 
L 388.382727 532.298785 
L 389.904545 540.837998 
L 390.665455 546.971742 
L 392.948182 568.93782 
L 393.709091 574.519936 
L 395.230909 583.172514 
L 395.991818 586.127796 
L 397.513636 591.012101 
L 398.274545 592.675477 
L 399.035455 594.627148 
L 400.557273 599.776433 
L 401.318182 601.601518 
L 402.079091 604.223031 
L 403.600909 611.915983 
L 405.122727 619.37814 
L 405.883636 620.502837 
L 406.644545 619.430488 
L 407.405455 617.747637 
L 408.166364 615.31335 
L 411.21 604.209712 
L 411.970909 602.421186 
L 412.731818 601.488929 
L 413.492727 601.614201 
L 414.253636 602.978464 
L 415.775455 603.142741 
L 418.058182 603.111862 
L 420.340909 602.863866 
L 421.862727 602.523646 
L 422.623636 603.993366 
L 423.384545 606.411891 
L 424.906364 609.995578 
L 425.667273 611.02851 
L 427.189091 615.050348 
L 427.95 617.740551 
L 428.710909 619.862492 
L 429.471818 620.75662 
L 430.232727 620.655659 
L 430.993636 619.562531 
L 431.754545 619.287269 
L 432.515455 620.688911 
L 433.276364 619.020034 
L 435.559091 609.031195 
L 436.32 606.959578 
L 437.080909 606.482236 
L 437.841818 605.822406 
L 439.363636 603.542714 
L 440.124545 602.958133 
L 440.885455 603.38543 
L 441.646364 605.276402 
L 442.407273 606.359884 
L 443.168182 606.473573 
L 443.929091 605.984529 
L 445.450909 604.55628 
L 446.211818 604.213642 
L 446.972727 604.481574 
L 447.733636 605.591283 
L 448.494545 607.770057 
L 449.255455 608.212798 
L 450.016364 609.879926 
L 450.777273 610.172963 
L 451.538182 608.996617 
L 452.299091 606.504266 
L 453.06 602.829607 
L 453.820909 601.086775 
L 454.581818 598.629281 
L 455.342727 595.296257 
L 456.103636 591.185375 
L 457.625455 580.962388 
L 458.386364 574.983273 
L 459.908182 567.839019 
L 461.43 559.330128 
L 462.951818 549.535405 
L 465.234545 542.472425 
L 467.517273 543.455622 
L 469.039091 543.603756 
L 470.560909 543.329335 
L 472.082727 542.730355 
L 473.604545 541.862646 
L 475.887273 540.208269 
L 478.17 538.23697 
L 482.735455 533.769762 
L 484.257273 538.443994 
L 491.105455 560.01482 
L 501.758182 592.713662 
L 510.889091 620.068501 
L 511.65 620.036985 
L 521.541818 591.087213 
L 531.433636 562.710119 
L 543.608182 528.56086 
L 555.782727 495.241609 
L 567.957273 462.732193 
L 574.805455 444.79929 
L 575.566364 445.829054 
L 589.262727 468.261085 
L 599.154545 484.092859 
L 606.002727 494.892748 
L 615.894545 510.197392 
L 625.786364 525.220932 
L 635.678182 539.92528 
L 645.57 554.360604 
L 655.461818 568.488181 
L 666.114545 583.416687 
L 675.245455 595.931563 
L 685.898182 610.275489 
L 693.507273 620.311154 
L 694.268182 621.049845 
L 704.16 608.247237 
L 714.812727 594.716504 
L 724.704545 582.434779 
L 740.683636 563.088797 
L 751.336364 550.519768 
L 760.467273 539.986977 
L 765.032727 534.792908 
L 766.554545 539.313147 
L 777.968182 574.519503 
L 787.86 604.419275 
L 793.186364 620.265359 
L 793.947273 619.829555 
L 803.078182 593.122762 
L 815.252727 558.229545 
L 829.71 517.930668 
L 838.840909 493.065977 
L 854.059091 452.6242 
L 857.102727 444.681818 
L 857.863636 445.711208 
L 867.755455 462.007036 
L 877.647273 477.958609 
L 887.539091 493.616472 
L 897.430909 508.942388 
L 907.322727 523.986978 
L 917.214545 538.711761 
L 927.106364 553.155996 
L 933.954545 562.993199 
L 933.954545 562.993199 
" style="fill:none;stroke:#1f77b4;stroke-linecap:square;stroke-width:1.5;"/>
   </g>
   <g id="patch_9">
    <path d="M 135 630 
L 135 435.857143 
" style="fill:none;stroke:#000000;stroke-linecap:square;stroke-linejoin:miter;stroke-width:0.8;"/>
   </g>
   <g id="patch_10">
    <path d="M 972 630 
L 972 435.857143 
" style="fill:none;stroke:#000000;stroke-linecap:square;stroke-linejoin:miter;stroke-width:0.8;"/>
   </g>
   <g id="patch_11">
    <path d="M 135 630 
L 972 630 
" style="fill:none;stroke:#000000;stroke-linecap:square;stroke-linejoin:miter;stroke-width:0.8;"/>
   </g>
   <g id="patch_12">
    <path d="M 135 435.857143 
L 972 435.857143 
" style="fill:none;stroke:#000000;stroke-linecap:square;stroke-linejoin:miter;stroke-width:0.8;"/>
   </g>
   <g id="text_30">
    <!-- Разность между состояниями при упралвении -->
    <defs>
     <path d="M 43.453125 16.21875 
Q 43.453125 20.609375 40.25 22.90625 
Q 37.0625 25.203125 30.90625 25.203125 
L 18.109375 25.203125 
L 18.109375 7.171875 
L 30.90625 7.171875 
Q 37.0625 7.171875 40.25 9.484375 
Q 43.453125 11.8125 43.453125 16.21875 
z
M 9.078125 54.6875 
L 18.109375 54.6875 
L 18.109375 32.375 
L 31.296875 32.375 
Q 41.75 32.375 47.390625 28.390625 
Q 53.03125 24.421875 53.03125 16.21875 
Q 53.03125 8.015625 47.390625 4 
Q 41.75 0 31.296875 0 
L 9.078125 0 
z
" id="DejaVuSans-1100"/>
     <path d="M 40.578125 54.6875 
L 49.515625 54.6875 
L 49.515625 29 
L 73.390625 54.6875 
L 83.84375 54.6875 
L 64.203125 33.640625 
L 86.671875 0 
L 77.046875 0 
L 58.640625 27.640625 
L 49.515625 17.828125 
L 49.515625 0 
L 40.578125 0 
L 40.578125 17.828125 
L 31.453125 27.640625 
L 13.03125 0 
L 3.421875 0 
L 25.875 33.640625 
L 6.25 54.6875 
L 16.703125 54.6875 
L 40.578125 29 
z
" id="DejaVuSans-1078"/>
    </defs>
    <g transform="translate(317.283 408.357343)scale(0.192 -0.192)">
     <use xlink:href="#DejaVuSans-1056"/>
     <use x="60.302734" xlink:href="#DejaVuSans-1072"/>
     <use x="121.582031" xlink:href="#DejaVuSans-1079"/>
     <use x="174.755859" xlink:href="#DejaVuSans-1085"/>
     <use x="240.136719" xlink:href="#DejaVuSans-1086"/>
     <use x="301.318359" xlink:href="#DejaVuSans-1089"/>
     <use x="356.298828" xlink:href="#DejaVuSans-1090"/>
     <use x="414.550781" xlink:href="#DejaVuSans-1100"/>
     <use x="473.486328" xlink:href="#DejaVuSans-32"/>
     <use x="505.273438" xlink:href="#DejaVuSans-1084"/>
     <use x="580.712891" xlink:href="#DejaVuSans-1077"/>
     <use x="642.236328" xlink:href="#DejaVuSans-1078"/>
     <use x="732.324219" xlink:href="#DejaVuSans-1076"/>
     <use x="801.464844" xlink:href="#DejaVuSans-1091"/>
     <use x="860.644531" xlink:href="#DejaVuSans-32"/>
     <use x="892.431641" xlink:href="#DejaVuSans-1089"/>
     <use x="947.412109" xlink:href="#DejaVuSans-1086"/>
     <use x="1008.59375" xlink:href="#DejaVuSans-1089"/>
     <use x="1063.574219" xlink:href="#DejaVuSans-1090"/>
     <use x="1121.826172" xlink:href="#DejaVuSans-1086"/>
     <use x="1183.007812" xlink:href="#DejaVuSans-1103"/>
     <use x="1243.164062" xlink:href="#DejaVuSans-1085"/>
     <use x="1308.544922" xlink:href="#DejaVuSans-1080"/>
     <use x="1373.535156" xlink:href="#DejaVuSans-1103"/>
     <use x="1433.691406" xlink:href="#DejaVuSans-1084"/>
     <use x="1509.130859" xlink:href="#DejaVuSans-1080"/>
     <use x="1574.121094" xlink:href="#DejaVuSans-32"/>
     <use x="1605.908203" xlink:href="#DejaVuSans-1087"/>
     <use x="1671.289062" xlink:href="#DejaVuSans-1088"/>
     <use x="1734.765625" xlink:href="#DejaVuSans-1080"/>
     <use x="1799.755859" xlink:href="#DejaVuSans-32"/>
     <use x="1831.542969" xlink:href="#DejaVuSans-1091"/>
     <use x="1890.722656" xlink:href="#DejaVuSans-1087"/>
     <use x="1956.103516" xlink:href="#DejaVuSans-1088"/>
     <use x="2019.580078" xlink:href="#DejaVuSans-1072"/>
     <use x="2080.859375" xlink:href="#DejaVuSans-1083"/>
     <use x="2144.775391" xlink:href="#DejaVuSans-1074"/>
     <use x="2203.710938" xlink:href="#DejaVuSans-1077"/>
     <use x="2265.234375" xlink:href="#DejaVuSans-1085"/>
     <use x="2330.615234" xlink:href="#DejaVuSans-1080"/>
     <use x="2395.605469" xlink:href="#DejaVuSans-1080"/>
    </g>
    <!-- пид и нейронной сетью -->
    <defs>
     <path d="M 53.609375 48.390625 
Q 46.390625 48.390625 42.1875 42.75 
Q 37.984375 37.109375 37.984375 27.296875 
Q 37.984375 17.484375 42.15625 11.84375 
Q 46.34375 6.203125 53.609375 6.203125 
Q 60.796875 6.203125 64.984375 11.859375 
Q 69.1875 17.53125 69.1875 27.296875 
Q 69.1875 37.015625 64.984375 42.703125 
Q 60.796875 48.390625 53.609375 48.390625 
z
M 28.8125 32.859375 
Q 29.734375 42.140625 35.8125 49.0625 
Q 41.890625 56 53.609375 56 
Q 65.328125 56 72.015625 48.375 
Q 78.71875 40.765625 78.71875 27.296875 
Q 78.71875 13.875 72.015625 6.21875 
Q 65.328125 -1.421875 53.609375 -1.421875 
Q 41.84375 -1.421875 35.421875 5.953125 
Q 29 13.328125 28.5625 25.4375 
L 18.40625 25.4375 
L 18.40625 0 
L 9.421875 0 
L 9.421875 54.6875 
L 18.40625 54.6875 
L 18.40625 32.859375 
z
" id="DejaVuSans-1102"/>
    </defs>
    <g transform="translate(433.3845 429.857143)scale(0.192 -0.192)">
     <use xlink:href="#DejaVuSans-1087"/>
     <use x="65.380859" xlink:href="#DejaVuSans-1080"/>
     <use x="130.371094" xlink:href="#DejaVuSans-1076"/>
     <use x="199.511719" xlink:href="#DejaVuSans-32"/>
     <use x="231.298828" xlink:href="#DejaVuSans-1080"/>
     <use x="296.289062" xlink:href="#DejaVuSans-32"/>
     <use x="328.076172" xlink:href="#DejaVuSans-1085"/>
     <use x="393.457031" xlink:href="#DejaVuSans-1077"/>
     <use x="454.980469" xlink:href="#DejaVuSans-1081"/>
     <use x="519.970703" xlink:href="#DejaVuSans-1088"/>
     <use x="583.447266" xlink:href="#DejaVuSans-1086"/>
     <use x="644.628906" xlink:href="#DejaVuSans-1085"/>
     <use x="710.009766" xlink:href="#DejaVuSans-1085"/>
     <use x="775.390625" xlink:href="#DejaVuSans-1086"/>
     <use x="836.572266" xlink:href="#DejaVuSans-1081"/>
     <use x="901.5625" xlink:href="#DejaVuSans-32"/>
     <use x="933.349609" xlink:href="#DejaVuSans-1089"/>
     <use x="988.330078" xlink:href="#DejaVuSans-1077"/>
     <use x="1049.853516" xlink:href="#DejaVuSans-1090"/>
     <use x="1108.105469" xlink:href="#DejaVuSans-1100"/>
     <use x="1167.041016" xlink:href="#DejaVuSans-1102"/>
    </g>
   </g>
  </g>
 </g>
 <defs>
  <clipPath id="pd03f21bcd3">
   <rect height="194.142857" width="837" x="135" y="86.4"/>
  </clipPath>
  <clipPath id="pb3406435b6">
   <rect height="194.142857" width="837" x="135" y="435.857143"/>
  </clipPath>
 </defs>
</svg>
